<svg width="384" height="344" viewBox="0 0 384 344" fill="none" xmlns="http://www.w3.org/2000/svg">
<path d="M383 244.535L381.426 234.008L373.523 235.147L356.025 247.966L356.171 210.516L365.445 208.895L370.548 188.104L356.302 179.797L341.196 184.673L339.344 203.07L350.834 211.45L354.698 210.779L354.436 277.824L337.376 268.976L331.791 273.765V280.291L354.407 284.701L354.173 342.285H355.631L355.967 255.441L382.971 244.535H383ZM356.783 181.753L368.186 188.396L354.494 194.996L356.783 181.738V181.753ZM352.963 195.288L343.252 185.564L355.311 181.665L352.948 195.288H352.963ZM350.513 209.406L341.546 202.865L352.555 197.551L350.499 209.406H350.513ZM353.911 198.31L363.359 207.786L351.928 209.786L353.911 198.31ZM364.468 206.822L354.363 196.689L368.652 189.798L364.468 206.837V206.822ZM342.464 186.834L351.869 196.266L340.992 201.522L342.464 186.834Z" fill="#161615" stroke="black" stroke-width="0.5"/>
<path d="M296.257 235.935L302.002 220.473L294.624 206.398L276.193 207.712L269.909 220.473L274.91 234.446L283.761 235.074L282.944 268.669L258.127 263.413L261.087 274.597L282.696 274.947L282.828 273.473L281.151 342.27L282.609 342.314L283.046 324.268L298.838 311.58L297.394 304.046L292.655 303.185L283.163 319.391L285.219 235.19L296.242 235.964L296.257 235.935ZM286.735 221.247H300.165L295.572 233.628L286.735 221.247ZM286.196 219.787L294.114 208.559L300.004 219.802H286.196V219.787ZM285.044 218.882L278.016 209.041L292.714 207.99L285.029 218.882H285.044ZM283.892 219.787H271.877L276.776 209.83L283.877 219.787H283.892ZM283.382 221.247L275.668 232.183L271.746 221.247H283.382ZM285.059 221.408L294.274 234.329L276.806 233.103L285.059 221.408Z" fill="#161615" stroke="black" stroke-width="0.5"/>
<path d="M147.702 56.0727L159.221 41.4139L156.159 26.8719L139.23 19.7907L125.874 32.5661L129.869 49.3712L138.356 52.554L124.78 96.5597L123.483 78.6158L118.86 77.2871L114.238 83.3901L123.031 102.254L113.699 132.506H93.2119L101.217 46.1445L112.284 46.9183L118.029 31.4565L110.651 17.3817L92.2204 18.6957L85.9359 31.4565L90.9372 45.429L99.7443 46.0423L94.9179 98.2095L77.8287 89.3471L72.2441 94.136V100.662L94.3055 104.97L91.7538 132.535H65.2742L61.6435 84.4559L83.2238 64.3074L79.6222 54.2915L72.0983 56.9634L61.1477 77.7105L58.144 37.8952L73.0169 27.894L71.9379 10.6509L55.4756 1L41.8859 13.2497L41.638 13.4833L42.1775 28.332L56.6275 37.5448L63.8015 132.52H45.4291L24.1842 65.0228H24.5342L34.8431 54.3353L26.7505 34.5225L10.3612 36.2016L1 49.0645L10.3174 65.0374H22.6532L32.5393 96.4283L8.02817 101.071L15.0563 110.24L34.4494 102.502L43.8981 132.52H32.1164L54.6153 184.177L10.3903 254.492L10.2008 254.799L43.971 343H131.94L156.086 254.332L156.174 254.025L109.31 180.541L132.946 132.52H115.215L131.838 78.6304H157.136L155.518 71.5638L151.829 69.6949L134.039 71.4908L139.712 53.1089L147.688 56.1019L147.702 56.0727ZM102.748 32.2303H116.177L111.584 44.6114L102.748 32.2303ZM102.209 30.7702L110.126 19.5425L116.017 30.7848H102.209V30.7702ZM101.057 29.865L94.0285 20.0243L108.726 18.9731L101.042 29.865H101.057ZM99.9047 30.7702H87.8898L92.7891 20.8128L99.8901 30.7702H99.9047ZM99.3944 32.2303L91.6809 43.166L87.7585 32.2303H99.3944ZM101.071 32.3909L110.287 45.3122L92.8182 44.0858L101.071 32.3909ZM57.4587 21.5136L70.7568 27.6311L58.3044 35.9972L57.4587 21.5136ZM57.6336 19.9951L70.5672 12.3153L71.4421 26.3463L57.6482 20.0097L57.6336 19.9951ZM57.2837 18.5059L56.3942 3.20466L69.7944 11.0743L57.2983 18.5059H57.2837ZM55.8693 19.1775L43.7085 13.5856L54.9507 3.45287L55.8693 19.1775ZM54.5132 20.1557L43.5919 26.6529L43.169 14.9434L54.5132 20.1557ZM55.9714 20.988L56.8462 35.9388L44.2918 27.9378L55.9714 20.988ZM19.2849 52.5832L32.4955 54.6711L24.4321 63.0371L19.2849 52.5832ZM18.6871 51.0064L26.1818 37.0046L32.8163 53.2403L18.6871 51.0064ZM17.7976 49.5756L11.863 37.5156L24.9862 36.1724L17.7976 49.5756ZM16.7332 50.6998L3.17261 48.5535L10.6382 38.2894L16.7478 50.6998H16.7332ZM16.4416 52.1306L10.7257 62.7889L3.28926 50.0428L16.4416 52.1306ZM17.7539 52.7585L23.0615 63.5482H11.9797L17.7539 52.7585ZM130.846 341.525H44.9771L11.8339 254.945L11.8922 254.857L154.541 254.142L154.614 254.259L130.846 341.54V341.525ZM107.837 180.249L107.662 180.614L56.2192 184.162L34.3474 133.966H130.613L107.837 180.249ZM144.246 38.2018L157.18 41.6329L147.833 53.5469L144.246 38.2164V38.2018ZM142.278 36.1724L128.134 32.4201L138.983 22.0392L142.278 36.1578V36.1724ZM140.426 21.864L154.147 27.6019L143.823 36.4352L140.411 21.864H140.426ZM146.448 54.0287L131.911 48.5681L142.963 39.1071L146.448 54.0287ZM157.486 40.2021L145.413 37.0046L155.066 28.7408L157.486 40.2021ZM127.682 33.8217L142.365 37.7054L130.934 47.4877L127.682 33.8217Z" fill="#161615" stroke="black" stroke-width="0.5"/>
<path d="M231.895 293.519L227.798 293.008L211.933 300.586V269.794L226.879 259.748L225.8 242.505L209.367 232.854L195.777 245.104L195.529 245.338L196.069 260.186L210.475 269.37V341.686H211.933V308.222L235.803 299.637L231.895 293.534V293.519ZM211.35 253.368L224.648 259.486L212.196 267.852L211.35 253.368ZM211.525 251.85L224.459 244.17L225.333 258.201L211.54 251.864L211.525 251.85ZM211.175 250.36L210.286 235.059L223.686 242.929L211.175 250.36ZM209.761 251.032L197.6 245.44L208.842 235.307L209.761 251.032ZM208.405 252.01L197.483 258.507L197.06 246.798L208.405 252.01ZM209.863 252.842L210.738 267.793L198.183 259.792L209.863 252.842Z" fill="#161615" stroke="black" stroke-width="0.5"/>
</svg>
