<svg width="1123" height="331" viewBox="0 0 1123 331" fill="none" xmlns="http://www.w3.org/2000/svg">
<path d="M321.51 112.957L320.074 114.414L325.069 119.48H319.387V121.531H327.516C327.921 121.531 328.285 121.285 328.447 120.896C328.609 120.506 328.507 120.075 328.224 119.788L321.51 112.978V112.957Z" fill="#161615"/>
<path d="M316.353 112.26C316.353 110.988 315.382 109.962 314.189 109.962C312.996 109.962 312.025 110.988 312.025 112.26C312.025 113.532 312.996 114.557 314.189 114.557C315.382 114.557 316.353 113.532 316.353 112.26Z" fill="#161615"/>
<path d="M328.062 109.942C326.869 109.942 325.898 110.968 325.898 112.239C325.898 113.511 326.869 114.537 328.062 114.537C329.256 114.537 330.226 113.511 330.226 112.239C330.226 110.968 329.256 109.942 328.062 109.942Z" fill="#161615"/>
<path d="M165.082 68.0144C166.275 68.0144 167.246 66.9887 167.246 65.717C167.246 64.4452 166.275 63.4196 165.082 63.4196C163.889 63.4196 162.918 64.4452 162.918 65.717C162.918 66.9887 163.889 68.0144 165.082 68.0144Z" fill="#161615"/>
<path d="M178.957 68.0144C180.15 68.0144 181.121 66.9887 181.121 65.717C181.121 64.4452 180.15 63.4196 178.957 63.4196C177.764 63.4196 176.793 64.4452 176.793 65.717C176.793 66.9887 177.764 68.0144 178.957 68.0144Z" fill="#161615"/>
<path d="M179.845 76.9372C180.007 76.5475 179.906 76.1167 179.623 75.8296L172.909 69.0194L171.473 70.4758L176.468 75.5424H170.785V77.5936H178.915C179.319 77.5936 179.683 77.3475 179.845 76.9577V76.9372Z" fill="#161615"/>
<path d="M630.036 224.525C634.061 224.525 637.317 221.058 637.317 216.771C637.317 212.484 634.061 209.017 630.036 209.017C626.012 209.017 622.756 212.484 622.756 216.771C622.756 221.058 626.012 224.525 630.036 224.525Z" fill="#161615"/>
<path d="M727.271 224.525C731.295 224.525 734.551 221.058 734.551 216.771C734.551 212.484 731.295 209.017 727.271 209.017C723.246 209.017 719.99 212.484 719.99 216.771C719.99 221.058 723.246 224.525 727.271 224.525Z" fill="#161615"/>
<path d="M163.344 80.4244C163.344 85.2859 167.247 89.2243 172.019 89.2243C176.792 89.2243 180.695 85.2654 180.695 80.4244H178.673C178.673 84.1577 175.68 87.173 172.019 87.173C168.359 87.173 165.366 84.1372 165.366 80.4244H163.344Z" fill="#161615"/>
<path d="M972.6 262.268C973.611 262.924 974.966 262.575 975.653 261.488C976.341 260.401 976.058 259.006 975.047 258.37C974.036 257.714 972.681 258.063 971.993 259.15C971.326 260.217 971.588 261.632 972.6 262.268Z" fill="#161615"/>
<path d="M986.775 265.919C985.764 265.263 984.409 265.611 983.721 266.698C983.054 267.765 983.317 269.18 984.328 269.816C985.339 270.452 986.694 270.124 987.382 269.037C988.049 267.97 987.786 266.555 986.775 265.919Z" fill="#161615"/>
<path d="M977.717 267.601L976.726 267.827L976.867 268.483L978 274.659L973.631 271.847L973.449 271.724L972.357 273.447L979.233 277.857C979.395 277.96 979.577 278.021 979.779 278.021C979.982 278.021 980.184 277.96 980.366 277.837C980.71 277.591 980.851 277.18 980.77 276.77L978.687 267.375L977.696 267.601H977.717Z" fill="#161615"/>
<path d="M323.451 126.454H315.645V128.506H323.451V126.454Z" fill="#161615"/>
<path d="M964.551 274.411C960.325 274.411 956.887 277.898 956.887 282.185C956.887 286.473 960.325 289.96 964.551 289.96C968.778 289.96 972.216 286.473 972.216 282.185C972.216 277.898 968.778 274.411 964.551 274.411ZM964.551 287.888C961.437 287.888 958.909 285.324 958.909 282.165C958.909 279.006 961.437 276.442 964.551 276.442C967.666 276.442 970.194 279.006 970.194 282.165C970.194 285.324 967.666 287.888 964.551 287.888Z" fill="#161615"/>
<path d="M1044.33 152.075L1072.87 101.655L1080.81 47.1738L1059.22 16.8564H1010.38L970.213 40.9585L967.907 86.9681V87.1117L981.781 150.413L983.763 149.962L969.93 86.927L970.011 85.1835L1009.51 19.7486L1010.9 18.9076H1058.14L1059.03 20.1589L1071.65 96.1782L1070.99 100.794L1042.01 152.013L918.34 149.162L906.388 126.332L886.549 129.778L882.626 23.6255L757.646 34.5997L756.716 34.6817V116.219L701.789 176.156H657.763L593.089 114.106V66.9274L494.743 70.8247L502.893 56.8762L499.961 19.605L481.861 0.979675L444.589 4.22065L426.752 27.7075L429.138 60.9172L450.98 72.5478L377.023 75.4811L376.073 75.5221L373.808 165.634L343.655 167.172L365.455 133.983V94.5372L340.378 68.6709H306.161L268.424 91.0706L265.754 145.285L286.16 170.126L230.991 172.956V136.526L181.706 135.829L203.628 124.834C203.851 124.732 204.033 124.526 204.114 124.301C205.61 120.485 218.654 86.9681 218.735 82.8451C218.796 78.7631 217.825 67.194 217.502 64.8146C217.32 63.3992 210.909 54.4968 204.64 46.1277L204.356 45.7585C200.372 40.4047 196.49 35.3176 194.366 32.5484L194.063 32.1587L193.759 32.0561H193.679L168.662 23.5434L168.561 22.764L167.57 23.1742L166.802 22.9075L166.761 23.0922H166.741C166.519 23.0101 166.256 23.0306 166.033 23.1127L119.864 43.0303L119.479 43.1944L114.343 52.7327L115.232 53.0814L109.226 67.2145L109.145 66.8248L85.5244 134.496L46.4731 133.942H45.4418L46.1698 236.361L0 327.498H231.011V326.431L410.958 322.411L411.645 323.723H452.982L453.103 323.457L597.214 327.477L598.306 327.518L593.412 238.289L634.648 326.903L634.931 327.498H721.365L756.756 236.812V269.858L786.06 326.964L786.343 327.518H911.282L963.499 330L965.278 328.954H1072L1071.92 328.831L1110.26 330.021L1122.92 154.988L1123 153.921L1044.35 152.116L1044.33 152.075ZM198.775 138.126V190.741H112.543V137.06L132.564 137.901L132.523 137.819L160.169 137.572L198.755 138.126H198.775ZM117.214 53.7173C121.198 55.0301 125.344 55.7481 129.591 55.7481C146.963 55.7481 162.029 44.6098 167.489 28.2408C170.624 40.015 181.241 48.4866 193.618 48.4866C196.732 48.4866 199.766 47.9328 202.678 46.8867C209.17 55.584 215.156 63.8505 215.52 65.1223C215.843 67.4197 216.794 78.9477 216.733 82.8451C216.693 85.6553 208.199 108.363 202.415 123.193L178.107 135.378L160.209 135.542L131.249 135.131L117.882 107.686L110.035 70.6812L117.214 53.7173ZM228.988 325.446H3.31662L48.273 236.832L47.545 135.993L106.86 136.834L110.52 136.998V191.787C110.52 192.361 110.965 192.813 111.532 192.813H199.786C200.352 192.813 200.797 192.361 200.797 191.787V138.167L228.968 138.578V325.467L228.988 325.446ZM288.708 170.023L267.837 144.629L270.406 92.3218L306.727 70.7632H339.549L363.453 95.4192V133.388L341.167 167.336L288.688 170.023H288.708ZM470.475 31.01C471.668 31.01 472.639 32.0356 472.639 33.3074C472.639 34.5792 471.668 35.6048 470.475 35.6048C469.282 35.6048 468.311 34.5792 468.311 33.3074C468.311 32.0356 469.282 31.01 470.475 31.01ZM472.012 45.4303L466.45 51.1943H459.655L454.761 46.9277L456.076 45.3687L460.404 49.143H465.601L470.576 43.9944L472.012 45.4303ZM465.136 35.2971L459.716 40.7944H466.026V42.3329H457.896C457.593 42.3329 457.31 42.1483 457.188 41.8611C457.067 41.5739 457.128 41.2457 457.35 41.0201L464.064 34.2099L465.136 35.2971ZM456.602 31.01C457.795 31.01 458.766 32.0356 458.766 33.3074C458.766 34.5792 457.795 35.6048 456.602 35.6048C455.409 35.6048 454.438 34.5792 454.438 33.3074C454.438 32.0356 455.409 31.01 456.602 31.01ZM451.869 321.364L451.728 321.672H412.859L395.548 288.873L412.94 248.586L428.916 247.56L448.715 246.309L467.259 270.575L462.891 297.652L451.869 321.364ZM596.183 325.405L454.074 321.426L464.772 298.39L469.403 270.022L449.645 244.196L428.33 245.55L405.113 164.054L375.891 165.551L378.095 77.5118L591.127 69.0607V233.304V233.345L596.183 325.405ZM593.817 234.309L660.898 240.75L609.915 268.893L593.817 234.33V234.309ZM610.784 270.74L661.363 242.843L624.92 301.119L610.784 270.76V270.74ZM720.01 325.426H636.225L625.931 303.293L664.214 242.063L680.534 272.442L697.037 241.735L736.775 282.452L720.01 325.426ZM737.584 280.38L700.252 242.125L747.15 255.847L737.584 280.38ZM747.898 253.94L701.648 240.402L756.21 232.668L747.918 253.919L747.898 253.94ZM756.756 230.535L696.713 239.027H664.315L593.129 232.197V178.208H756.756V230.515V230.535ZM910.312 325.446H787.576L758.778 269.345V36.5689L783.006 34.4356L784.057 178.495H786.08L785.028 34.2715L819.549 31.2356L817.588 172.198H819.61L821.572 31.051L852.129 28.3639L848.61 172.177L850.633 172.239L854.172 28.1793L880.725 25.8408L884.608 130.967L882.383 251.807L884.406 251.848L886.61 131.87L905.316 128.629L916.743 150.434L910.312 325.467V325.446ZM1000.45 299.19L995.31 308.954L963.013 327.908L912.354 325.508L915.954 253.242L933.022 231.499H989.122L986.553 219.91L1002.81 293.488L1000.45 299.17V299.19ZM1108.38 327.887L1070.48 326.718L1012.34 241.099L995.836 226.556L986.553 216.976L939.372 220.156L915.084 251.068L918.745 151.234L1120.84 155.89L1108.4 327.887H1108.38Z" fill="#161615"/>
<path d="M1030.4 88.8551C1034.42 88.8551 1037.7 85.532 1037.7 81.4501C1037.7 77.3681 1034.42 74.045 1030.4 74.045C1027.46 74.045 1024.94 75.8296 1023.78 78.3732H1015.88C1014.7 75.8296 1012.2 74.045 1009.26 74.045C1005.24 74.045 1001.96 77.3681 1001.96 81.4501C1001.96 85.532 1005.24 88.8551 1009.26 88.8551C1013.29 88.8551 1016.56 85.532 1016.56 81.4501C1016.56 81.0808 1016.5 80.7321 1016.46 80.3834H1023.2C1023.16 80.7526 1023.1 81.0808 1023.1 81.4501C1023.1 85.532 1026.37 88.8551 1030.4 88.8551ZM1030.4 76.0963C1033.31 76.0963 1035.68 78.4963 1035.68 81.4501C1035.68 84.4039 1033.31 86.8038 1030.4 86.8038C1027.48 86.8038 1025.12 84.4039 1025.12 81.4501C1025.12 78.4963 1027.48 76.0963 1030.4 76.0963ZM1009.28 86.8038C1006.37 86.8038 1004.01 84.4039 1004.01 81.4501C1004.01 78.4963 1006.37 76.0963 1009.28 76.0963C1012.2 76.0963 1014.56 78.4963 1014.56 81.4501C1014.56 84.4039 1012.2 86.8038 1009.28 86.8038Z" fill="#161615"/>
<path d="M1018.57 85.1013L1013.96 93.5114L1022.41 94.5781L1022.67 92.5474L1017.17 91.8499L1020.33 86.0859L1018.57 85.1013Z" fill="#161615"/>
<path d="M443.72 277.098L436.338 273.755L435.044 273.16L434.215 275.027L437.087 276.319L441 278.062L437.855 279.047L435.327 280.032L436.055 281.939L438.421 281.037L443.659 279.006C444.043 278.842 444.286 278.493 444.306 278.062C444.306 277.652 444.084 277.283 443.72 277.098Z" fill="#161615"/>
<path d="M427.136 272.996C426.024 273.427 425.478 274.739 425.923 275.929C426.367 277.119 427.642 277.734 428.754 277.303C429.866 276.873 430.412 275.56 429.967 274.37C429.522 273.18 428.248 272.565 427.136 272.996Z" fill="#161615"/>
<path d="M441.717 272.298C442.849 271.847 443.395 270.534 442.95 269.345C442.485 268.155 441.231 267.539 440.099 267.97C438.987 268.421 438.441 269.734 438.885 270.924C439.33 272.114 440.604 272.729 441.717 272.298Z" fill="#161615"/>
<path d="M439.775 285.775L434.295 287.888L435.003 289.816L440.342 287.744L442.303 286.985L441.575 285.078L439.775 285.775Z" fill="#161615"/>
</svg>
