<svg width="448" height="352" viewBox="0 0 448 352" fill="none" xmlns="http://www.w3.org/2000/svg">
<path d="M287 187.5L249 331.5L236 328.5L98 75.5L137 65L176.5 23.5L261 178.5L287 187.5Z" fill="#050505" stroke="#282825"/>
<path d="M75.3424 170.109H72.7776V172.613H75.3424V170.109Z" fill="#161615"/>
<path d="M52.2967 170.109H49.7319V172.613H52.2967V170.109Z" fill="#161615"/>
<path d="M67.6605 170.109H65.0957V172.613H67.6605V170.109Z" fill="#161615"/>
<path d="M59.9786 170.109H57.4138V172.613H59.9786V170.109Z" fill="#161615"/>
<path d="M21.5819 170.109H19.0171V172.613H21.5819V170.109Z" fill="#161615"/>
<path d="M44.6273 170.109H42.0625V172.613H44.6273V170.109Z" fill="#161615"/>
<path d="M29.2635 170.109H26.6987V172.613H29.2635V170.109Z" fill="#161615"/>
<path d="M36.9454 170.109H34.3806V172.613H36.9454V170.109Z" fill="#161615"/>
<path d="M83.024 170.109H80.4592V172.613H83.024V170.109Z" fill="#161615"/>
<path d="M121.421 170.109H118.856V172.613H121.421V170.109Z" fill="#161615"/>
<path d="M13.9 170.109H11.3352V172.613H13.9V170.109Z" fill="#161615"/>
<path d="M136.772 170.109H134.207V172.613H136.772V170.109Z" fill="#161615"/>
<path d="M144.454 170.109H141.889V172.613H144.454V170.109Z" fill="#161615"/>
<path d="M129.09 170.109H126.525V172.613H129.09V170.109Z" fill="#161615"/>
<path d="M98.3753 170.109H95.8105V172.613H98.3753V170.109Z" fill="#161615"/>
<path d="M106.057 170.109H103.492V172.613H106.057V170.109Z" fill="#161615"/>
<path d="M113.739 170.109H111.174V172.613H113.739V170.109Z" fill="#161615"/>
<path d="M90.6934 170.109H88.1287V172.613H90.6934V170.109Z" fill="#161615"/>
<path d="M219.983 55.7041L218.257 57.5164L220.049 59.2273L221.776 57.415L219.983 55.7041Z" fill="#161615"/>
<path d="M214.594 50.5684L212.867 52.3804L214.659 54.0916L216.386 52.2797L214.594 50.5684Z" fill="#161615"/>
<path d="M241.471 76.2176L239.743 78.0293L241.536 79.7408L243.263 77.9292L241.471 76.2176Z" fill="#161615"/>
<path d="M213.661 44.2097L211.175 44.491L211.453 46.9544L213.939 46.6731L213.661 44.2097Z" fill="#161615"/>
<path d="M230.724 65.9658L228.998 67.7781L230.79 69.489L232.517 67.6767L230.724 65.9658Z" fill="#161615"/>
<path d="M236.101 71.1055L234.375 72.9177L236.167 74.6286L237.894 72.8164L236.101 71.1055Z" fill="#161615"/>
<path d="M225.339 60.8352L223.612 62.6475L225.405 64.3584L227.131 62.5461L225.339 60.8352Z" fill="#161615"/>
<path d="M209.486 7.29695L206.999 7.57739L207.277 10.0409L209.763 9.76049L209.486 7.29695Z" fill="#161615"/>
<path d="M210.316 14.6469L207.83 14.9282L208.108 17.3917L210.595 17.1104L210.316 14.6469Z" fill="#161615"/>
<path d="M212.812 36.8256L210.326 37.1069L210.604 39.5704L213.09 39.2891L212.812 36.8256Z" fill="#161615"/>
<path d="M211.988 29.4152L209.502 29.6965L209.78 32.16L212.266 31.8787L211.988 29.4152Z" fill="#161615"/>
<path d="M211.153 22.0309L208.667 22.3123L208.945 24.7757L211.431 24.4944L211.153 22.0309Z" fill="#161615"/>
<path d="M296.003 96.9681L295.212 99.3438L297.562 100.128L298.353 97.7523L296.003 96.9681Z" fill="#161615"/>
<path d="M288.954 94.6095L288.163 96.9851L290.513 97.7693L291.304 95.3937L288.954 94.6095Z" fill="#161615"/>
<path d="M267.818 87.5626L267.027 89.9382L269.377 90.7224L270.168 88.3468L267.818 87.5626Z" fill="#161615"/>
<path d="M260.769 85.204L259.978 87.5796L262.328 88.3638L263.119 85.9882L260.769 85.204Z" fill="#161615"/>
<path d="M274.868 89.9088L274.076 92.2844L276.426 93.0686L277.218 90.693L274.868 89.9088Z" fill="#161615"/>
<path d="M253.732 82.8619L252.94 85.2375L255.29 86.0217L256.082 83.6461L253.732 82.8619Z" fill="#161615"/>
<path d="M281.917 92.2675L281.125 94.6431L283.475 95.4272L284.267 93.0516L281.917 92.2675Z" fill="#161615"/>
<path d="M303.083 99.3435L302.292 101.719L304.642 102.503L305.433 100.127L303.083 99.3435Z" fill="#161615"/>
<path d="M324.208 106.378L323.418 108.754L325.768 109.537L326.559 107.161L324.208 106.378Z" fill="#161615"/>
<path d="M331.256 108.731L330.466 111.107L332.816 111.89L333.607 109.514L331.256 108.731Z" fill="#161615"/>
<path d="M317.161 104.021L316.371 106.397L318.721 107.18L319.512 104.804L317.161 104.021Z" fill="#161615"/>
<path d="M309.314 104.049L311.666 104.825L312.454 102.458L310.102 101.67L310.039 101.87L308.363 101.419L308.05 102.634L309.639 103.059L309.314 104.049Z" fill="#161615"/>
<path d="M246.695 80.5033L245.904 82.8789L248.254 83.6631L249.045 81.2875L246.695 80.5033Z" fill="#161615"/>
<path d="M340.842 112.726L339.153 110.885L338.777 111.236L338.29 111.073L337.489 113.439L339.378 114.078L340.842 112.726Z" fill="#161615"/>
<path d="M428.347 22.9045L426.833 24.8508L428.807 26.3891L430.322 24.4427L428.347 22.9045Z" fill="#161615"/>
<path d="M437.43 11.2021L435.916 13.1484L437.89 14.6867L439.404 12.7403L437.43 11.2021Z" fill="#161615"/>
<path d="M432.895 17.0531L431.381 18.9995L433.355 20.5378L434.869 18.5914L432.895 17.0531Z" fill="#161615"/>
<path d="M441.975 5.37126L440.461 7.31763L442.435 8.85591L443.949 6.90954L441.975 5.37126Z" fill="#161615"/>
<path d="M344.588 105.847L342.773 107.516L344.467 109.36L346.281 107.69L344.588 105.847Z" fill="#161615"/>
<path d="M382.705 70.7912L380.89 72.4604L382.584 74.3041L384.398 72.6348L382.705 70.7912Z" fill="#161615"/>
<path d="M388.151 65.776L386.336 67.4453L388.03 69.2889L389.844 67.6196L388.151 65.776Z" fill="#161615"/>
<path d="M393.592 60.7599L391.777 62.4292L393.47 64.2728L395.285 62.6035L393.592 60.7599Z" fill="#161615"/>
<path d="M404.478 50.7465L402.663 52.4158L404.356 54.2594L406.171 52.5901L404.478 50.7465Z" fill="#161615"/>
<path d="M423.802 28.7353L422.288 30.6816L424.263 32.2199L425.777 30.2736L423.802 28.7353Z" fill="#161615"/>
<path d="M399.028 55.7531L397.214 57.4224L398.907 59.266L400.722 57.5967L399.028 55.7531Z" fill="#161615"/>
<path d="M360.911 90.8266L359.096 92.4958L360.79 94.3395L362.604 92.6702L360.911 90.8266Z" fill="#161615"/>
<path d="M377.255 75.7978L375.441 77.467L377.134 79.3107L378.949 77.6414L377.255 75.7978Z" fill="#161615"/>
<path d="M350.025 100.84L348.21 102.509L349.904 104.353L351.718 102.684L350.025 100.84Z" fill="#161615"/>
<path d="M355.474 95.8334L353.66 97.5027L355.353 99.3463L357.168 97.677L355.474 95.8334Z" fill="#161615"/>
<path d="M371.806 80.8046L369.992 82.4739L371.685 84.3175L373.5 82.6482L371.806 80.8046Z" fill="#161615"/>
<path d="M366.369 85.8114L364.555 87.4807L366.248 89.3243L368.063 87.6551L366.369 85.8114Z" fill="#161615"/>
<path d="M409.924 45.7311L408.109 47.4004L409.803 49.244L411.617 47.5747L409.924 45.7311Z" fill="#161615"/>
<path d="M419.267 34.5863L417.753 36.5327L419.727 38.071L421.241 36.1246L419.267 34.5863Z" fill="#161615"/>
<path d="M414.732 40.425L413.218 42.3713L415.192 43.9096L416.706 41.9632L414.732 40.425Z" fill="#161615"/>
<path d="M261.333 176.87L176.608 22.6254L176.383 22.2122L175.782 21.1104L174.744 22.2372L173.818 22.7506L173.98 23.0511L136.097 63.8317L98.0376 73.7232L97.8999 73.4853L96.9366 74.0111L96.1859 74.2115L95.8856 74.2866L95.5479 74.3743L95.723 74.6873L96.2485 75.6514L96.5237 76.7157L96.7865 76.6405L234.484 328.298L234.735 328.749L247.121 332.38V332.417L248.322 332.743L249.523 333.094V333.056L249.848 331.841L288.182 187.338L288.508 186.123L287.344 185.81L261.358 176.87H261.333ZM247.746 329.951L236.411 326.62L150.81 170.172V170.109H150.772L99.2637 75.9644L137.16 66.123L138.273 65.835L138.136 65.2841L175.244 25.3424L189.544 51.3734L189.82 52.4376L190.095 52.3625L259.382 178.486L259.619 178.911L285.467 187.801L247.771 329.938L247.746 329.951Z" fill="#161615"/>
<path d="M145.389 61.4112L142.81 62.083L143.44 64.5064L146.019 63.8346L145.389 61.4112Z" fill="#161615"/>
<path d="M168.585 55.3948L166.006 56.0667L166.637 58.4901L169.216 57.8183L168.585 55.3948Z" fill="#161615"/>
<path d="M184.04 51.3756L181.461 52.0474L182.091 54.4708L184.67 53.799L184.04 51.3756Z" fill="#161615"/>
<path d="M153.115 59.4019L150.536 60.0737L151.166 62.4972L153.745 61.8254L153.115 59.4019Z" fill="#161615"/>
<path d="M176.317 53.3588L173.738 54.0283L174.366 56.4523L176.945 55.7827L176.317 53.3588Z" fill="#161615"/>
<path d="M160.855 57.3783L158.276 58.0479L158.904 60.4718L161.484 59.8023L160.855 57.3783Z" fill="#161615"/>
<path d="M299.275 135.772L298.646 138.144L301.064 138.787L301.694 136.415L299.275 135.772Z" fill="#161615"/>
<path d="M301.124 128.667L300.5 131.027L302.919 131.667L303.543 129.307L301.124 128.667Z" fill="#161615"/>
<path d="M295.505 149.972L294.875 152.344L297.294 152.987L297.924 150.615L295.505 149.972Z" fill="#161615"/>
<path d="M304.92 114.463L304.29 116.834L306.708 117.478L307.338 115.106L304.92 114.463Z" fill="#161615"/>
<path d="M306.803 107.369L306.173 109.74L308.591 110.384L309.221 108.012L306.803 107.369Z" fill="#161615"/>
<path d="M303.033 121.569L302.403 123.94L304.822 124.583L305.451 122.212L303.033 121.569Z" fill="#161615"/>
<path d="M291.731 164.169L291.101 166.541L293.52 167.183L294.149 164.812L291.731 164.169Z" fill="#161615"/>
<path d="M293.587 157.065L292.959 159.437L295.378 160.078L296.006 157.705L293.587 157.065Z" fill="#161615"/>
<path d="M289.824 171.264L289.197 173.637L291.616 174.277L292.243 171.905L289.824 171.264Z" fill="#161615"/>
<path d="M297.361 142.866L296.737 145.226L299.156 145.867L299.78 143.506L297.361 142.866Z" fill="#161615"/>
<path d="M287.965 178.372L287.336 180.744L289.754 181.387L290.384 179.015L287.965 178.372Z" fill="#161615"/>
<path d="M244.298 342.941L243.978 344.152L246.397 344.792L246.717 343.582L244.298 342.941Z" fill="#161615"/>
<path d="M245.975 336.608L245.418 338.714L247.837 339.355L248.394 337.248L245.975 336.608Z" fill="#161615"/>
<path d="M167.854 6.68789L165.662 7.89429L167.018 10.363L169.21 9.15662L167.854 6.68789Z" fill="#161615"/>
<path d="M171.931 14.0968L169.739 15.3032L171.095 17.772L173.288 16.5656L171.931 14.0968Z" fill="#161615"/>
<path d="M68.4743 19.6704L66.2793 20.8726L67.5046 23.1132L69.6996 21.9111L68.4743 19.6704Z" fill="#161615"/>
<path d="M75.8237 33.1286L73.6287 34.3308L74.8539 36.5715L77.049 35.3693L75.8237 33.1286Z" fill="#161615"/>
<path d="M86.8616 53.2988L84.667 54.5017L85.893 56.742L88.0877 55.539L86.8616 53.2988Z" fill="#161615"/>
<path d="M94.2246 66.7465L92.03 67.9495L93.2561 70.1897L95.4507 68.9868L94.2246 66.7465Z" fill="#161615"/>
<path d="M90.5486 60.0134L88.354 61.2163L89.5801 63.4566L91.7747 62.2536L90.5486 60.0134Z" fill="#161615"/>
<path d="M83.1856 46.5783L80.991 47.7812L82.217 50.0215L84.4116 48.8185L83.1856 46.5783Z" fill="#161615"/>
<path d="M64.7896 12.9515L62.5952 14.1548L63.8217 16.3948L66.0161 15.1915L64.7896 12.9515Z" fill="#161615"/>
<path d="M61.1129 6.23197L58.9185 7.4353L60.1449 9.67534L62.3393 8.472L61.1129 6.23197Z" fill="#161615"/>
<path d="M72.1429 26.4031L69.9485 27.6064L71.1749 29.8465L73.3693 28.6431L72.1429 26.4031Z" fill="#161615"/>
<path d="M79.5089 39.8421L77.3145 41.0454L78.5409 43.2854L80.7353 42.0821L79.5089 39.8421Z" fill="#161615"/>
<path d="M70.0574 80.9634L67.708 81.5732L68.3362 83.9972L70.6856 83.3874L70.0574 80.9634Z" fill="#161615"/>
<path d="M18.3862 85.2988L18.0259 87.7769L20.4277 88.1267L20.7881 85.6486L18.3862 85.2988Z" fill="#161615"/>
<path d="M11.1931 84.2478L10.8328 86.7258L13.2346 87.0756L13.595 84.5976L11.1931 84.2478Z" fill="#161615"/>
<path d="M63.0008 82.8152L60.6514 83.425L61.2796 85.849L63.629 85.2392L63.0008 82.8152Z" fill="#161615"/>
<path d="M77.0931 79.1426L74.7437 79.7524L75.3719 82.1764L77.7213 81.5666L77.0931 79.1426Z" fill="#161615"/>
<path d="M91.1883 75.4793L88.8389 76.0891L89.4671 78.5131L91.8165 77.9033L91.1883 75.4793Z" fill="#161615"/>
<path d="M48.918 86.4629L46.5686 87.0728L47.1968 89.4967L49.5462 88.8869L48.918 86.4629Z" fill="#161615"/>
<path d="M41.875 88.2974L40.8241 88.5728L39.9983 88.4476L39.6355 90.9268L40.9742 91.1146L42.5006 90.7264L41.875 88.2974Z" fill="#161615"/>
<path d="M84.1529 77.3157L81.8035 77.9255L82.4317 80.3495L84.7811 79.7397L84.1529 77.3157Z" fill="#161615"/>
<path d="M32.7886 87.3923L32.4282 89.8704L34.8301 90.2202L35.1904 87.7421L32.7886 87.3923Z" fill="#161615"/>
<path d="M55.9656 84.639L53.6162 85.2488L54.2444 87.6728L56.5938 87.0629L55.9656 84.639Z" fill="#161615"/>
<path d="M25.5837 86.355L25.2229 88.833L27.6247 89.1832L27.9855 86.7052L25.5837 86.355Z" fill="#161615"/>
<path d="M200.976 169.684C201.063 169.887 201.266 170.018 201.484 170.018H207.322V168.929H202.791L206.683 165.036L205.913 164.266L201.092 169.088C200.932 169.248 200.889 169.481 200.976 169.684Z" fill="#FAE44C" stroke="#FAE44C" stroke-width="0.5"/>
<path d="M200.554 165.268C201.411 165.268 202.108 164.542 202.108 163.641C202.108 162.741 201.411 162.014 200.554 162.014C199.697 162.014 199 162.741 199 163.641C199 164.542 199.697 165.268 200.554 165.268Z" fill="#FAE44C" stroke="#FAE44C" stroke-width="0.5"/>
<path d="M210.517 162C209.66 162 208.963 162.726 208.963 163.627C208.963 164.527 209.66 165.254 210.517 165.254C211.374 165.254 212.071 164.527 212.071 163.627C212.071 162.726 211.374 162 210.517 162Z" fill="#FAE44C" stroke="#FAE44C" stroke-width="0.5"/>
<path d="M207.017 174.841H203.284L200.176 172.168L199.232 173.272L202.747 176.293H207.627L211.635 172.211L210.589 171.195L207.017 174.841Z" fill="#FAE44C" stroke="#FAE44C" stroke-width="0.5"/>
</svg>
