<?xml version="1.0" encoding="utf-8"?>
<!-- Generator: Adobe Illustrator 27.8.1, SVG Export Plug-In . SVG Version: 6.00 Build 0)  -->
<svg version="1.1" id="Capa_1" xmlns="http://www.w3.org/2000/svg" xmlns:xlink="http://www.w3.org/1999/xlink" x="0px" y="0px"
	 viewBox="0 0 448 352" style="enable-background:new 0 0 448 352;" xml:space="preserve">
<style type="text/css">
	.st0{fill:#161615;}
</style>
<g>
	<path d="M137.4,53.4l-6.3-5.9l4.2-4.5l0.7,0.7l-3.5,3.7l1.9,1.8l3.3-3.5l0.7,0.7l-3.3,3.5l2.1,2l3.6-3.8l0.7,0.7L137.4,53.4z"/>
	<path d="M143,47.5l-0.9-0.8l0.8-0.9l0.9,0.8L143,47.5z"/>
	<path d="M144.2,40.1c-1-1-1.6-2-1.7-3.1c-0.1-1.1,0.3-2.1,1.1-3c0.5-0.6,1.2-1,1.9-1.2s1.4-0.2,2.2,0c0.7,0.2,1.4,0.6,2,1.2
		c0.6,0.6,1.1,1.3,1.3,2c0.3,0.7,0.3,1.4,0.1,2.2c-0.2,0.7-0.5,1.3-1,1.9c-0.6,0.6-1.2,1-1.9,1.2c-0.7,0.2-1.4,0.2-2.2,0
		C145.3,41,144.7,40.6,144.2,40.1z M145,39.3c0.8,0.7,1.5,1.1,2.4,1.1c0.8,0,1.5-0.3,2.1-0.9c0.6-0.6,0.8-1.3,0.8-2.2
		c-0.1-0.8-0.5-1.6-1.3-2.4c-0.5-0.5-1-0.8-1.6-1c-0.5-0.2-1.1-0.2-1.6-0.1s-1,0.4-1.4,0.8c-0.5,0.6-0.8,1.3-0.8,2.1
		C143.6,37.5,144,38.4,145,39.3z"/>
	<path d="M153.7,36l-4.5-4.3l0.7-0.7l0.7,0.6c-0.2-0.5-0.2-0.8-0.2-1.1c0-0.2,0.1-0.5,0.3-0.6c0.2-0.3,0.6-0.4,1-0.6l0.5,0.9
		c-0.3,0.1-0.5,0.2-0.7,0.4c-0.2,0.2-0.2,0.4-0.3,0.6c0,0.2,0,0.5,0.2,0.7c0.2,0.3,0.5,0.7,0.8,1l2.4,2.2L153.7,36z"/>
	<path d="M157.9,28.6l0.8-0.7c0.3,0.6,0.5,1.1,0.4,1.7c-0.1,0.6-0.3,1.1-0.8,1.7c-0.6,0.7-1.3,1-2.1,1s-1.5-0.3-2.3-1
		c-0.8-0.7-1.2-1.5-1.2-2.3c-0.1-0.8,0.2-1.5,0.8-2.1c0.6-0.6,1.2-0.9,2-0.9c0.8,0,1.5,0.4,2.3,1.1c0,0,0.1,0.1,0.2,0.2l-3.2,3.4
		c0.5,0.4,1,0.7,1.5,0.7c0.5,0,0.9-0.2,1.3-0.6c0.3-0.3,0.4-0.6,0.5-0.9C158.2,29.4,158.1,29,157.9,28.6z M154.3,30l2.4-2.5
		c-0.4-0.3-0.8-0.5-1.1-0.5c-0.5,0-1,0.1-1.3,0.5c-0.3,0.4-0.5,0.8-0.5,1.2S153.9,29.6,154.3,30z"/>
	<path d="M161,28.2l-6.3-5.9l0.7-0.8l6.3,5.9L161,28.2z"/>
	<path d="M162.8,26.3l-6.3-5.9l0.7-0.8l6.3,5.9L162.8,26.3z"/>
	<path d="M166.9,20.8c0,0.5-0.1,0.9-0.3,1.3c-0.1,0.4-0.4,0.7-0.6,1c-0.5,0.5-0.9,0.8-1.4,0.8s-0.9-0.1-1.3-0.5
		c-0.2-0.2-0.4-0.4-0.5-0.7c-0.1-0.3-0.1-0.5-0.1-0.8c0-0.3,0.1-0.5,0.3-0.8c0.1-0.2,0.3-0.5,0.5-0.8c0.5-0.7,0.8-1.2,1-1.6
		c-0.1-0.1-0.2-0.2-0.2-0.2c-0.3-0.3-0.6-0.4-0.9-0.4c-0.4,0-0.7,0.2-1.1,0.6c-0.3,0.4-0.5,0.7-0.6,1c0,0.3,0.1,0.6,0.3,1l-0.8,0.7
		c-0.3-0.4-0.4-0.7-0.5-1.1c-0.1-0.3,0-0.7,0.2-1.1c0.2-0.4,0.4-0.8,0.8-1.2c0.4-0.4,0.7-0.7,1-0.8c0.3-0.2,0.6-0.2,0.8-0.2
		c0.2,0,0.5,0.1,0.7,0.3c0.2,0.1,0.4,0.3,0.7,0.6l1,1c0.7,0.7,1.2,1.1,1.4,1.2c0.2,0.1,0.5,0.3,0.7,0.3l-0.8,0.8
		C167.4,21.2,167.1,21,166.9,20.8z M165.1,19.3c-0.1,0.4-0.4,0.9-0.9,1.5c-0.3,0.4-0.4,0.6-0.5,0.8s-0.1,0.4,0,0.5
		c0,0.2,0.1,0.3,0.3,0.4c0.2,0.2,0.4,0.3,0.7,0.2c0.3,0,0.6-0.2,0.8-0.5c0.3-0.3,0.5-0.6,0.5-1c0.1-0.4,0.1-0.7-0.1-1
		c-0.1-0.2-0.3-0.5-0.7-0.8L165.1,19.3z"/>
	<path d="M169.3,19.5l-4.5-4.3l0.6-0.7l0.6,0.6c-0.2-0.8,0-1.5,0.6-2.1c0.3-0.3,0.5-0.5,0.9-0.6c0.3-0.1,0.6-0.2,0.9-0.2
		c0.3,0,0.5,0.1,0.8,0.3c0.2,0.1,0.4,0.3,0.8,0.7l2.8,2.6l-0.7,0.8l-2.8-2.6c-0.3-0.3-0.6-0.5-0.8-0.6s-0.4-0.1-0.7,0
		c-0.2,0.1-0.4,0.2-0.6,0.4c-0.3,0.3-0.5,0.7-0.5,1.1c0,0.4,0.3,0.9,0.8,1.5l2.5,2.3L169.3,19.5z"/>
	<path d="M176,11.1c0,0.5-0.1,0.9-0.3,1.3s-0.4,0.7-0.6,1c-0.5,0.5-0.9,0.8-1.4,0.8s-0.9-0.1-1.3-0.5c-0.2-0.2-0.4-0.4-0.5-0.7
		c-0.1-0.3-0.1-0.5-0.1-0.8c0-0.3,0.1-0.5,0.3-0.8c0.1-0.2,0.3-0.5,0.5-0.8c0.5-0.7,0.8-1.2,1-1.6c-0.1-0.1-0.2-0.2-0.2-0.2
		c-0.3-0.3-0.6-0.4-0.9-0.4c-0.4,0-0.7,0.2-1.1,0.6c-0.3,0.4-0.5,0.7-0.6,1c0,0.3,0.1,0.6,0.3,1l-0.8,0.7c-0.3-0.4-0.4-0.7-0.5-1.1
		c-0.1-0.3,0-0.7,0.2-1.1s0.4-0.8,0.8-1.2c0.4-0.4,0.7-0.7,1-0.8s0.6-0.2,0.8-0.2c0.2,0,0.5,0.1,0.7,0.3c0.2,0.1,0.4,0.3,0.7,0.6
		l1,1c0.7,0.7,1.2,1.1,1.4,1.2c0.2,0.1,0.5,0.3,0.7,0.3l-0.8,0.8C176.5,11.4,176.3,11.3,176,11.1z M174.3,9.6
		c-0.1,0.4-0.4,0.9-0.9,1.5c-0.3,0.4-0.4,0.6-0.5,0.8c-0.1,0.2-0.1,0.4,0,0.5c0,0.2,0.1,0.3,0.3,0.4c0.2,0.2,0.4,0.3,0.7,0.2
		c0.3,0,0.6-0.2,0.8-0.5c0.3-0.3,0.5-0.6,0.5-1c0.1-0.4,0.1-0.7-0.1-1c-0.1-0.2-0.3-0.5-0.7-0.8L174.3,9.6z"/>
</g>
<rect x="72.8" y="170.1" class="st0" width="2.6" height="2.5"/>
<rect x="49.7" y="170.1" class="st0" width="2.6" height="2.5"/>
<rect x="65.1" y="170.1" class="st0" width="2.6" height="2.5"/>
<rect x="57.4" y="170.1" class="st0" width="2.6" height="2.5"/>
<rect x="19" y="170.1" class="st0" width="2.6" height="2.5"/>
<rect x="42.1" y="170.1" class="st0" width="2.6" height="2.5"/>
<rect x="26.7" y="170.1" class="st0" width="2.6" height="2.5"/>
<rect x="34.4" y="170.1" class="st0" width="2.6" height="2.5"/>
<rect x="80.5" y="170.1" class="st0" width="2.6" height="2.5"/>
<rect x="118.9" y="170.1" class="st0" width="2.6" height="2.5"/>
<rect x="11.3" y="170.1" class="st0" width="2.6" height="2.5"/>
<rect x="134.2" y="170.1" class="st0" width="2.6" height="2.5"/>
<rect x="141.9" y="170.1" class="st0" width="2.6" height="2.5"/>
<rect x="126.5" y="170.1" class="st0" width="2.6" height="2.5"/>
<rect x="95.8" y="170.1" class="st0" width="2.6" height="2.5"/>
<rect x="103.5" y="170.1" class="st0" width="2.6" height="2.5"/>
<rect x="111.2" y="170.1" class="st0" width="2.6" height="2.5"/>
<rect x="88.1" y="170.1" class="st0" width="2.6" height="2.5"/>
<rect x="218.8" y="56.2" transform="matrix(0.6904 -0.7235 0.7235 0.6904 26.5529 176.9705)" class="st0" width="2.5" height="2.5"/>
<rect x="213.4" y="51.1" transform="matrix(0.6899 -0.7239 0.7239 0.6899 28.6664 171.5853)" class="st0" width="2.5" height="2.5"/>
<rect x="240.3" y="76.7" transform="matrix(0.6907 -0.7231 0.7231 0.6907 18.3066 198.7594)" class="st0" width="2.5" height="2.5"/>
<rect x="211.3" y="44.3" transform="matrix(0.9937 -0.1124 0.1124 0.9937 -3.7773 24.1889)" class="st0" width="2.5" height="2.5"/>
<rect x="229.5" y="66.5" transform="matrix(0.6903 -0.7235 0.7235 0.6903 22.4568 187.9225)" class="st0" width="2.5" height="2.5"/>
<rect x="234.9" y="71.6" transform="matrix(0.6904 -0.7235 0.7235 0.6904 20.4014 193.4005)" class="st0" width="2.5" height="2.5"/>
<rect x="224.1" y="61.4" transform="matrix(0.6905 -0.7233 0.7233 0.6905 24.4664 182.3793)" class="st0" width="2.5" height="2.5"/>
<rect x="207.1" y="7.4" transform="matrix(0.9937 -0.1117 0.1117 0.9937 0.3361 23.3358)" class="st0" width="2.5" height="2.5"/>
<rect x="208" y="14.8" transform="matrix(0.9937 -0.1124 0.1124 0.9937 -0.4748 23.6161)" class="st0" width="2.5" height="2.5"/>
<rect x="210.5" y="37" transform="matrix(0.9937 -0.1124 0.1124 0.9937 -2.9521 24.0414)" class="st0" width="2.5" height="2.5"/>
<rect x="209.6" y="29.5" transform="matrix(0.9937 -0.1124 0.1124 0.9937 -2.1243 23.9023)" class="st0" width="2.5" height="2.5"/>
<rect x="208.8" y="22.2" transform="matrix(0.9937 -0.1124 0.1124 0.9937 -1.2994 23.7662)" class="st0" width="2.5" height="2.5"/>
<rect x="295.5" y="97.3" transform="matrix(0.3166 -0.9486 0.9486 0.3166 109.3549 348.8728)" class="st0" width="2.5" height="2.5"/>
<rect x="288.5" y="95" transform="matrix(0.3165 -0.9486 0.9486 0.3165 106.7785 340.5771)" class="st0" width="2.5" height="2.5"/>
<rect x="267.3" y="87.9" transform="matrix(0.3165 -0.9486 0.9486 0.3165 99.0191 315.713)" class="st0" width="2.5" height="2.5"/>
<rect x="260.3" y="85.5" transform="matrix(0.3166 -0.9486 0.9486 0.3166 96.4318 307.4093)" class="st0" width="2.5" height="2.5"/>
<rect x="274.4" y="90.3" transform="matrix(0.3165 -0.9486 0.9486 0.3165 101.6099 324.0022)" class="st0" width="2.5" height="2.5"/>
<rect x="253.3" y="83.2" transform="matrix(0.3166 -0.9486 0.9486 0.3166 93.8454 299.1342)" class="st0" width="2.5" height="2.5"/>
<rect x="281.4" y="92.6" transform="matrix(0.3165 -0.9486 0.9486 0.3165 104.2032 332.3105)" class="st0" width="2.5" height="2.5"/>
<rect x="302.6" y="99.7" transform="matrix(0.3163 -0.9487 0.9487 0.3163 112.0127 357.2658)" class="st0" width="2.5" height="2.5"/>
<rect x="323.7" y="106.7" transform="matrix(0.3161 -0.9487 0.9487 0.3161 119.8389 382.1581)" class="st0" width="2.5" height="2.5"/>
<rect x="330.8" y="109.1" transform="matrix(0.3161 -0.9487 0.9487 0.3161 122.4224 390.4507)" class="st0" width="2.5" height="2.5"/>
<rect x="316.4" y="104.3" transform="matrix(0.3161 -0.9487 0.9487 0.3161 117.1741 373.5343)" class="st0" width="2.5" height="2.5"/>
<polygon class="st0" points="309.5,101.8 309.1,103 308.8,104 311.2,104.8 311.9,102.4 309.6,101.6 "/>
<rect x="246.2" y="80.8" transform="matrix(0.3165 -0.9486 0.9486 0.3165 91.2769 290.85)" class="st0" width="2.5" height="2.5"/>
<polygon class="st0" points="338.7,111 338.3,111.1 337.5,113.4 339.4,114.1 340.8,112.7 339.2,110.9 "/>
<rect x="427.3" y="23.4" transform="matrix(0.6147 -0.7888 0.7888 0.6147 145.7021 347.5517)" class="st0" width="2.5" height="2.5"/>
<rect x="436.4" y="11.7" transform="matrix(0.6147 -0.7888 0.7888 0.6147 158.4261 350.2014)" class="st0" width="2.5" height="2.5"/>
<rect x="431.9" y="17.5" transform="matrix(0.6147 -0.7888 0.7888 0.6147 152.0699 348.8842)" class="st0" width="2.5" height="2.5"/>
<rect x="441" y="5.9" transform="matrix(0.614 -0.7893 0.7893 0.614 165.0791 351.7831)" class="st0" width="2.5" height="2.5"/>
<rect x="343.3" y="106.4" transform="matrix(0.7364 -0.6765 0.6765 0.7364 18.0149 261.4446)" class="st0" width="2.5" height="2.5"/>
<rect x="381.4" y="71.3" transform="matrix(0.7364 -0.6766 0.6766 0.7364 51.7949 278.0191)" class="st0" width="2.5" height="2.5"/>
<rect x="386.9" y="66.3" transform="matrix(0.7363 -0.6766 0.6766 0.7363 56.6309 280.3925)" class="st0" width="2.5" height="2.5"/>
<rect x="392.3" y="61.3" transform="matrix(0.7366 -0.6764 0.6764 0.7366 61.3886 282.6444)" class="st0" width="2.5" height="2.5"/>
<rect x="403.2" y="51.3" transform="matrix(0.7366 -0.6764 0.6764 0.7366 71.0292 287.3694)" class="st0" width="2.5" height="2.5"/>
<rect x="422.8" y="29.2" transform="matrix(0.6145 -0.7889 0.7889 0.6145 139.4212 346.2764)" class="st0" width="2.5" height="2.5"/>
<rect x="397.7" y="56.3" transform="matrix(0.7365 -0.6764 0.6764 0.7365 66.2152 285.0141)" class="st0" width="2.5" height="2.5"/>
<rect x="359.6" y="91.3" transform="matrix(0.7364 -0.6766 0.6766 0.7364 32.4935 268.5556)" class="st0" width="2.5" height="2.5"/>
<rect x="376" y="76.3" transform="matrix(0.7366 -0.6764 0.6764 0.7366 46.9071 275.5457)" class="st0" width="2.5" height="2.5"/>
<rect x="348.7" y="101.3" transform="matrix(0.7364 -0.6765 0.6765 0.7364 22.8323 263.7974)" class="st0" width="2.5" height="2.5"/>
<rect x="354.2" y="96.3" transform="matrix(0.7366 -0.6764 0.6764 0.7366 27.624 266.1027)" class="st0" width="2.5" height="2.5"/>
<rect x="370.5" y="81.3" transform="matrix(0.7366 -0.6764 0.6764 0.7366 42.0916 273.19)" class="st0" width="2.5" height="2.5"/>
<rect x="365.1" y="86.3" transform="matrix(0.7365 -0.6764 0.6764 0.7365 37.2758 270.837)" class="st0" width="2.5" height="2.5"/>
<rect x="408.6" y="46.2" transform="matrix(0.7364 -0.6766 0.6766 0.7364 75.9303 289.8338)" class="st0" width="2.5" height="2.5"/>
<rect x="418.3" y="35.1" transform="matrix(0.6147 -0.7888 0.7888 0.6147 132.9888 344.8907)" class="st0" width="2.5" height="2.5"/>
<rect x="413.7" y="40.9" transform="matrix(0.6147 -0.7888 0.7888 0.6147 126.6301 343.5578)" class="st0" width="2.5" height="2.5"/>
<rect x="298.9" y="136" transform="matrix(0.257 -0.9664 0.9664 0.257 90.3603 392.0883)" class="st0" width="2.5" height="2.5"/>
<rect x="300.8" y="128.9" transform="matrix(0.2558 -0.9667 0.9667 0.2558 98.9344 388.8484)" class="st0" width="2.4" height="2.5"/>
<rect x="295.2" y="150.2" transform="matrix(0.2569 -0.9664 0.9664 0.2569 73.8607 399.0177)" class="st0" width="2.5" height="2.5"/>
<rect x="304.6" y="114.7" transform="matrix(0.2574 -0.9663 0.9663 0.2574 115.0395 381.6324)" class="st0" width="2.5" height="2.5"/>
<rect x="306.5" y="107.6" transform="matrix(0.2574 -0.9663 0.9663 0.2574 123.2928 378.1839)" class="st0" width="2.5" height="2.5"/>
<rect x="302.7" y="121.8" transform="matrix(0.2569 -0.9664 0.9664 0.2569 106.9049 385.186)" class="st0" width="2.5" height="2.5"/>
<rect x="291.4" y="164.4" transform="matrix(0.2565 -0.9665 0.9665 0.2565 57.432 406.0141)" class="st0" width="2.5" height="2.5"/>
<rect x="293.3" y="157.3" transform="matrix(0.2561 -0.9666 0.9666 0.2561 65.7707 402.6116)" class="st0" width="2.5" height="2.5"/>
<rect x="289.5" y="171.5" transform="matrix(0.2558 -0.9667 0.9667 0.2558 49.3425 409.6353)" class="st0" width="2.5" height="2.5"/>
<rect x="297" y="143.1" transform="matrix(0.2561 -0.9666 0.9666 0.2561 82.3121 395.6965)" class="st0" width="2.4" height="2.5"/>
<rect x="287.6" y="178.6" transform="matrix(0.257 -0.9664 0.9664 0.257 40.7876 412.8104)" class="st0" width="2.5" height="2.5"/>
<polygon class="st0" points="243.7,345.1 246.1,345.8 246.7,343.6 244.3,342.9 "/>
<rect x="245.8" y="336.7" transform="matrix(0.2562 -0.9666 0.9666 0.2562 -143.0464 490.0702)" class="st0" width="2.2" height="2.5"/>
<rect x="164.9" y="5.4" transform="matrix(0.8763 -0.4817 0.4817 0.8763 17.2606 80.8733)" class="st0" width="2.5" height="2.8"/>
<rect x="66.7" y="20.1" transform="matrix(0.8774 -0.4798 0.4798 0.8774 -1.927 35.2435)" class="st0" width="2.5" height="2.6"/>
<rect x="74.1" y="33.6" transform="matrix(0.8774 -0.4798 0.4798 0.8774 -7.483 40.4189)" class="st0" width="2.5" height="2.6"/>
<rect x="85.1" y="53.7" transform="matrix(0.8772 -0.4801 0.4801 0.8772 -15.8091 48.2219)" class="st0" width="2.5" height="2.6"/>
<path class="st0" d="M93.3,70.2"/>
<g>
	<path d="M39.6,82.9l1-9.2l1.2-0.3l5.6,7.4l-1.2,0.3l-1.6-2.3L41,79.8l-0.2,2.8L39.6,82.9z M41.1,78.8l2.8-0.8L42.4,76
		c-0.5-0.6-0.8-1.1-1-1.6c0,0.6,0,1.1,0,1.7L41.1,78.8z"/>
	<path d="M48.1,80.6l-1.6-6l0.9-0.2l0.2,0.9c0.3-0.8,0.8-1.3,1.6-1.5c0.4-0.1,0.7-0.1,1.1-0.1c0.3,0,0.6,0.2,0.8,0.3
		c0.2,0.2,0.4,0.4,0.5,0.7c0.1,0.2,0.2,0.5,0.3,1l1,3.7l-1,0.3l-1-3.7c-0.1-0.4-0.2-0.7-0.4-0.9c-0.1-0.2-0.3-0.3-0.6-0.4
		c-0.2-0.1-0.5-0.1-0.8,0c-0.4,0.1-0.8,0.4-1,0.7c-0.2,0.4-0.3,0.9-0.1,1.7l0.9,3.3L48.1,80.6z"/>
	<path d="M54.5,79.4l1-0.1c0.1,0.3,0.3,0.5,0.5,0.6c0.3,0.1,0.7,0.1,1.1,0c0.5-0.1,0.8-0.3,1-0.6c0.2-0.3,0.3-0.6,0.3-0.9
		c0-0.2-0.1-0.7-0.3-1.3c-0.3,0.6-0.8,1.1-1.5,1.2c-0.8,0.2-1.5,0.1-2.2-0.4c-0.6-0.5-1-1.1-1.3-2c-0.2-0.6-0.2-1.1-0.1-1.7
		c0.1-0.5,0.3-1,0.6-1.4s0.8-0.6,1.3-0.8c0.7-0.2,1.4-0.1,2,0.4l-0.2-0.7l0.9-0.3l1.4,5.2c0.3,0.9,0.3,1.6,0.2,2.1
		c-0.1,0.4-0.3,0.8-0.7,1.2s-0.8,0.6-1.4,0.7c-0.7,0.2-1.3,0.2-1.9,0C55,80.5,54.7,80.1,54.5,79.4z M54.4,75.6
		c0.2,0.8,0.5,1.3,0.9,1.6c0.4,0.3,0.9,0.4,1.3,0.2c0.5-0.1,0.8-0.4,1-0.9c0.2-0.4,0.2-1.1,0-1.8c-0.2-0.7-0.5-1.2-0.9-1.5
		c-0.4-0.3-0.9-0.4-1.3-0.2c-0.5,0.1-0.8,0.4-1,0.9C54.2,74.3,54.2,74.8,54.4,75.6z"/>
	<path d="M64.6,74.1l1.1-0.2c0,0.7-0.2,1.2-0.5,1.7c-0.4,0.5-0.9,0.8-1.6,1c-0.9,0.2-1.6,0.2-2.3-0.3c-0.7-0.4-1.1-1.1-1.4-2.1
		c-0.3-1-0.2-1.9,0.2-2.6c0.4-0.7,1-1.2,1.8-1.4c0.8-0.2,1.5-0.1,2.2,0.3c0.7,0.4,1.1,1.1,1.4,2.1c0,0.1,0,0.2,0.1,0.3L61,74.2
		c0.2,0.6,0.5,1.1,1,1.4s0.9,0.3,1.4,0.2c0.4-0.1,0.7-0.3,0.9-0.6C64.5,74.9,64.6,74.6,64.6,74.1z M60.8,73.3l3.4-0.9
		c-0.2-0.5-0.4-0.8-0.7-1c-0.4-0.3-0.9-0.4-1.4-0.3c-0.5,0.1-0.8,0.4-1.1,0.8C60.8,72.3,60.7,72.8,60.8,73.3z"/>
	<path d="M67.4,75.4l-2.2-8.3l1-0.3l2.2,8.3L67.4,75.4z"/>
	<path d="M76.4,69.5l-0.3-1l3.5-0.9l0.8,3.1c-0.4,0.6-0.9,1-1.4,1.4c-0.5,0.4-1.1,0.6-1.7,0.8c-0.8,0.2-1.6,0.2-2.4,0.1
		c-0.8-0.2-1.4-0.5-1.9-1.1s-0.9-1.3-1.1-2.1c-0.2-0.8-0.2-1.6-0.1-2.4s0.5-1.4,1-1.9c0.5-0.5,1.2-0.9,2.1-1.1
		c0.6-0.2,1.2-0.2,1.7-0.1c0.5,0.1,1,0.2,1.4,0.5c0.4,0.3,0.7,0.7,1,1.2l-0.9,0.5c-0.2-0.4-0.5-0.7-0.7-0.9
		c-0.2-0.2-0.6-0.3-0.9-0.4c-0.4-0.1-0.8,0-1.2,0.1c-0.5,0.1-0.9,0.3-1.2,0.6c-0.3,0.3-0.6,0.5-0.7,0.8c-0.2,0.3-0.3,0.6-0.3,1
		c-0.1,0.6,0,1.2,0.1,1.8c0.2,0.7,0.5,1.3,0.9,1.8c0.4,0.4,0.9,0.7,1.4,0.8c0.6,0.1,1.1,0.1,1.6-0.1c0.5-0.1,0.9-0.3,1.3-0.6
		c0.4-0.3,0.7-0.6,0.9-0.9l-0.4-1.5L76.4,69.5z"/>
	<path d="M86.2,70.4L86,69.5c-0.3,0.8-0.8,1.3-1.6,1.5c-0.4,0.1-0.7,0.1-1,0.1c-0.3-0.1-0.6-0.2-0.8-0.3c-0.2-0.2-0.4-0.4-0.5-0.7
		c-0.1-0.2-0.2-0.5-0.3-0.9l-1-3.7l1-0.3l0.9,3.3c0.1,0.5,0.3,0.9,0.4,1.1c0.1,0.3,0.3,0.4,0.6,0.5c0.2,0.1,0.5,0.1,0.8,0
		c0.3-0.1,0.6-0.2,0.8-0.5s0.4-0.5,0.4-0.8c0-0.3,0-0.7-0.1-1.2l-0.9-3.2l1-0.3l1.6,6L86.2,70.4z"/>
	<path d="M86.8,62.6l-0.3-1.2l1-0.3l0.3,1.2L86.8,62.6z M88.7,69.7l-1.6-6l1-0.3l1.6,6L88.7,69.7z"/>
	<path d="M91.3,69l-1.6-6l0.9-0.2l0.2,0.8c0.1-0.3,0.3-0.6,0.6-0.9c0.3-0.3,0.6-0.4,1-0.6c0.4-0.1,0.8-0.1,1.2,0
		c0.3,0.1,0.6,0.3,0.8,0.6c0.3-0.8,0.8-1.3,1.6-1.6c0.6-0.2,1.1-0.1,1.5,0.1c0.4,0.2,0.7,0.7,0.9,1.4l1.1,4.1l-1,0.3l-1-3.8
		c-0.1-0.4-0.2-0.7-0.3-0.9c-0.1-0.2-0.3-0.3-0.5-0.3c-0.2-0.1-0.4-0.1-0.7,0c-0.4,0.1-0.7,0.3-0.9,0.7c-0.2,0.4-0.2,0.8-0.1,1.5
		l0.9,3.5l-1,0.3l-1-3.9c-0.1-0.5-0.3-0.8-0.5-1c-0.2-0.2-0.5-0.2-0.9-0.1c-0.3,0.1-0.5,0.2-0.7,0.4c-0.2,0.2-0.3,0.5-0.4,0.8
		c0,0.3,0,0.8,0.2,1.3l0.8,3.1L91.3,69z"/>
	<path d="M104.6,63.4l1.1-0.2c0,0.7-0.2,1.2-0.5,1.7c-0.4,0.5-0.9,0.8-1.6,1c-0.9,0.2-1.6,0.2-2.3-0.3c-0.7-0.4-1.1-1.1-1.4-2.1
		c-0.3-1-0.2-1.9,0.1-2.6c0.4-0.7,1-1.2,1.8-1.4c0.8-0.2,1.5-0.1,2.2,0.3c0.7,0.4,1.1,1.1,1.4,2.1c0,0.1,0,0.2,0.1,0.3l-4.5,1.2
		c0.2,0.6,0.5,1.1,1,1.4c0.4,0.3,0.9,0.3,1.4,0.2c0.4-0.1,0.7-0.3,0.9-0.6C104.4,64.2,104.5,63.9,104.6,63.4z M100.8,62.6l3.4-0.9
		c-0.2-0.5-0.4-0.8-0.7-1c-0.4-0.3-0.9-0.4-1.4-0.3c-0.5,0.1-0.8,0.4-1.1,0.8C100.7,61.6,100.7,62.1,100.8,62.6z"/>
	<path d="M107.4,64.7l-1.6-6l0.9-0.2l0.2,0.9c0.1-0.5,0.3-0.8,0.4-1c0.2-0.2,0.4-0.3,0.6-0.4c0.3-0.1,0.7-0.1,1.1,0l-0.1,1
		c-0.3-0.1-0.6-0.1-0.8,0c-0.2,0.1-0.4,0.2-0.5,0.4c-0.1,0.2-0.2,0.4-0.2,0.7c0,0.4,0,0.8,0.1,1.2l0.8,3.1L107.4,64.7z"/>
	<path d="M115,61.9c-0.3,0.4-0.6,0.7-0.9,1c-0.3,0.2-0.7,0.4-1.1,0.5c-0.7,0.2-1.2,0.2-1.7-0.1c-0.4-0.2-0.7-0.6-0.9-1.1
		c-0.1-0.3-0.1-0.6,0-0.9c0.1-0.3,0.2-0.5,0.4-0.7c0.2-0.2,0.4-0.4,0.6-0.5c0.2-0.1,0.5-0.2,0.9-0.4c0.8-0.3,1.4-0.6,1.7-0.8
		c0-0.1-0.1-0.2-0.1-0.3c-0.1-0.4-0.3-0.7-0.5-0.8c-0.3-0.2-0.7-0.2-1.3,0c-0.5,0.1-0.8,0.3-1,0.5c-0.2,0.2-0.3,0.6-0.3,1l-1,0.1
		c0-0.5,0-0.8,0.2-1.2c0.1-0.3,0.4-0.6,0.7-0.8c0.4-0.2,0.8-0.4,1.3-0.6c0.5-0.1,0.9-0.2,1.3-0.2c0.4,0,0.6,0.1,0.8,0.3
		c0.2,0.1,0.4,0.3,0.5,0.6c0.1,0.2,0.2,0.5,0.3,0.9l0.4,1.4c0.3,0.9,0.4,1.5,0.5,1.8c0.1,0.2,0.3,0.5,0.5,0.7l-1.1,0.3
		C115.2,62.4,115.1,62.1,115,61.9z M112.7,56l-0.8,0.2l-1.7-1.2l1.4-0.4L112.7,56z M114.3,59.6c-0.3,0.2-0.8,0.5-1.6,0.8
		c-0.4,0.2-0.7,0.3-0.8,0.4s-0.3,0.3-0.3,0.4c-0.1,0.2-0.1,0.3,0,0.5c0.1,0.3,0.2,0.5,0.5,0.6s0.6,0.1,1,0c0.4-0.1,0.7-0.3,1-0.5
		c0.3-0.3,0.4-0.5,0.5-0.9c0-0.3,0-0.6-0.1-1.1L114.3,59.6z"/>
</g>
<g>
	<path d="M200.1,295.8l-0.9,0.5l-1.8-3.2l2.8-1.6c0.7,0.3,1.2,0.6,1.7,1s0.9,0.9,1.2,1.4c0.4,0.7,0.6,1.5,0.7,2.3
		c0,0.8-0.2,1.5-0.6,2.1c-0.4,0.6-1,1.2-1.7,1.6c-0.7,0.4-1.5,0.6-2.3,0.7c-0.8,0-1.5-0.1-2.1-0.5c-0.6-0.4-1.2-1-1.6-1.7
		c-0.3-0.5-0.5-1.1-0.6-1.6s0-1,0.2-1.4c0.2-0.4,0.5-0.8,0.9-1.3l0.7,0.8c-0.3,0.3-0.5,0.6-0.7,0.9c-0.1,0.3-0.2,0.6-0.1,1
		c0,0.4,0.2,0.8,0.4,1.1c0.3,0.5,0.5,0.8,0.9,1.1s0.7,0.4,1,0.5c0.3,0.1,0.7,0.1,1,0.1c0.6-0.1,1.1-0.3,1.7-0.6
		c0.7-0.4,1.2-0.8,1.5-1.3s0.5-1,0.4-1.6c0-0.6-0.2-1.1-0.5-1.6c-0.2-0.4-0.6-0.8-1-1.1c-0.4-0.3-0.7-0.5-1.1-0.6l-1.4,0.8
		L200.1,295.8z"/>
	<path d="M194,293.2l-1.1,0.6l-0.5-0.9l1.1-0.6L194,293.2z M200.5,289.6l-5.4,3l-0.5-0.9l5.4-3L200.5,289.6z"/>
	<path d="M196.7,289.2c-1,0.6-1.9,0.7-2.7,0.4c-0.7-0.2-1.2-0.7-1.6-1.4c-0.4-0.7-0.5-1.5-0.3-2.2c0.2-0.7,0.8-1.4,1.6-1.8
		c0.7-0.4,1.3-0.6,1.8-0.6c0.5,0,1,0.1,1.4,0.4s0.8,0.7,1.1,1.1c0.4,0.8,0.5,1.5,0.3,2.3C198.1,288,197.6,288.7,196.7,289.2z
		 M196.1,288.2c0.7-0.4,1.1-0.8,1.3-1.3c0.2-0.5,0.1-1-0.1-1.4c-0.3-0.5-0.6-0.7-1.2-0.8s-1.1,0-1.8,0.4c-0.7,0.4-1.1,0.8-1.3,1.3
		s-0.1,1,0.1,1.4c0.3,0.5,0.6,0.7,1.2,0.9C194.8,288.8,195.4,288.6,196.1,288.2z"/>
	<path d="M195.9,281.5l-5.4,3l-0.5-0.8l0.8-0.5c-0.5,0-0.9,0-1.1-0.2s-0.4-0.3-0.5-0.5c-0.2-0.3-0.3-0.7-0.2-1.1l1-0.2
		c0,0.3,0.1,0.6,0.2,0.8c0.1,0.2,0.3,0.3,0.5,0.4s0.4,0.1,0.7,0.1c0.4-0.1,0.8-0.2,1.2-0.4l2.8-1.6L195.9,281.5z"/>
	<path d="M194.5,277.9l-0.4-1c0.3-0.2,0.4-0.4,0.4-0.6c0-0.3,0-0.7-0.3-1.1c-0.2-0.4-0.5-0.7-0.8-0.8c-0.3-0.1-0.6-0.2-1-0.1
		c-0.2,0.1-0.6,0.3-1.2,0.6c0.7,0.1,1.2,0.5,1.6,1.1c0.4,0.7,0.5,1.5,0.2,2.2c-0.3,0.7-0.8,1.3-1.6,1.7c-0.5,0.3-1,0.5-1.6,0.5
		c-0.5,0.1-1,0-1.5-0.2c-0.4-0.2-0.8-0.6-1.1-1.1c-0.4-0.6-0.4-1.3-0.1-2l-0.7,0.4l-0.5-0.8l4.7-2.6c0.8-0.5,1.5-0.7,1.9-0.7
		c0.4,0,0.9,0.1,1.3,0.3c0.4,0.3,0.8,0.7,1.1,1.2c0.4,0.6,0.5,1.3,0.4,1.8C195.4,277.2,195.1,277.6,194.5,277.9z M190.8,279
		c0.7-0.4,1.2-0.8,1.3-1.3c0.2-0.5,0.1-0.9-0.1-1.3c-0.2-0.4-0.6-0.7-1.1-0.8c-0.5-0.1-1.1,0-1.8,0.4c-0.7,0.4-1.1,0.8-1.3,1.3
		c-0.2,0.5-0.1,0.9,0.1,1.3c0.2,0.4,0.6,0.7,1.1,0.8S190.2,279.3,190.8,279z"/>
	<path d="M186.9,269.4l-0.4-1c0.6-0.2,1.2-0.1,1.8,0.1s1,0.7,1.3,1.3c0.4,0.8,0.6,1.6,0.3,2.3c-0.2,0.7-0.8,1.4-1.7,1.9
		c-0.9,0.5-1.8,0.7-2.5,0.5s-1.4-0.7-1.8-1.4c-0.4-0.7-0.5-1.5-0.3-2.2c0.2-0.7,0.8-1.4,1.7-1.9c0.1,0,0.1-0.1,0.2-0.1l2.3,4
		c0.6-0.4,0.9-0.8,1.1-1.3c0.1-0.5,0.1-0.9-0.2-1.4c-0.2-0.3-0.4-0.6-0.8-0.7C187.7,269.4,187.3,269.4,186.9,269.4z M187.1,273.3
		l-1.7-3c-0.4,0.3-0.7,0.6-0.8,0.9c-0.2,0.5-0.2,1,0.1,1.4c0.2,0.4,0.6,0.7,1,0.8C186.1,273.6,186.6,273.5,187.1,273.3z"/>
	<path d="M185.5,264.8l0.7-0.6c0.2,0.2,0.4,0.4,0.5,0.6c0.2,0.3,0.3,0.6,0.3,0.9c0,0.2-0.1,0.5-0.2,0.6c-0.1,0.2-0.5,0.4-1,0.7
		l-3.1,1.8l0.4,0.7l-0.7,0.4l-0.4-0.7l-1.3,0.8l-1.1-0.6l1.9-1.1l-0.5-0.9l0.7-0.4l0.5,0.9l3.2-1.8c0.3-0.1,0.4-0.3,0.5-0.3
		c0.1-0.1,0.1-0.2,0.1-0.3c0-0.1,0-0.2-0.1-0.4C185.7,265.1,185.6,265,185.5,264.8z"/>
	<path d="M183.1,260.3c0.5,0.2,0.9,0.4,1.2,0.6c0.3,0.2,0.5,0.6,0.7,0.9c0.3,0.6,0.4,1.1,0.3,1.6c-0.1,0.5-0.4,0.9-0.8,1.1
		c-0.3,0.1-0.5,0.2-0.8,0.2c-0.3,0-0.6-0.1-0.8-0.2c-0.2-0.1-0.5-0.3-0.7-0.5c-0.1-0.2-0.3-0.4-0.6-0.7c-0.5-0.7-0.9-1.2-1.2-1.5
		c-0.1,0.1-0.2,0.1-0.2,0.1c-0.4,0.2-0.6,0.4-0.6,0.7c-0.1,0.4,0,0.8,0.3,1.2c0.2,0.4,0.5,0.7,0.8,0.8c0.3,0.1,0.6,0.1,1.1,0l0.4,1
		c-0.4,0.1-0.8,0.2-1.2,0.1c-0.3-0.1-0.7-0.2-1-0.5c-0.3-0.3-0.6-0.7-0.9-1.1c-0.3-0.5-0.4-0.9-0.5-1.2c-0.1-0.4,0-0.6,0.1-0.9
		s0.2-0.4,0.5-0.6c0.1-0.1,0.4-0.3,0.8-0.5l1.2-0.7c0.9-0.5,1.4-0.8,1.6-1s0.4-0.4,0.5-0.6l0.5,1
		C183.6,259.9,183.4,260.1,183.1,260.3z M181.1,261.5c0.3,0.3,0.7,0.7,1.2,1.3c0.3,0.3,0.5,0.6,0.6,0.7c0.2,0.1,0.3,0.2,0.5,0.2
		c0.2,0,0.3,0,0.5-0.1c0.2-0.1,0.4-0.3,0.5-0.6s0-0.6-0.2-1c-0.2-0.4-0.5-0.6-0.8-0.8c-0.3-0.2-0.6-0.3-1-0.3c-0.3,0-0.6,0.1-1,0.4
		L181.1,261.5z"/>
	<path d="M178.9,256.3l-0.9,0.5l-1.6-2.8l0.9-0.5L178.9,256.3z"/>
	<path d="M177.3,248.2l-7.5,4.2l-1.6-2.8c-0.3-0.5-0.5-0.9-0.6-1.2c-0.1-0.4-0.2-0.8-0.2-1.1s0.2-0.7,0.4-1c0.2-0.3,0.5-0.6,0.9-0.8
		c0.6-0.4,1.3-0.5,2-0.3c0.7,0.2,1.3,0.8,1.9,1.8l1.1,1.9l3-1.7L177.3,248.2z M172.8,249.4l-1.1-1.9c-0.4-0.6-0.7-1-1.1-1.2
		c-0.4-0.1-0.8-0.1-1.2,0.2c-0.3,0.2-0.5,0.4-0.7,0.7c-0.1,0.3-0.2,0.6-0.1,0.9c0,0.2,0.2,0.5,0.5,1l1.1,1.9L172.8,249.4z"/>
	<path d="M166.4,243.1l-1.8,0.1l-0.7-1.2l2.1,0.3L166.4,243.1z M169.6,238.6l-0.4-1c0.6-0.2,1.2-0.1,1.8,0.1c0.5,0.2,1,0.7,1.3,1.3
		c0.4,0.8,0.6,1.6,0.3,2.3c-0.2,0.7-0.8,1.4-1.7,1.9c-0.9,0.5-1.8,0.7-2.5,0.5c-0.8-0.2-1.4-0.7-1.8-1.4c-0.4-0.7-0.5-1.5-0.3-2.2
		c0.2-0.7,0.8-1.4,1.7-1.9c0.1,0,0.1-0.1,0.2-0.1l2.3,4c0.6-0.4,0.9-0.8,1.1-1.3c0.1-0.5,0.1-0.9-0.2-1.4c-0.2-0.3-0.4-0.6-0.8-0.7
		C170.4,238.6,170,238.5,169.6,238.6z M169.8,242.5l-1.7-3c-0.4,0.3-0.7,0.6-0.8,0.9c-0.2,0.5-0.2,1,0.1,1.4c0.2,0.4,0.6,0.7,1,0.8
		C168.8,242.8,169.3,242.7,169.8,242.5z"/>
	<path d="M170.1,235.5l-5.4,3l-0.5-0.8l0.8-0.5c-0.5,0-0.9,0-1.1-0.2c-0.2-0.1-0.4-0.3-0.5-0.5c-0.2-0.3-0.3-0.7-0.2-1.1l1-0.2
		c0,0.3,0.1,0.6,0.2,0.8c0.1,0.2,0.3,0.3,0.5,0.4s0.4,0.1,0.7,0.1c0.4-0.1,0.8-0.2,1.2-0.4l2.8-1.6L170.1,235.5z"/>
	<path d="M164.4,229.3l-0.4-1c0.6-0.2,1.2-0.1,1.8,0.1c0.5,0.2,1,0.7,1.3,1.3c0.4,0.8,0.6,1.6,0.3,2.3c-0.2,0.7-0.8,1.4-1.7,1.9
		c-0.9,0.5-1.8,0.7-2.5,0.5c-0.8-0.2-1.4-0.7-1.8-1.4c-0.4-0.7-0.5-1.5-0.3-2.2c0.2-0.7,0.8-1.4,1.7-1.9c0.1,0,0.1-0.1,0.2-0.1
		l2.3,4c0.6-0.4,0.9-0.8,1.1-1.3c0.1-0.5,0.1-0.9-0.2-1.4c-0.2-0.3-0.4-0.6-0.8-0.7C165.2,229.3,164.8,229.2,164.4,229.3z
		 M164.6,233.2l-1.7-3c-0.4,0.3-0.7,0.6-0.8,0.9c-0.2,0.5-0.2,1,0.1,1.4c0.2,0.4,0.6,0.7,1,0.8C163.6,233.4,164.1,233.4,164.6,233.2
		z"/>
	<path d="M165.2,226.7l-0.7,0.4l-5.9-1.2c0.2,0.4,0.4,0.7,0.6,1l1.2,2.2l-0.7,0.4l-2.5-4.4l0.6-0.3l5.1,1l0.9,0.2
		c-0.3-0.4-0.5-0.8-0.7-1.1l-1.4-2.5l0.8-0.4L165.2,226.7z"/>
	<path d="M155.4,216.1l-0.9,0.5l-1.8-3.2l2.8-1.6c0.7,0.3,1.2,0.6,1.7,1c0.5,0.4,0.9,0.9,1.2,1.4c0.4,0.7,0.6,1.5,0.7,2.3
		c0,0.8-0.2,1.5-0.6,2.1s-1,1.2-1.7,1.6c-0.7,0.4-1.5,0.6-2.3,0.7c-0.8,0-1.5-0.1-2.1-0.5c-0.6-0.4-1.2-1-1.6-1.7
		c-0.3-0.5-0.5-1.1-0.6-1.6s0-1,0.2-1.4c0.2-0.4,0.5-0.8,0.9-1.3l0.7,0.8c-0.3,0.3-0.5,0.6-0.7,0.9c-0.1,0.3-0.2,0.6-0.1,1
		c0,0.4,0.2,0.8,0.4,1.1c0.3,0.5,0.5,0.8,0.9,1.1c0.3,0.3,0.7,0.4,1,0.5c0.3,0.1,0.7,0.1,1,0.1c0.6-0.1,1.1-0.3,1.7-0.6
		c0.7-0.4,1.2-0.8,1.5-1.3s0.5-1,0.4-1.6c0-0.6-0.2-1.1-0.5-1.6c-0.2-0.4-0.6-0.8-1-1.1s-0.7-0.5-1.1-0.6l-1.4,0.8L155.4,216.1z"/>
	<path d="M153.1,206.8c0.5,0.2,0.9,0.4,1.2,0.6s0.5,0.6,0.7,0.9c0.3,0.6,0.4,1.1,0.3,1.6c-0.1,0.5-0.4,0.9-0.8,1.1
		c-0.3,0.1-0.5,0.2-0.8,0.2s-0.6-0.1-0.8-0.2s-0.5-0.3-0.7-0.5c-0.1-0.2-0.3-0.4-0.6-0.7c-0.5-0.7-0.9-1.2-1.2-1.5
		c-0.1,0.1-0.2,0.1-0.2,0.1c-0.4,0.2-0.6,0.4-0.6,0.7c-0.1,0.4,0,0.8,0.3,1.2c0.2,0.4,0.5,0.7,0.8,0.8c0.3,0.1,0.6,0.1,1.1,0l0.4,1
		c-0.4,0.1-0.8,0.2-1.2,0.1c-0.3-0.1-0.7-0.2-1-0.5c-0.3-0.3-0.6-0.7-0.9-1.1c-0.3-0.5-0.4-0.9-0.5-1.2s0-0.6,0.1-0.9
		c0.1-0.2,0.2-0.4,0.5-0.6c0.1-0.1,0.4-0.3,0.8-0.5l1.2-0.7c0.9-0.5,1.4-0.8,1.6-1s0.4-0.4,0.5-0.6l0.5,1
		C153.6,206.4,153.4,206.6,153.1,206.8z M151.1,208c0.3,0.3,0.7,0.7,1.2,1.3c0.3,0.3,0.5,0.6,0.6,0.7c0.2,0.1,0.3,0.2,0.5,0.2
		c0.2,0,0.3,0,0.5-0.1c0.2-0.1,0.4-0.3,0.5-0.6s0-0.6-0.2-1c-0.2-0.4-0.5-0.6-0.8-0.8c-0.3-0.2-0.6-0.3-1-0.3c-0.3,0-0.6,0.1-1,0.4
		L151.1,208z"/>
	<path d="M152.5,204.1l-7.5,4.2l-0.5-0.9l7.5-4.2L152.5,204.1z"/>
	<path d="M149.2,198.3l-0.7,0.4c0.7,0,1.3,0.4,1.7,1.1c0.2,0.4,0.3,0.9,0.3,1.4c0,0.5-0.2,1-0.5,1.4c-0.3,0.4-0.8,0.8-1.3,1.1
		c-0.5,0.3-1.1,0.5-1.6,0.6s-1,0-1.5-0.2c-0.4-0.2-0.8-0.6-1-1c-0.2-0.3-0.3-0.7-0.3-1c0-0.3,0.1-0.6,0.2-0.9l-2.7,1.5l-0.5-0.9
		l7.5-4.2L149.2,198.3z M148.2,202.7c0.7-0.4,1.1-0.8,1.3-1.3c0.2-0.5,0.2-0.9-0.1-1.3c-0.2-0.4-0.6-0.7-1.1-0.7
		c-0.5-0.1-1.1,0-1.7,0.4c-0.7,0.4-1.2,0.9-1.4,1.3c-0.2,0.5-0.2,0.9,0.1,1.4c0.2,0.4,0.6,0.7,1.1,0.7S147.4,203.1,148.2,202.7z"/>
	<path d="M140.9,197.7l-1.8,0.1l-0.7-1.2l2.1,0.3L140.9,197.7z M145.4,197.8c-1,0.6-1.9,0.7-2.7,0.4c-0.7-0.2-1.2-0.7-1.6-1.4
		c-0.4-0.7-0.5-1.5-0.3-2.2c0.2-0.7,0.8-1.4,1.6-1.8c0.7-0.4,1.3-0.6,1.8-0.6c0.5,0,1,0.1,1.4,0.4c0.4,0.3,0.8,0.7,1.1,1.1
		c0.4,0.8,0.5,1.5,0.3,2.3C146.9,196.7,146.3,197.3,145.4,197.8z M144.9,196.9c0.7-0.4,1.1-0.8,1.3-1.3c0.2-0.5,0.1-1-0.1-1.4
		c-0.3-0.5-0.6-0.7-1.2-0.8c-0.5-0.1-1.1,0-1.8,0.4c-0.7,0.4-1.1,0.8-1.3,1.3c-0.2,0.5-0.1,1,0.1,1.4c0.3,0.5,0.6,0.7,1.2,0.9
		C143.6,197.4,144.2,197.3,144.9,196.9z"/>
	<path d="M143.3,191.4l-0.7-0.8c0.3-0.3,0.5-0.6,0.6-0.9s0-0.7-0.3-1.1c-0.2-0.4-0.5-0.7-0.8-0.8s-0.5-0.1-0.8,0
		c-0.2,0.1-0.3,0.3-0.3,0.5c0,0.2,0.1,0.5,0.2,1.1c0.2,0.8,0.3,1.3,0.3,1.7c0,0.3,0,0.6-0.2,0.9c-0.1,0.3-0.3,0.5-0.6,0.6
		c-0.2,0.1-0.5,0.2-0.8,0.2c-0.3,0-0.5,0-0.8-0.2c-0.2-0.1-0.4-0.2-0.6-0.4c-0.2-0.2-0.4-0.5-0.6-0.7c-0.2-0.4-0.4-0.8-0.4-1.2
		c-0.1-0.4,0-0.7,0.1-1s0.3-0.5,0.7-0.8l0.6,0.8c-0.3,0.2-0.4,0.4-0.5,0.7c0,0.3,0,0.6,0.2,1c0.2,0.4,0.5,0.7,0.7,0.8
		c0.2,0.1,0.5,0.1,0.6,0c0.1-0.1,0.2-0.2,0.3-0.3c0.1-0.1,0.1-0.3,0-0.5c0-0.1-0.1-0.4-0.2-0.9c-0.2-0.7-0.3-1.3-0.3-1.6
		c0-0.3,0-0.6,0.1-0.9c0.1-0.3,0.4-0.5,0.7-0.7c0.3-0.2,0.6-0.2,1-0.2c0.4,0,0.7,0.2,1.1,0.4c0.3,0.3,0.6,0.6,0.9,1
		c0.4,0.7,0.6,1.3,0.5,1.9C144.1,190.5,143.8,191,143.3,191.4z"/>
</g>
<rect x="81.4" y="47" transform="matrix(0.8772 -0.4801 0.4801 0.8772 -13.0342 45.6343)" class="st0" width="2.5" height="2.6"/>
<rect x="63.1" y="13.4" transform="matrix(0.8768 -0.4808 0.4808 0.8768 0.8659 32.7262)" class="st0" width="2.5" height="2.6"/>
<rect x="59.4" y="6.7" transform="matrix(0.8768 -0.4808 0.4808 0.8768 3.6438 30.1307)" class="st0" width="2.5" height="2.6"/>
<rect x="70.4" y="26.8" transform="matrix(0.8768 -0.4808 0.4808 0.8768 -4.6961 37.9187)" class="st0" width="2.5" height="2.6"/>
<rect x="77.8" y="40.3" transform="matrix(0.8768 -0.4808 0.4808 0.8768 -10.2504 43.1157)" class="st0" width="2.5" height="2.6"/>
<rect x="68" y="81.2" transform="matrix(0.968 -0.2509 0.2509 0.968 -18.4783 19.9961)" class="st0" width="2.4" height="2.5"/>
<rect x="18.2" y="85.5" transform="matrix(0.1441 -0.9896 0.9896 0.1441 -69.1974 93.4206)" class="st0" width="2.5" height="2.4"/>
<rect x="11" y="84.4" transform="matrix(0.1441 -0.9896 0.9896 0.1441 -74.3138 85.403)" class="st0" width="2.5" height="2.4"/>
<rect x="60.9" y="83.1" transform="matrix(0.968 -0.2509 0.2509 0.968 -19.1685 18.2851)" class="st0" width="2.4" height="2.5"/>
<rect x="75" y="79.4" transform="matrix(0.968 -0.2509 0.2509 0.968 -17.7966 21.7029)" class="st0" width="2.4" height="2.5"/>
<rect x="89.1" y="75.7" transform="matrix(0.968 -0.2509 0.2509 0.968 -16.4269 25.1217)" class="st0" width="2.4" height="2.5"/>
<rect x="46.8" y="86.7" transform="matrix(0.968 -0.2509 0.2509 0.968 -20.5348 14.8698)" class="st0" width="2.4" height="2.5"/>
<polygon class="st0" points="42.3,88.1 40.8,88.6 40,88.4 39.6,90.9 41,91.1 42.9,90.6 "/>
<rect x="82.1" y="77.6" transform="matrix(0.968 -0.2509 0.2509 0.968 -17.1125 23.4155)" class="st0" width="2.4" height="2.5"/>
<rect x="32.6" y="87.6" transform="matrix(0.1441 -0.9896 0.9896 0.1441 -58.9423 109.4644)" class="st0" width="2.5" height="2.4"/>
<rect x="53.9" y="84.9" transform="matrix(0.968 -0.2509 0.2509 0.968 -19.851 16.5786)" class="st0" width="2.4" height="2.5"/>
<rect x="25.4" y="86.6" transform="matrix(0.1443 -0.9895 0.9895 0.1443 -64.0852 101.4307)" class="st0" width="2.5" height="2.4"/>
<path class="st0" d="M261.4,176.9L261.4,176.9L176.6,22.6l-0.2-0.4l-0.6-1.1l-1,1.1l-0.8,0.8l-37.9,40.8L98,73.7L96.9,74l-0.8,0.2
	l-0.3,0.1l-0.3,0.1l0.2,0.3l0.5,1l0.5,1l137.7,251.7l0.3,0.5l12.4,3.6v0l1.2,0.3l1.2,0.4v0l0.3-1.2l38.3-144.5l0.3-1.2l-1.2-0.3
	L261.4,176.9z M207,165l-3.6,3.6h4.2v1.6h-6.1c-0.3,0-0.6-0.2-0.7-0.5c-0.1-0.3-0.1-0.6,0.2-0.9l5-5L207,165z M200.6,161.8
	c1,0,1.8,0.8,1.8,1.9s-0.8,1.9-1.8,1.9s-1.8-0.8-1.8-1.9S199.6,161.8,200.6,161.8z M207.7,176.5h-5.1l-3.8-3.2l1.3-1.5l3.2,2.8h3.5
	l3.7-3.7l1.4,1.4L207.7,176.5z M210.5,165.5c-1,0-1.8-0.8-1.8-1.9s0.8-1.9,1.8-1.9s1.8,0.8,1.8,1.9S211.5,165.5,210.5,165.5z"/>
<g>
	<path d="M234.4,105.1l0.9-0.5l1.8,3.2l-2.8,1.6c-0.7-0.3-1.2-0.6-1.7-1c-0.5-0.4-0.9-0.9-1.2-1.4c-0.4-0.7-0.6-1.5-0.7-2.3
		c0-0.8,0.2-1.5,0.6-2.1c0.4-0.6,1-1.2,1.7-1.6c0.7-0.4,1.5-0.6,2.3-0.7s1.5,0.1,2.1,0.5c0.6,0.4,1.2,1,1.6,1.7
		c0.3,0.5,0.5,1.1,0.6,1.6c0.1,0.5,0,1-0.1,1.4c-0.2,0.4-0.5,0.8-0.9,1.3l-0.8-0.8c0.3-0.3,0.5-0.6,0.7-0.9c0.1-0.3,0.2-0.6,0.1-1
		c0-0.4-0.2-0.8-0.4-1.1c-0.3-0.5-0.5-0.8-0.9-1.1c-0.3-0.3-0.7-0.4-1-0.5c-0.3-0.1-0.7-0.1-1-0.1c-0.6,0.1-1.1,0.3-1.7,0.6
		c-0.7,0.4-1.2,0.8-1.5,1.3s-0.5,1-0.4,1.6s0.2,1.1,0.5,1.6c0.2,0.4,0.6,0.8,1,1.1c0.4,0.3,0.7,0.5,1.1,0.6l1.4-0.8L234.4,105.1z"/>
	<path d="M234,111.3l5.4-3.1l0.5,0.8l-0.8,0.5c0.5,0,0.9,0,1.1,0.2c0.2,0.1,0.4,0.3,0.5,0.5c0.2,0.3,0.3,0.7,0.2,1.1l-1,0.2
		c0-0.3-0.1-0.6-0.2-0.8c-0.1-0.2-0.3-0.3-0.5-0.4c-0.2-0.1-0.4-0.1-0.7-0.1c-0.4,0.1-0.8,0.2-1.2,0.5l-2.8,1.6L234,111.3z"/>
	<path d="M238.6,117.9c-0.5-0.2-0.9-0.4-1.2-0.6c-0.3-0.2-0.5-0.5-0.8-0.9c-0.3-0.6-0.5-1.1-0.3-1.6s0.4-0.9,0.8-1.1
		c0.3-0.2,0.5-0.2,0.8-0.2c0.3,0,0.6,0.1,0.8,0.2c0.2,0.1,0.5,0.3,0.7,0.5c0.2,0.2,0.3,0.4,0.6,0.7c0.5,0.7,0.9,1.2,1.2,1.5
		c0.1-0.1,0.2-0.1,0.2-0.1c0.4-0.2,0.6-0.4,0.6-0.7c0.1-0.4,0-0.8-0.3-1.2c-0.2-0.4-0.5-0.7-0.8-0.8c-0.3-0.1-0.6-0.1-1.1,0l-0.4-1
		c0.4-0.1,0.8-0.2,1.2-0.1s0.7,0.2,1,0.5c0.3,0.3,0.6,0.7,0.9,1.1c0.3,0.5,0.4,0.9,0.5,1.2s0,0.6,0,0.9c-0.1,0.2-0.2,0.4-0.5,0.6
		c-0.1,0.1-0.4,0.3-0.8,0.5l-1.2,0.7c-0.9,0.5-1.4,0.8-1.6,1c-0.2,0.2-0.4,0.4-0.5,0.6l-0.5-1C238.2,118.3,238.4,118.1,238.6,117.9z
		 M240.6,116.7c-0.3-0.3-0.7-0.7-1.2-1.3c-0.3-0.3-0.5-0.6-0.6-0.7c-0.2-0.1-0.3-0.2-0.5-0.2s-0.3,0-0.5,0.1
		c-0.2,0.1-0.4,0.3-0.5,0.6c-0.1,0.3,0,0.6,0.2,1c0.2,0.4,0.5,0.6,0.8,0.8c0.3,0.2,0.6,0.3,1,0.2c0.3,0,0.6-0.1,1-0.4L240.6,116.7z"
		/>
	<path d="M239.3,120.6l5.4-3.1l0.5,0.8l-0.8,0.4c0.8,0.1,1.4,0.5,1.9,1.2c0.2,0.3,0.3,0.7,0.3,1s0,0.6-0.1,0.9
		c-0.1,0.2-0.3,0.5-0.5,0.7c-0.2,0.1-0.4,0.3-0.9,0.6l-3.3,1.9l-0.5-0.9l3.3-1.9c0.4-0.2,0.6-0.4,0.8-0.6s0.2-0.4,0.2-0.6
		c0-0.2-0.1-0.5-0.2-0.7c-0.2-0.4-0.5-0.7-0.9-0.8c-0.4-0.1-1,0-1.7,0.4l-3,1.7L239.3,120.6z"/>
	<path d="M244,125.1l0.7,0.8c-0.3,0.3-0.5,0.6-0.6,0.9c-0.1,0.3,0,0.7,0.3,1.1c0.2,0.4,0.5,0.7,0.8,0.8s0.5,0.1,0.8,0
		c0.2-0.1,0.3-0.3,0.3-0.5c0-0.2-0.1-0.5-0.2-1.1c-0.2-0.8-0.3-1.3-0.4-1.6c0-0.3,0-0.6,0.2-0.9c0.1-0.3,0.3-0.5,0.6-0.6
		c0.2-0.1,0.5-0.2,0.8-0.2c0.3,0,0.5,0,0.8,0.2c0.2,0.1,0.4,0.2,0.6,0.4s0.4,0.4,0.6,0.7c0.2,0.4,0.4,0.8,0.5,1.2
		c0.1,0.4,0,0.7-0.1,1s-0.3,0.5-0.7,0.8l-0.6-0.8c0.3-0.2,0.4-0.4,0.5-0.7c0-0.3,0-0.6-0.2-1c-0.2-0.4-0.5-0.7-0.7-0.8
		c-0.2-0.1-0.5-0.1-0.6,0c-0.1,0.1-0.2,0.2-0.3,0.3c-0.1,0.1-0.1,0.3,0,0.5c0,0.1,0.1,0.4,0.2,0.9c0.2,0.7,0.3,1.3,0.3,1.6
		c0,0.3,0,0.6-0.1,0.9c-0.1,0.3-0.3,0.5-0.7,0.7c-0.3,0.2-0.6,0.2-1,0.2c-0.4,0-0.7-0.2-1.1-0.4c-0.3-0.3-0.6-0.6-0.9-1
		c-0.4-0.7-0.6-1.3-0.5-1.9S243.4,125.5,244,125.1z"/>
	<path d="M248.4,136.8l5.8-7.1l0.6,1.1l-4.3,5c-0.3,0.4-0.7,0.8-1,1.1c0.5-0.1,1-0.2,1.5-0.3l6.6-1.1l0.6,1l-9.1,1.3L248.4,136.8z"
		/>
	<path d="M251,141.3l5.4-3.1l0.5,0.9l-5.4,3.1L251,141.3z M257.4,137.7l1.1-0.6l0.5,0.9l-1.1,0.6L257.4,137.7z"/>
	<path d="M256.2,146.3l0.4,1c-0.6,0.2-1.2,0.1-1.8-0.1c-0.5-0.2-1-0.7-1.3-1.3c-0.4-0.8-0.6-1.6-0.3-2.3s0.8-1.4,1.7-1.9
		c0.9-0.5,1.8-0.7,2.5-0.5c0.8,0.2,1.4,0.6,1.8,1.4c0.4,0.7,0.5,1.5,0.3,2.2s-0.8,1.4-1.7,1.9c-0.1,0-0.1,0.1-0.2,0.1l-2.3-4
		c-0.6,0.4-0.9,0.8-1.1,1.3c-0.1,0.5-0.1,0.9,0.2,1.4c0.2,0.3,0.4,0.6,0.8,0.7S255.7,146.4,256.2,146.3z M255.9,142.5l1.7,3
		c0.4-0.3,0.7-0.6,0.8-0.9c0.2-0.5,0.1-1-0.1-1.4c-0.2-0.4-0.6-0.7-1-0.8C256.9,142.2,256.4,142.2,255.9,142.5z"/>
	<path d="M257,148.1l0.7,0.8c-0.3,0.3-0.5,0.6-0.6,0.9c-0.1,0.3,0,0.7,0.3,1.1c0.2,0.4,0.5,0.7,0.8,0.8c0.3,0.1,0.5,0.1,0.8,0
		c0.2-0.1,0.3-0.3,0.3-0.5c0-0.2-0.1-0.5-0.2-1.1c-0.2-0.8-0.3-1.3-0.4-1.6c0-0.3,0-0.6,0.2-0.9c0.1-0.3,0.3-0.5,0.6-0.6
		c0.2-0.1,0.5-0.2,0.8-0.2c0.3,0,0.5,0,0.8,0.2c0.2,0.1,0.4,0.2,0.6,0.4c0.2,0.2,0.4,0.4,0.6,0.7c0.2,0.4,0.4,0.8,0.5,1.2
		c0.1,0.4,0,0.7-0.1,1c-0.1,0.3-0.3,0.5-0.7,0.8l-0.6-0.8c0.3-0.2,0.4-0.4,0.5-0.7s0-0.6-0.2-1c-0.2-0.4-0.5-0.7-0.7-0.8
		c-0.2-0.1-0.5-0.1-0.6,0c-0.1,0.1-0.2,0.2-0.3,0.3c-0.1,0.1-0.1,0.3,0,0.5c0,0.1,0.1,0.4,0.2,0.9c0.2,0.7,0.3,1.3,0.3,1.6
		s0,0.6-0.1,0.9c-0.1,0.3-0.3,0.5-0.7,0.7c-0.3,0.2-0.6,0.2-1,0.2c-0.4,0-0.7-0.2-1.1-0.4c-0.3-0.3-0.6-0.6-0.9-1
		c-0.4-0.7-0.6-1.3-0.5-1.9C256.2,149,256.5,148.6,257,148.1z"/>
</g>
<g>
	<path d="M280.6,245.8l8.3,2.1l-0.8,3.1c-0.2,0.6-0.4,1.1-0.6,1.5s-0.6,0.6-1,0.7s-0.8,0.1-1.2,0c-0.4-0.1-0.7-0.3-0.9-0.5
		c-0.3-0.3-0.4-0.6-0.5-1.1c-0.3,0.5-0.6,0.8-1.1,1c-0.4,0.2-0.9,0.2-1.4,0.1c-0.4-0.1-0.7-0.3-1-0.5s-0.5-0.5-0.6-0.8
		c-0.1-0.3-0.2-0.6-0.2-1c0-0.4,0.1-0.8,0.2-1.4L280.6,245.8z M281.3,247.2l-0.5,2.1c-0.1,0.4-0.1,0.6-0.2,0.8c0,0.3,0,0.5,0.1,0.7
		s0.2,0.4,0.4,0.5c0.2,0.2,0.4,0.3,0.7,0.3c0.3,0.1,0.6,0.1,0.9,0c0.3-0.1,0.5-0.3,0.7-0.5s0.3-0.7,0.4-1.2l0.5-1.9L281.3,247.2z
		 M285.1,248.2l-0.5,1.8c-0.1,0.5-0.2,0.8-0.2,1.1c0,0.3,0.1,0.5,0.3,0.7s0.4,0.3,0.7,0.4c0.3,0.1,0.5,0.1,0.8,0
		c0.2-0.1,0.4-0.2,0.6-0.5c0.1-0.2,0.3-0.6,0.4-1.2l0.4-1.7L285.1,248.2z"/>
	<path d="M278.4,257.6c-0.2-0.5-0.4-0.9-0.4-1.3c0-0.4,0-0.8,0.1-1.2c0.2-0.7,0.5-1.1,0.9-1.4c0.4-0.3,0.9-0.3,1.4-0.2
		c0.3,0.1,0.5,0.2,0.8,0.4c0.2,0.2,0.4,0.4,0.5,0.7c0.1,0.3,0.1,0.5,0.1,0.8c0,0.2,0,0.5-0.1,0.9c-0.1,0.8-0.1,1.5-0.1,1.9
		c0.1,0,0.2,0.1,0.3,0.1c0.4,0.1,0.7,0.1,1-0.1c0.3-0.2,0.5-0.6,0.6-1.1c0.1-0.5,0.1-0.9,0-1.1c-0.1-0.3-0.4-0.5-0.8-0.7l0.4-1
		c0.4,0.2,0.7,0.4,0.9,0.7s0.3,0.6,0.4,1.1c0,0.4,0,0.9-0.1,1.4c-0.1,0.5-0.3,0.9-0.5,1.2s-0.4,0.5-0.6,0.6s-0.5,0.2-0.8,0.1
		c-0.2,0-0.5-0.1-1-0.2l-1.4-0.3c-1-0.2-1.6-0.4-1.8-0.4c-0.3,0-0.5,0-0.8,0.1l0.3-1.1C277.8,257.6,278.1,257.6,278.4,257.6z
		 M280.7,258.1c-0.1-0.4,0-1,0-1.8c0-0.4,0.1-0.8,0-0.9c0-0.2-0.1-0.4-0.2-0.5c-0.1-0.1-0.3-0.2-0.4-0.3c-0.3-0.1-0.5,0-0.8,0.1
		c-0.2,0.2-0.4,0.4-0.5,0.8c-0.1,0.4-0.1,0.8,0,1.1c0.1,0.4,0.3,0.6,0.5,0.9c0.2,0.2,0.5,0.3,1,0.4L280.7,258.1z"/>
	<path d="M277,260l6,1.5l-0.3,1l-6-1.5L277,260z M284.1,261.8l1.2,0.3l-0.3,1l-1.2-0.3L284.1,261.8z"/>
	<path d="M276.3,262.5l8.3,2.1l-0.3,1l-8.3-2.1L276.3,262.5z"/>
	<path d="M276.5,269.8l-0.4,1c-0.6-0.3-1-0.8-1.2-1.3c-0.2-0.5-0.3-1.2-0.1-1.9c0.2-0.9,0.7-1.5,1.3-1.9c0.7-0.4,1.5-0.4,2.5-0.2
		c1,0.3,1.7,0.7,2.2,1.4c0.4,0.7,0.5,1.4,0.3,2.2c-0.2,0.8-0.6,1.4-1.3,1.8c-0.7,0.4-1.5,0.4-2.5,0.2c-0.1,0-0.2,0-0.3-0.1l1.1-4.5
		c-0.7-0.1-1.2-0.1-1.7,0.2c-0.4,0.2-0.7,0.6-0.8,1.1c-0.1,0.4-0.1,0.7,0.1,1C275.9,269.2,276.2,269.5,276.5,269.8z M279.1,266.8
		l-0.9,3.4c0.5,0.1,0.9,0.1,1.2-0.1c0.5-0.2,0.8-0.6,0.9-1.1c0.1-0.5,0.1-0.9-0.2-1.3C279.9,267.3,279.6,267,279.1,266.8z"/>
	<path d="M274,271.6l6,1.5l-0.2,0.9l-0.9-0.2c0.5,0.6,0.7,1.3,0.5,2.2c-0.1,0.4-0.2,0.7-0.5,1c-0.2,0.3-0.4,0.5-0.7,0.6
		c-0.2,0.1-0.5,0.1-0.8,0.1c-0.2,0-0.5-0.1-1-0.2l-3.7-0.9l0.3-1l3.7,0.9c0.4,0.1,0.7,0.1,1,0.1c0.2,0,0.4-0.1,0.6-0.3
		c0.2-0.2,0.3-0.4,0.4-0.7c0.1-0.4,0.1-0.8-0.1-1.2s-0.7-0.7-1.5-0.9l-3.3-0.8L274,271.6z"/>
</g>
</svg>
