<svg width="1156" height="515" viewBox="0 0 1156 515" fill="none" xmlns="http://www.w3.org/2000/svg">
<g clip-path="url(#clip0_102_587)">
<path d="M507.715 378.815H497.55V388.987H507.715V378.815Z" fill="#161615"/>
<path d="M521.504 378.815H511.339V388.987H521.504V378.815Z" fill="#161615"/>
<path d="M507.715 361.194H497.55V371.366H507.715V361.194Z" fill="#161615"/>
<path d="M521.504 361.194H511.339V371.366H521.504V361.194Z" fill="#161615"/>
<path d="M376.338 402.178C373.532 402.178 371.262 404.562 371.262 407.511C371.262 410.459 373.532 412.844 376.338 412.844C379.144 412.844 381.414 410.459 381.414 407.511C381.414 404.562 379.144 402.178 376.338 402.178Z" fill="#161615"/>
<path d="M428.026 412.844C430.829 412.844 433.102 410.456 433.102 407.511C433.102 404.566 430.829 402.178 428.026 402.178C425.223 402.178 422.95 404.566 422.95 407.511C422.95 410.456 425.223 412.844 428.026 412.844Z" fill="#161615"/>
<path d="M77.6729 413.93H67.5073V424.102H77.6729V413.93Z" fill="#161615"/>
<path d="M183.77 353.985H173.604V364.157H183.77V353.985Z" fill="#161615"/>
<path d="M183.77 336.364H173.604V346.536H183.77V336.364Z" fill="#161615"/>
<path d="M77.6729 396.309H67.5073V406.481H77.6729V396.309Z" fill="#161615"/>
<path d="M77.6729 358.415H67.5073V368.587H77.6729V358.415Z" fill="#161615"/>
<path d="M184.94 302.9H174.775V313.072H184.94V302.9Z" fill="#161615"/>
<path d="M171.151 285.279H160.986V295.451H171.151V285.279Z" fill="#161615"/>
<path d="M171.151 302.9H160.986V313.072H171.151V302.9Z" fill="#161615"/>
<path d="M22.7562 326.897H12.5906V337.069H22.7562V326.897Z" fill="#161615"/>
<path d="M22.7562 309.276H12.5906V319.448H22.7562V309.276Z" fill="#161615"/>
<path d="M77.6729 340.794H67.5073V350.966H77.6729V340.794Z" fill="#161615"/>
<path d="M184.94 285.279H174.775V295.451H184.94V285.279Z" fill="#161615"/>
<path d="M77.6729 302.9H67.5073V313.072H77.6729V302.9Z" fill="#161615"/>
<path d="M91.462 302.9H81.2964V313.072H91.462V302.9Z" fill="#161615"/>
<path d="M91.462 285.279H81.2964V295.451H91.462V285.279Z" fill="#161615"/>
<path d="M197.545 336.364H187.379V346.536H197.545V336.364Z" fill="#161615"/>
<path d="M197.545 353.985H187.379V364.157H197.545V353.985Z" fill="#161615"/>
<path d="M91.462 396.309H81.2964V406.481H91.462V396.309Z" fill="#161615"/>
<path d="M91.462 340.794H81.2964V350.966H91.462V340.794Z" fill="#161615"/>
<path d="M77.6729 285.279H67.5073V295.451H77.6729V285.279Z" fill="#161615"/>
<path d="M91.462 413.93H81.2964V424.102H91.462V413.93Z" fill="#161615"/>
<path d="M91.462 358.415H81.2964V368.587H91.462V358.415Z" fill="#161615"/>
<path d="M1108.47 65.7576L1156 26.9887L1086.86 53.145L1093.36 0.0282161L1060.7 53.5823L1007.29 0L1033.79 60.1708L955.043 46.4437L1027.13 87.2018C1023.85 89.8259 1011.13 99.9837 998.441 110.184C968.564 134.182 968.578 134.252 968.818 134.943L968.987 135.423H969.481C970.059 135.423 994.183 125.463 1041.18 105.81L1043.05 142.773H999.188V162.031H986.456V162.003L953.675 131.261L953.478 131.078H902.241L885.689 165.953L885.618 215.924L918.328 233.178V286.591L889.566 256.907C892.964 256.202 895.516 253.197 895.516 249.585C895.516 245.466 892.16 242.108 888.043 242.108C883.926 242.108 880.57 245.466 880.57 249.585C880.57 253.112 883.024 256.047 886.309 256.837L847.367 288.241H855.192L854.98 305.524C848.875 305.397 804.11 304.508 797.935 304.381V288.227H804.054L767.579 256.837C770.892 256.075 773.374 253.112 773.374 249.571C773.374 245.452 770.018 242.094 765.901 242.094C761.784 242.094 758.428 245.452 758.428 249.571C758.428 253.098 760.882 256.033 764.167 256.823L725.225 288.227H733.05L732.838 305.524C727.199 305.566 673.043 306.003 666.247 306.046V288.213H671.718L635.243 256.823C638.556 256.061 641.038 253.098 641.038 249.557C641.038 245.438 637.682 242.08 633.565 242.08C629.448 242.08 626.093 245.438 626.093 249.557C626.093 253.084 628.546 256.019 631.831 256.809L594.75 286.732H505.36L504.923 286.111L504.571 286.732H503.626L504.148 287.48L475.301 338.678V261.93H497.592L551.888 206.485L552.057 206.302L558.092 137.003V136.777L524.818 82.264L440.405 46.613L381.794 76.1834L381.541 76.3104L355.401 154.074L355.33 154.3L381.512 235.167L421.78 261.803L421.949 261.916H439.714V348.694C435.456 354.295 424.149 389.269 422.612 394.066H385.756L366.863 331.243V242.926H221.697V243.082L142.459 241.812V205.314H136.481V182.727H131.518L130.038 169.311L119.886 166.588L109.467 172.795L108.015 182.727H103.855V205.314H97.3132V241.092L69.5376 240.641H70.2708V203.904H64.2927V181.317H59.3298L57.8493 167.9L47.6979 165.177L37.2785 171.385L35.8263 181.317H31.667V203.904H25.1249V239.95L0 269.04L6.09089 455.972H35.1213V457.608H36.5312V455.972H221.782V503.46H366.948V464.324L388.548 507.523H420.018L439.813 459.005V503.46H460.68L464.684 515H483.718L488.54 503.46H534.884L538.889 515H557.923L562.745 503.46H593.086V454.547H546.474L543.584 445.899V432.778H602.462V420.264L664.88 421.83L665.599 421.845H666.29L732.161 421.774L796.539 421.845H797.201H797.949L854.332 421.774L918.314 421.845H918.822H920.077H1136.15V364.002H1136.84L1136.81 362.577H1136.15V341.104H1136.84L1136.81 339.679H1136.15V316.838H1136.82V315.428H1136.15V287.564H1136.81V286.153H1136.13V258.318H1136.82L1136.8 256.893H1136.13V233.446H1136.82L1136.8 232.021H1136.13V208.065H1136.81V206.655H1136.13V189.302H1136.81V187.891H1136.13V162.031H1123.7V142.773H1082.53L1095.06 105.105L1139.35 150.067L1107.58 85.1985L1146.17 79.5411L1108.43 65.7576H1108.47ZM505.121 288.778L531.444 326.404L538.113 335.941L515.061 337.69L475.893 340.653L505.121 288.778ZM515.526 339.059L538.719 337.295L542.174 431.353H495.195V405.395H485.029V431.353H475.385V342.092L515.526 339.044V339.059ZM441.223 261.944H473.975V340.794H473.933V341.274L473.383 342.261L473.933 342.219V431.368H441.237V261.944H441.223ZM439.813 351.403V394.108H424.191C425.967 388.606 435.259 360.051 439.813 351.403ZM384.375 394.108H366.948V336.181L384.375 394.108ZM205.469 252.026L221.782 244.789V260.576L221.627 271.199L201.662 270.945L205.469 252.026ZM141.134 206.753V241.812L128.867 241.614L128.12 206.739H141.12L141.134 206.753ZM105.35 184.166H135.156V205.343H105.35V184.166ZM127.457 241.6L108.705 241.304V206.753H126.71L127.457 241.6ZM98.8078 206.753H107.296V241.276L98.8078 241.135V206.753ZM83.214 242.08L111.596 251.165L122.565 269.986L36.5171 269.393L44.1589 252.026L83.1998 242.08H83.214ZM36.5171 240.133V205.328H52.9005L50.2639 240.345L36.503 240.119L36.5171 240.133ZM68.9455 205.328V240.641L51.688 240.359L54.3245 205.314H68.9455V205.328ZM35.1072 454.547H7.45852L1.45223 270.465L35.1213 270.79V454.561L35.1072 454.547ZM35.1072 240.105L25.9427 239.964H26.6194V205.328H35.1072V240.105ZM33.1615 203.918V182.741H62.9674V203.918H33.1615ZM36.5171 454.547V270.79L122.452 271.636L130.926 454.561H36.5453L36.5171 454.547ZM132.336 454.547L123.862 271.636L221.768 272.596V454.547H132.336ZM309.38 502.035H223.177V244.351H315.852L313.512 337.493L309.38 502.035ZM336 502.754L334.59 502.726L336.733 396.365L312.764 396.662V395.251L336.761 394.955L337.607 353.138H313.85V351.728H337.635L338.369 315.16H314.795V313.749H338.397L339.257 270.762H315.908V269.351H339.285L339.807 243.646L341.217 243.674L340.695 269.351H366.215V270.762H340.653L339.793 313.749H366.215V315.16H339.764L339.031 351.728H365.51V353.138H339.003L338.157 394.941L365.51 394.602V396.013L338.129 396.351L335.986 502.768L336 502.754ZM366.934 461.15V395.491H404.057L393.088 435.783H393.003L402.619 458.469L388.816 504.87L366.948 461.135L366.934 461.15ZM404.255 400.161L413.602 434.5L394.935 434.429L404.269 400.161H404.255ZM389.93 506.084L403.38 460.867L417.169 506.084H389.93ZM419.073 506.084H418.65L404.128 458.497L415.59 435.783H415.407L404.452 395.491H439.799V455.252L419.059 506.084H419.073ZM441.166 455.647V432.75H485.015V445.871L481.519 456.409L440.292 457.792L441.166 455.647ZM513.397 502.021H441.223V476.513H476.344L513.397 475.794V502.021ZM513.397 474.383L476.809 475.074L483.027 456.353L486.242 446.675H513.397V474.369V474.383ZM591.704 475.06V502.021H514.807V475.78L552.382 475.06H591.69H591.704ZM545.022 454.519L551.409 473.663L514.821 474.355V446.689H542.413L545.022 454.519ZM597.076 286.718L633.001 257.74L634.312 286.802H602.49V286.718H597.076ZM664.908 327.603V420.391L602.871 418.84V288.213H664.908V327.603ZM731.513 420.349L700.114 420.377V380.889H731.936L731.513 420.349ZM732.204 356.045V354.323L693.121 379.21L698.704 380.085V420.391L666.318 420.42V329.014H732.5L732.204 356.045ZM729.285 286.802L765.309 257.74L766.62 286.802H729.285ZM796.567 324.584V420.42H784.794V373.214L781.481 361.674L769.031 356.792L755.58 358.796L747.107 373.101V420.363H732.923L734.53 288.213H796.581V324.584H796.567ZM819.944 420.391L797.977 420.42V378.773L819.944 380.833V420.391ZM853.627 420.349L821.354 420.391V380.099L825.245 379.563L797.977 360.63V328.308H854.628L853.627 420.349ZM851.399 286.802L887.423 257.74L887.747 264.991L888.734 286.802H851.399ZM918.328 420.406L855.023 420.335L856.63 288.199H918.328V420.391V420.406ZM952.491 364.806V420.42H920.091L919.738 288.213H919.936L919.738 288.002V287.494V233.403H952.491V364.792V364.806ZM985.046 420.42H974.556V394.461H964.391V420.42H953.901V365.229L968.198 342.741L985.046 365.003V420.434V420.42ZM985.046 362.647L968.099 340.258L953.901 362.591V233.262L985.046 225.235V362.647ZM985.046 223.782L953.111 232.021H919.217L887.042 215.049V166.39L903.143 132.46H952.928L985.06 162.595V223.796L985.046 223.782ZM1134.75 420.42H1091.07V394.461H1080.91V420.42H1024.86L1025.75 366.301L1134.77 364.016V420.42H1134.75ZM1134.75 362.605L1025.76 364.89L1026.12 343.39L1134.75 341.104V362.591V362.605ZM1134.75 339.708L1026.13 341.993L1026.55 316.302L1134.75 316.824V339.722V339.708ZM1134.75 315.399L1026.58 314.877L1027.05 286.478L1134.75 287.536V315.399ZM1134.75 286.125L1027.08 285.067L1027.48 260.364L1134.77 258.332V286.125H1134.75ZM1134.75 256.922L1027.5 258.953L1027.88 235.477L1134.75 233.46V256.922ZM1134.75 232.049L1027.91 234.067L1028.33 208.616L1134.77 208.065V232.063L1134.75 232.049ZM1134.75 206.641L1028.35 207.191L1028.63 189.838L1134.75 189.274V206.641ZM1134.75 163.399V187.863L1028.66 188.427L1029.06 163.399H1134.75ZM1045.18 142.731L1074.25 105.909L1080.78 142.731H1045.18ZM1122.32 144.142V161.989H1062.16V144.142H1081.02L1081.39 146.23L1082.08 144.142H1122.3H1122.32ZM1134.29 142.858L1094.47 102.424L1081.81 140.502L1075.08 102.565L1044.38 141.461L1042.46 103.694L1041.53 104.075C1020.97 112.667 984.595 127.833 972.963 132.545C982.931 124.292 1015.22 98.4459 1028.8 87.6109L1029.61 86.962L962.812 49.1947L1036.11 61.9766L1011.6 6.3204L1060.93 55.8114L1091.13 6.29219L1085.14 55.2612L1148.36 31.3481L1105.64 66.209L1140.48 78.9345L1105.5 84.0698L1134.29 142.886V142.858Z" fill="#161615"/>
<path d="M1060.77 81.0084C1060.86 81.2059 1061.06 81.3329 1061.27 81.3329H1066.93V80.2748H1062.54L1066.31 76.4938L1065.57 75.7461L1060.89 80.43C1060.73 80.5852 1060.69 80.8109 1060.77 81.0084Z" fill="#161615"/>
<path d="M1060.36 76.7195C1061.2 76.7195 1061.87 76.0141 1061.87 75.1394C1061.87 74.2647 1061.2 73.5593 1060.36 73.5593C1059.53 73.5593 1058.86 74.2647 1058.86 75.1394C1058.86 76.0141 1059.53 76.7195 1060.36 76.7195Z" fill="#161615"/>
<path d="M1070.04 73.5452C1069.21 73.5452 1068.53 74.2506 1068.53 75.1253C1068.53 76 1069.21 76.7054 1070.04 76.7054C1070.87 76.7054 1071.55 76 1071.55 75.1253C1071.55 74.2506 1070.87 73.5452 1070.04 73.5452Z" fill="#161615"/>
<path d="M1066.64 86.0167H1063.02L1060 83.4208L1059.07 84.493L1062.49 87.4275H1067.23L1071.11 83.4632L1070.11 82.4756L1066.64 86.0167Z" fill="#161615"/>
<path d="M764.139 317.092H753.973V327.264H764.139V317.092Z" fill="#161615"/>
<path d="M777.928 317.092H767.762V327.264H777.928V317.092Z" fill="#161615"/>
<path d="M692.021 345.647H681.855V355.819H692.021V345.647Z" fill="#161615"/>
<path d="M828.728 336.872H818.562V347.044H828.728V336.872Z" fill="#161615"/>
<path d="M881.318 305.552H866.246V409.034H881.318V305.552Z" fill="#161615"/>
<path d="M904.624 305.552H889.552V409.034H904.624V305.552Z" fill="#161615"/>
<path d="M629.519 294.604H614.447V398.087H629.519V294.604Z" fill="#161615"/>
<path d="M652.825 294.604H637.753V398.087H652.825V294.604Z" fill="#161615"/>
</g>
<defs>
<clipPath id="clip0_102_587">
<rect width="1156" height="515" fill="white"/>
</clipPath>
</defs>
</svg>
