<svg width="142" height="111" viewBox="0 0 142 111" fill="none" xmlns="http://www.w3.org/2000/svg">
<path d="M96.3572 27.6302C96.2874 27.2116 96.2874 26.7929 96.2177 26.3743C96.1479 25.8859 96.0083 25.3975 96.0083 24.9091C96.0083 24.8393 96.0083 24.7695 95.9386 24.7695C95.8688 24.7695 95.799 24.8393 95.799 24.9091C95.5897 25.3975 95.2408 25.8859 94.8222 26.2348C94.6826 26.3743 94.5431 26.5139 94.4733 26.6534C94.3338 26.8627 94.264 26.8627 94.1245 26.7232C93.8454 26.4441 93.5663 26.0952 93.3569 25.7463C93.1476 25.3277 93.0778 24.9091 92.9383 24.5602C92.9383 24.4904 92.9383 24.4207 92.7988 24.4207C92.729 24.4207 92.6592 24.4904 92.6592 24.5602C92.2406 25.1882 91.8219 25.8859 91.6824 26.6534C91.6126 27.0023 91.5428 27.0023 91.2637 26.7929L91.194 26.7232C90.7056 26.4441 90.3567 26.0952 90.0776 25.6068C90.0776 25.537 90.0078 25.4673 89.9381 25.4673C89.8683 25.4673 89.8683 25.537 89.7985 25.6068C89.7985 25.6766 89.7287 25.6766 89.7287 25.7463C89.5194 26.3743 89.4496 26.9325 89.5892 27.5605C89.7287 28.6768 90.2171 29.6537 90.9847 30.4212C91.4731 30.9096 91.9615 31.398 92.4499 31.8864C92.5894 32.0259 92.6592 32.1655 92.6592 32.3748C92.5894 32.7935 92.5894 33.2819 92.5894 33.7005C92.5894 33.8401 92.5894 33.9796 92.3801 33.9796C92.3103 33.9796 92.3103 34.1191 92.2406 34.1889C92.0312 34.9564 91.4731 35.5146 90.9847 36.1426C90.9149 36.2123 90.8451 36.2123 90.7753 36.1426C90.6358 36.003 90.566 35.8635 90.4265 35.7239C90.1474 35.3751 90.0078 34.9564 89.8683 34.5378C89.8683 34.468 89.8683 34.3982 89.7287 34.3982C89.659 34.3982 89.659 34.5378 89.5892 34.5378C89.5194 34.7471 89.4497 34.8867 89.3799 35.0262C88.9612 35.6542 88.8217 36.4217 88.7519 37.1194C88.6821 37.9567 88.8915 38.794 89.2403 39.5615C89.4496 40.0499 89.4496 40.0499 88.8915 40.0499C88.124 40.0499 87.4262 40.0499 86.6587 40.0499C86.3796 40.0499 86.3796 40.0499 86.3796 39.7708C86.3796 35.6542 86.3796 31.6073 86.3796 27.4907C86.3796 27.2814 86.3796 27.0023 86.4494 26.7929C86.5889 26.3045 86.868 25.9557 87.2867 25.6068C87.3565 25.537 87.4262 25.4673 87.4262 25.3975C87.4262 25.3277 87.2867 25.3277 87.2169 25.3277C85.2632 25.3277 83.2398 25.3277 81.2862 25.3277C81.1466 25.3277 81.0768 25.4673 81.1466 25.537C81.1466 25.6068 81.2164 25.6068 81.2164 25.6766C81.7746 26.2348 82.0537 26.8627 82.0537 27.6302C82.0537 28.8861 82.0537 30.5607 82.0537 31.8166L71.5877 21.3506C71.6575 21.3506 71.797 21.3506 71.8668 21.3506C72.3552 21.2809 72.8436 21.2111 73.332 21.0715C74.3786 20.8622 75.3554 20.5831 76.3323 20.2343C77.1695 19.9552 78.0068 19.5365 78.7046 19.0481C78.9139 18.9086 79.1232 18.6992 79.2628 18.4202C79.6814 17.234 80.3093 16.1874 80.8675 15.071C81.3559 14.0942 81.8444 13.1174 82.4025 12.1406C82.4723 12.001 82.4723 11.8615 82.263 11.7917C81.9839 11.6521 81.7746 11.5824 81.4955 11.5824C80.7978 11.5824 80.2396 11.7917 79.7512 12.2801C79.6814 12.3499 79.6116 12.4196 79.4023 12.4196C78.8441 12.3499 78.4952 12.5592 78.3557 13.1174C78.3557 13.1872 78.3557 13.3267 78.2859 13.3965C78.2161 13.6756 78.2162 13.9547 77.8673 14.0244C77.5882 14.0942 77.2393 14.164 76.9602 14.0942C76.7509 14.0942 76.5416 13.9547 76.4718 13.8151C76.402 13.6058 76.5416 13.4662 76.6811 13.3965L76.7509 13.3267C77.1695 13.0476 77.3091 12.4197 76.8207 12.001C76.6811 11.8615 76.6114 11.7219 76.6811 11.5824C76.6811 11.1637 76.4718 10.8149 76.0532 10.7451C75.5648 10.6055 75.2159 10.7451 75.0066 11.094C74.867 11.3033 74.7275 11.4428 74.5182 11.5824C74.2391 11.7917 74.0995 12.001 74.0995 12.3499C74.0995 12.5592 74.1693 12.7685 74.2391 12.9778C74.3786 13.3267 74.3088 13.536 74.0298 13.6058C73.332 13.7453 72.7041 13.6058 72.1459 13.2569C71.9365 13.1174 71.797 12.7685 71.9366 12.5592C72.0761 12.3499 72.1459 12.2103 72.2854 12.001C72.4947 11.6521 72.5645 11.2335 72.5645 10.8149C72.5645 10.3264 72.3552 9.97758 72.0761 9.62872C72.0063 9.48917 71.8668 9.4194 71.797 9.27985C71.7272 8.79144 71.5877 8.3728 71.3086 8.02393C71.2388 7.95416 71.2388 7.81461 71.3086 7.74483C71.5877 7.11688 72.1459 6.69824 72.8436 6.55869C73.5413 6.34937 74.2391 6.41914 75.0066 6.55869C75.1461 6.62846 75.3554 6.62846 75.495 6.55869C75.6345 6.48892 75.7043 6.48892 75.8438 6.41915C76.402 6.2796 76.9602 6.20983 77.5184 6.14005C78.1464 6.07028 78.7045 6.14005 79.3325 6.2796C79.8907 6.41914 80.3791 6.62847 80.9373 6.83779C81.0071 6.90756 81.1466 6.90756 81.2164 6.90756C81.3559 6.90756 81.5653 6.83779 81.7048 6.83779C82.0537 6.76801 82.4025 6.69824 82.7514 6.76801C83.4492 6.90756 84.0073 7.18665 84.6353 7.46575C85.0539 7.67507 85.5423 7.95416 85.961 8.16348C86.0307 8.16348 86.1005 8.23325 86.1703 8.16348C86.2401 8.09371 86.1703 8.02393 86.1703 7.95416C86.1703 7.95416 86.1005 7.88439 86.1005 7.81461C85.6819 7.18665 85.1935 6.69824 84.6353 6.20982C83.9375 5.58186 83.1701 4.95391 82.3328 4.46549C81.1466 3.69799 79.8907 3.00026 78.4952 2.58162C78.1464 2.44207 77.7277 2.37229 77.4486 2.0932C77.3789 2.02343 77.2393 2.0932 77.2393 2.16297C77.1695 2.23274 77.1695 2.37229 77.2393 2.44207C77.2393 2.58161 77.1695 2.72116 77.03 2.72116C76.8207 2.79093 76.6114 2.93048 76.402 3.00025C75.7741 3.20957 75.1461 3.48866 74.4484 3.55844C74.0297 3.62821 73.5413 3.76776 73.0529 3.76776C72.7738 3.76776 72.425 3.69798 72.2156 3.55844C71.9366 3.34912 71.9366 3.07002 72.2156 2.8607C72.5645 2.58161 72.7041 2.23274 72.6343 1.8141C72.5645 1.46524 72.3552 1.25592 72.1459 1.0466C71.8668 0.83728 71.6575 0.558188 71.4481 0.209322C71.4481 0.139549 71.3784 0.0697749 71.3086 0.0697749C71.2388 0.0697749 71.169 0.139549 71.169 0.209322C71.0993 0.558188 71.0993 0.837283 71.0295 1.18615C70.9597 1.67456 70.9597 1.67456 70.4713 1.67456C70.0527 1.67456 70.0527 1.67456 69.9829 1.18615C69.9131 0.837283 69.8434 0.488414 69.8434 0.139547C69.8434 0.0697738 69.8434 0 69.7736 0C69.7038 0 69.7038 1.59594e-06 69.634 0.0697749C69.634 0.139548 69.5642 0.139549 69.5642 0.209322C69.4945 0.558188 69.2154 0.767507 68.9363 0.976827C68.3083 1.46524 68.2386 2.37229 68.9363 2.79093C69.0758 2.86071 69.0758 3.00025 69.0758 3.1398C69.0061 3.34912 68.8665 3.48866 68.727 3.55844C68.4479 3.62821 68.1688 3.69799 67.8897 3.69799C67.3315 3.69799 66.8431 3.55844 66.3547 3.41889C65.657 3.27935 65.029 3.00025 64.401 2.79093C64.0522 2.65139 63.9126 2.51184 63.8428 2.16297C63.8428 1.95365 63.7033 1.88388 63.5638 2.02343C63.3544 2.23275 63.0753 2.30252 62.7962 2.37229C61.6101 2.72116 60.4937 3.27934 59.4471 3.9073C58.7494 4.32594 58.1214 4.67481 57.4935 5.233C57.1446 5.51209 56.7957 5.86096 56.3771 6.14005C55.8189 6.62847 55.3305 7.11688 54.9816 7.74483C54.9119 7.81461 54.9119 7.88438 54.9816 7.95416C55.0514 8.02393 55.1212 7.95416 55.191 7.95416C55.4701 7.81461 55.7491 7.67507 56.098 7.53552C56.5864 7.25643 57.0748 7.04711 57.5633 6.83779C57.9121 6.69824 58.3307 6.55869 58.7494 6.55869C59.0983 6.55869 59.5169 6.69824 59.8658 6.76801C60.0053 6.76801 60.1449 6.76801 60.2844 6.69824C60.7728 6.48892 61.2612 6.2796 61.8194 6.14005C62.1683 6.07028 62.5869 5.93073 62.9358 5.93073C63.2149 5.93073 63.494 5.93073 63.7731 6.0005C64.401 6.07028 65.029 6.20983 65.5872 6.41915C65.7267 6.48892 65.936 6.48892 66.1454 6.48892C66.564 6.41915 66.9827 6.34937 67.4013 6.34937C67.9595 6.34937 68.5177 6.48892 69.0061 6.76801C69.4247 6.97733 69.634 7.3262 69.8434 7.67506C69.9131 7.81461 69.8434 7.88438 69.7736 8.02393C69.5643 8.30302 69.4247 8.65189 69.3549 9.00076C69.2852 9.27985 69.1456 9.48917 69.0061 9.69849C68.727 10.0474 68.5874 10.3962 68.5874 10.8846C68.5874 11.4428 68.7968 12.001 69.1456 12.4196C69.2154 12.5592 69.2852 12.6987 69.2154 12.9081C69.1456 13.0476 69.0061 13.1872 68.8665 13.2569C68.3083 13.6058 67.6804 13.6058 67.0524 13.536C66.8431 13.536 66.7733 13.3267 66.8431 13.1174C66.8431 13.0476 66.9129 12.9081 66.9826 12.8383C67.192 12.4196 67.1222 11.9312 66.7733 11.6521C66.4942 11.4428 66.3547 11.2335 66.1454 10.9544C65.8663 10.6055 65.5174 10.6055 65.1685 10.6753C64.7499 10.7451 64.5406 11.0242 64.5406 11.4428C64.5406 11.6521 64.4708 11.8615 64.3312 12.0708C64.0522 12.4196 64.0522 12.6987 64.2615 13.0476C64.3313 13.1872 64.4708 13.3267 64.6104 13.3965C64.7499 13.4662 64.8197 13.6058 64.8197 13.7453C64.8197 13.8849 64.6801 14.0244 64.4708 14.0244C64.1917 14.0942 63.9126 14.0244 63.6335 14.0244C63.494 14.0244 63.3544 13.9547 63.2846 13.9547C63.1451 13.8849 63.0753 13.7453 63.0753 13.6058C63.0753 13.4662 63.0753 13.3965 63.0056 13.2569C62.9358 12.629 62.5171 12.2103 61.8892 12.3499C61.7496 12.3499 61.6799 12.3499 61.6101 12.2801C61.4008 12.0708 61.1915 11.9312 60.9821 11.7917C60.424 11.5126 59.8658 11.4428 59.2378 11.7219C58.8889 11.8615 58.8192 11.9312 59.0285 12.2801C59.0983 12.3499 59.0983 12.4196 59.168 12.4894C59.6564 13.3965 60.1449 14.3733 60.6333 15.2804C60.8426 15.7688 61.1217 16.2572 61.331 16.6758C61.6101 17.234 61.8892 17.7922 62.0985 18.3504C62.1683 18.5597 62.2381 18.6992 62.4474 18.8388C63.0753 19.397 63.7731 19.6761 64.4708 19.9552C65.5174 20.3738 66.564 20.7227 67.6804 20.932C68.2386 21.0715 68.7968 21.1413 69.4247 21.2809C69.4945 21.2809 69.7038 21.2809 69.8434 21.3506L59.3774 31.8166C59.3774 30.4212 59.3774 28.6071 59.3774 27.2814C59.3774 26.7232 59.5169 26.2348 60.0053 25.9557C60.1449 25.8859 60.2844 25.7464 60.3542 25.6068C60.424 25.537 60.424 25.537 60.424 25.3975C60.3542 25.3277 60.3542 25.3277 60.2844 25.3277C60.2146 25.3277 60.1449 25.3277 60.0751 25.3277H54.3537C54.2839 25.3277 54.1444 25.3277 54.0746 25.3277C53.8653 25.3277 53.7955 25.3975 53.935 25.6068C54.0048 25.7464 54.1443 25.8161 54.2141 25.8859C54.6328 26.3045 54.8421 26.8627 54.8421 27.4907C54.8421 32.1655 54.8421 36.9101 54.8421 41.5849C54.8421 41.6547 54.8421 41.7942 54.7723 41.864C54.6328 42.1431 54.4234 42.4222 54.2141 42.6315C54.1443 42.7013 54.1444 42.7013 54.1444 42.771C54.1444 42.8408 54.2141 42.8408 54.2839 42.8408C54.3537 42.8408 54.4235 42.8408 54.4932 42.8408C56.9353 42.8408 59.3774 42.8408 61.8194 42.8408C62.2381 42.8408 62.5172 42.7013 62.7265 42.3524C62.9358 42.0035 63.2847 41.5151 63.5638 41.1662L70.6108 48.2133L82.0537 36.7705C82.0537 38.0962 82.0537 39.8406 82.0537 41.1662C82.0537 41.3756 81.9839 41.5849 81.9141 41.7942C81.7048 42.2128 81.5653 42.3524 81.2862 42.6315C81.1466 42.7013 81.2164 42.8408 81.2862 42.8408C83.7282 42.8408 86.1703 42.8408 88.5426 42.8408C88.6124 42.8408 88.6821 42.8408 88.7519 42.9106C88.7519 42.9804 88.6821 43.0501 88.6821 43.0501C88.4031 43.399 88.0542 43.6083 87.7751 43.9572C87.4262 44.3758 87.0076 44.7945 86.5889 45.1433C86.5192 45.2131 86.3796 45.2829 86.3796 45.0736C86.3098 44.934 86.2401 44.8642 86.1005 45.0038C85.6121 45.2829 85.1237 45.4922 84.5655 45.7015C84.3562 45.7713 84.3562 45.7015 84.3562 45.562C84.426 45.2131 84.426 44.8642 84.426 44.5154C84.426 44.1665 84.3562 43.8874 84.2166 43.6083C84.1469 43.399 84.0771 43.399 83.8678 43.5385C83.7282 43.6781 83.5887 43.8874 83.3794 44.027C83.1003 44.306 82.8212 44.5154 82.5421 44.7945C82.1932 45.1433 81.8444 45.4224 81.5653 45.8411C81.1466 46.3295 80.7978 46.8877 80.5187 47.5156C80.2396 48.1436 80.1 48.7715 80.1 49.3995C80.1 49.7484 79.8907 49.9577 79.6116 50.0972C78.7743 50.5159 77.8673 50.8647 76.9602 51.1438C76.4718 51.2834 75.9834 51.4229 75.495 51.4927C75.4252 51.4927 75.3554 51.4927 75.3554 51.4229C75.2857 51.3531 75.3554 51.3532 75.4252 51.2834C75.7043 51.0043 75.8439 50.6554 76.0532 50.3065C76.1927 50.0972 76.2625 49.8181 76.1927 49.539C76.1927 48.9809 75.9834 48.4227 75.6345 47.9343C75.495 47.7249 75.2857 47.6552 75.0764 47.7249C74.0995 48.004 73.2622 48.4924 72.4947 49.1902C71.8668 49.8181 71.3784 50.5159 70.9597 51.2834C70.8899 51.4229 70.7504 51.5625 70.5411 51.4927C70.4015 51.4927 70.3318 51.4229 70.3318 51.2834C70.0527 50.6554 69.634 50.0275 69.2154 49.539C68.4479 48.632 67.4711 48.004 66.3547 47.6552C66.0756 47.5854 65.7965 47.6552 65.657 47.8645C65.5174 48.0738 65.3779 48.2831 65.2383 48.5622C64.9592 49.2599 65.029 49.9577 65.4476 50.5856C65.5872 50.795 65.6569 51.0043 65.8663 51.2136C65.936 51.2136 65.936 51.2834 65.8663 51.3531C65.8663 51.4229 65.7965 51.3531 65.7267 51.3531C65.4476 51.2834 65.1685 51.2136 64.8894 51.1438C63.7033 50.8647 62.5869 50.4461 61.5403 49.8879C61.4008 49.8181 61.1915 49.7484 61.1915 49.539C61.1217 49.26 60.9821 48.9809 60.9821 48.632C60.9821 48.2134 60.8426 47.7947 60.7728 47.4458C60.3542 46.2597 59.5867 45.4224 58.7494 44.5851C58.3307 44.2363 57.9121 43.8874 57.4935 43.399C57.2842 43.1199 57.1446 43.1199 57.0051 43.4688C57.0051 43.5385 56.9353 43.6083 56.9353 43.6083C56.7957 44.1665 56.7957 44.7945 56.8655 45.3526C56.8655 45.4922 56.8655 45.562 56.726 45.4922C56.2375 45.2131 55.6794 45.0736 55.191 44.7247C54.9816 44.5851 54.9119 44.5851 54.8421 44.8642C54.8421 45.0038 54.7723 45.0038 54.7025 44.934C54.4234 44.6549 54.1443 44.3758 53.8653 44.0967C53.6559 43.8874 53.4466 43.6083 53.2373 43.399C52.6791 42.9106 52.1907 42.3524 51.7721 41.7942C51.5627 41.5151 51.3534 41.3058 51.1441 41.0267C51.0743 40.8872 51.0743 40.7476 51.1441 40.6778C51.2836 40.5383 51.3534 40.3987 51.493 40.2592C52.2605 39.1428 52.6791 37.8869 52.4698 36.5612C52.4 36.0728 52.3302 35.5844 52.1209 35.1657C51.9814 34.8169 51.7721 34.5378 51.6325 34.1889C51.6325 34.1191 51.6325 33.9796 51.493 33.9796C51.4232 33.9796 51.4232 34.1191 51.3534 34.1889C51.1441 34.7471 50.865 35.3053 50.4464 35.7239C50.3766 35.7937 50.3068 35.7937 50.2371 35.7239C50.0975 35.5844 50.0277 35.4448 49.8882 35.3053C49.4695 34.8169 49.1207 34.3285 48.9811 33.7703C48.9811 33.7005 48.9811 33.7005 48.9114 33.6307C48.6323 33.561 48.702 33.2819 48.702 33.1423C48.702 32.7934 48.702 32.3748 48.6323 32.0259C48.6323 31.8864 48.6323 31.7469 48.702 31.6771C49.2602 31.1189 49.8184 30.6305 50.3766 30.0723C50.865 29.5141 51.2139 28.8861 51.493 28.1884C51.7023 27.6302 51.7721 27.0023 51.7023 26.3743C51.7023 26.0254 51.6325 25.6766 51.4232 25.3277C51.4232 25.2579 51.3534 25.1882 51.2837 25.1882C51.2139 25.1882 51.2139 25.2579 51.1441 25.3277C51.0046 25.6766 50.7952 25.9557 50.5161 26.165C50.3766 26.3045 50.1673 26.3743 50.0277 26.5139C49.6789 26.7232 49.6789 26.7929 49.6091 26.3743C49.3998 25.6068 49.0509 24.9788 48.6323 24.3509C48.5625 24.2811 48.5625 24.1416 48.4229 24.2113C48.2834 24.2113 48.3532 24.3509 48.2834 24.4207C48.2834 24.4207 48.2834 24.4207 48.2834 24.4904C48.0741 25.1882 47.8648 25.8161 47.4461 26.3045C47.3066 26.4441 47.2368 26.5836 47.0973 26.6534C47.0275 26.7232 46.9577 26.7232 46.8879 26.6534C46.6786 26.3743 46.3995 26.0952 46.1204 25.8859C45.8413 25.6068 45.632 25.1882 45.4227 24.8393C45.4227 24.7695 45.3529 24.6997 45.2831 24.6997C45.2134 24.6997 45.2134 24.8393 45.2134 24.8393C45.2831 25.1184 45.2134 25.3975 45.1436 25.7463C45.004 26.4441 44.8645 27.072 44.8645 27.7698C44.7947 28.6071 44.9343 29.4443 45.4227 30.2118C45.7716 30.7003 46.1204 31.1887 46.6786 31.5375C47.0275 31.7469 47.167 32.1655 47.3066 32.5144C47.3066 33.4912 47.3763 34.468 47.4461 35.3751C47.4461 35.4448 47.5159 35.5844 47.4461 35.6542C47.3763 35.7239 47.2368 35.5844 47.167 35.5146C47.0275 35.3751 46.8879 35.2355 46.7484 35.096C46.6088 34.9564 46.5391 35.0262 46.4693 35.1657C46.3298 36.003 46.1902 36.8403 46.3297 37.7474C46.3995 38.5846 46.8182 39.3521 47.3763 39.9801C47.9345 40.5383 48.5625 40.9569 49.33 41.236C49.3998 41.3058 49.5393 41.3058 49.6091 41.3756C50.0277 41.9338 50.4464 42.4222 50.865 42.9804C51.4232 43.6781 51.9814 44.306 52.5396 44.934C52.7489 45.2131 52.9582 45.4224 53.2373 45.6317C53.5862 46.0504 54.0048 46.469 54.4235 46.8179C54.6328 47.0272 54.8421 47.1668 54.9119 47.4458C55.0514 48.1436 55.47 48.632 55.9585 49.1204C56.0282 49.1902 56.1678 49.1902 56.098 49.3297C56.098 49.3995 55.9585 49.3995 55.8887 49.4693C55.5398 49.539 55.1909 49.6786 54.9119 49.8879C54.6328 50.0972 54.2839 50.2368 54.0048 50.4461C53.8653 50.5856 53.8653 50.5856 54.0746 50.6554C54.3537 50.795 54.7025 50.795 55.0514 50.9345C55.7491 51.2834 56.4469 51.6322 57.2144 51.8416C57.7726 51.9811 58.4005 52.0509 59.0285 51.9811C59.6565 51.8416 60.2146 51.6322 60.7728 51.4229C60.8426 51.4229 60.9124 51.3531 61.0519 51.4229C61.4008 51.6322 61.8194 51.702 62.1683 51.9113C62.7265 52.1207 63.2847 52.3997 63.9126 52.5393C64.6104 52.7486 65.3081 52.9579 66.0756 53.0975C66.6338 53.1673 67.192 53.3068 67.7502 53.3766C67.9595 53.3766 68.2386 53.3766 68.4479 53.4463C68.727 53.5859 69.0061 53.6557 69.2852 53.7254C69.4247 53.7952 69.4247 53.865 69.3549 53.9348C68.9363 54.3534 68.4479 54.6325 67.8897 54.9116C66.9826 55.3302 66.0756 55.5395 65.0988 55.6791C64.401 55.7489 63.7731 55.8884 63.0753 55.9582C63.0056 55.9582 63.0056 55.9582 62.9358 56.028C62.9358 56.0977 62.9358 56.0977 63.0056 56.0977C63.1451 56.2373 63.3544 56.2373 63.494 56.3071C64.1219 56.5861 64.7499 56.7257 65.3778 56.7955C65.4476 56.7955 65.5174 56.7955 65.5174 56.8652C65.5174 56.935 65.4476 56.935 65.4476 57.0048C65.0988 57.4932 64.6801 58.0514 64.4708 58.6096C64.401 58.8887 64.2615 59.098 64.2615 59.3771C64.2615 59.5864 64.3313 59.5864 64.5406 59.5166C64.7499 59.3771 64.9592 59.2375 65.1685 59.1678C65.7965 58.7491 66.4245 58.3305 67.0524 57.8421C67.6106 57.4234 68.1688 57.0048 68.6572 56.5164C69.0061 56.2373 69.3549 55.8884 69.634 55.6093C69.9131 55.3302 70.262 55.0511 70.5411 54.772C70.6109 54.7023 70.6806 54.7023 70.7504 54.772C71.2388 55.1907 71.6575 55.6093 72.1459 56.028C72.5645 56.3768 72.9831 56.7955 73.4018 57.1443C73.8204 57.4932 74.2391 57.7723 74.6577 58.1212C75.1461 58.5398 75.6345 58.8887 76.1927 59.1678C76.402 59.3073 76.6811 59.4468 76.8904 59.5864C76.9602 59.6562 77.03 59.6562 77.0998 59.5864C77.1695 59.5166 77.1696 59.4468 77.1696 59.3771C77.0998 58.9584 76.9602 58.5398 76.7509 58.1212C76.5416 57.7025 76.2625 57.3537 75.9834 57.0048C75.9136 56.8652 75.9136 56.7955 76.0532 56.7955C76.3323 56.7955 76.6811 56.7257 76.9602 56.6559C77.4486 56.5164 77.937 56.3768 78.4255 56.1675C78.4952 56.1675 78.565 56.0977 78.565 56.028C78.565 55.9582 78.4952 55.9582 78.4255 55.9582C78.1464 55.8884 77.8673 55.8884 77.5184 55.8186C76.7509 55.6791 75.9136 55.6093 75.1461 55.4C74.0995 55.1907 73.1925 54.772 72.3552 54.0743C72.2854 54.0045 72.0761 53.9348 72.1459 53.7952C72.1459 53.6557 72.3552 53.6557 72.425 53.6557C72.704 53.5859 72.9134 53.4464 73.1925 53.3766C73.6111 53.3068 74.0297 53.3068 74.4484 53.237C75.495 53.0277 76.6114 52.8184 77.658 52.4695C78.565 52.1207 79.5418 51.7718 80.4489 51.4229C80.5187 51.3531 80.5884 51.3531 80.6582 51.4229C81.0071 51.5625 81.3559 51.702 81.7746 51.8416C82.3328 51.9811 82.8212 52.1207 83.3794 52.0509C84.0771 51.9811 84.7051 51.7718 85.2632 51.4927C85.8912 51.2136 86.5192 50.8647 87.1471 50.7252C87.2169 50.7252 87.3564 50.7252 87.4262 50.5856C87.4262 50.4461 87.2867 50.3763 87.2169 50.3763C86.6587 50.0275 86.1005 49.6786 85.4028 49.539C85.333 49.539 85.2633 49.539 85.1935 49.3995C85.1935 49.3297 85.2632 49.26 85.333 49.1902C85.8912 48.7715 86.2401 48.1436 86.4494 47.4458C86.5192 47.3063 86.5192 47.2365 86.6587 47.097C86.868 46.9574 87.0774 46.7481 87.2169 46.6086C87.496 46.3295 87.7751 46.0504 88.0542 45.7015C88.4728 45.2131 88.9612 44.7247 89.3799 44.306C90.1474 43.4688 90.7753 42.6315 91.4731 41.7244C91.6824 41.4453 92.0313 41.236 92.3801 41.0965C92.5894 41.0267 92.729 40.9569 92.8685 40.8872C93.4267 40.6081 93.8454 40.1894 94.1942 39.701C94.5431 39.2824 94.7524 38.794 94.892 38.2358C95.0315 37.6776 95.0315 37.0496 94.9617 36.4914C94.9617 36.0728 94.892 35.7239 94.7524 35.3053C94.6826 35.1657 94.6129 35.096 94.4733 35.2355C94.3338 35.3751 94.1942 35.5146 93.9849 35.6542C93.9151 35.7239 93.8454 35.7937 93.7756 35.7937C93.7058 35.7239 93.7058 35.5844 93.7756 35.5146C93.8454 34.9564 93.9151 34.3982 93.9151 33.9098C93.9151 33.561 93.9151 33.1423 93.9151 32.7934C93.9151 32.6539 93.9151 32.5841 93.9849 32.5144C94.1244 32.3748 94.1942 32.1655 94.264 32.0259C94.3338 31.9562 94.3338 31.8864 94.4035 31.8166C94.8222 31.6073 95.171 31.2584 95.4501 30.9096C95.799 30.4909 96.0781 30.0723 96.1479 29.5141C96.3572 28.7466 96.427 28.1884 96.3572 27.6302ZM81.3559 5.93073C81.4955 5.58186 81.7746 5.51209 82.1234 5.44232C82.6119 5.37255 83.1003 5.58187 83.5189 5.72141C84.0771 5.93073 84.5655 6.34937 84.9841 6.69824C85.1237 6.76801 85.1935 6.90756 85.2632 7.0471C84.8446 6.90756 84.4957 6.62847 84.0771 6.48892C83.5189 6.2796 83.0305 6.07028 82.4025 6.07028C82.1235 6.07028 81.8444 6.14005 81.5653 6.20982C81.4257 6.20982 81.2862 6.2796 81.2164 6.20982C81.2164 6.14005 81.2862 6.07028 81.3559 5.93073ZM75.9136 5.65164C76.2625 4.81436 76.8207 4.04685 77.658 3.62821C78.1464 3.41889 78.6348 3.41889 79.0534 3.83753C79.7512 4.53526 80.3093 5.16322 80.7978 6.0005C80.7978 6.07028 80.8675 6.07028 80.8675 6.14005C80.1698 5.86096 79.5418 5.58187 78.7743 5.44232C78.4255 5.37255 78.0068 5.37255 77.658 5.37255C77.0998 5.37255 76.5416 5.51209 75.9834 5.65164C75.8439 5.86096 75.8438 5.79118 75.9136 5.65164ZM71.6574 6.41915C71.797 5.72141 71.8668 5.09345 71.8668 4.39572C71.8668 4.25617 71.9365 4.11662 72.1459 4.1864C72.8436 4.39572 73.4716 4.67481 74.0298 5.09345C74.3088 5.30277 74.6577 5.51209 74.867 5.79119C74.9368 5.86096 75.0066 5.93073 75.0066 6.0005C74.2391 5.86096 73.4715 5.86096 72.704 6.07028C72.4249 6.14005 72.1459 6.2796 71.9366 6.41915C71.8668 6.41915 71.8668 6.48892 71.797 6.48892H71.7272C71.6574 6.48892 71.6574 6.41915 71.6574 6.41915ZM59.7262 6.2796C59.3774 6.20982 59.0285 6.14005 58.6796 6.07028C58.5401 6.07028 58.4703 6.07028 58.3308 6.07028C57.5633 6.20983 56.8655 6.48892 56.2376 6.83779C56.1678 6.90756 56.098 6.90756 55.9585 6.97733C56.0282 6.69824 56.1678 6.62846 56.3073 6.55869C56.5166 6.34937 56.726 6.20983 56.9353 6.07028C57.4237 5.79119 57.9121 5.51209 58.4703 5.44232C58.8192 5.37255 59.2378 5.37254 59.5867 5.65164C59.7262 5.79118 59.7262 5.93073 59.796 6.07028C59.9355 6.20983 59.8658 6.2796 59.7262 6.2796ZM65.2383 5.79119C65.1685 5.86096 65.029 5.79119 64.8894 5.72141C64.2615 5.58187 63.7033 5.44232 63.0753 5.51209C62.3078 5.51209 61.5403 5.65164 60.8426 6.0005C60.703 6.07028 60.4937 6.14005 60.2844 6.20982C60.6333 5.65164 61.0519 5.09345 61.4706 4.60504C61.7497 4.32594 61.959 4.04685 62.3078 3.76776C62.7265 3.48867 63.1451 3.48867 63.5638 3.69799C64.3313 4.04685 64.8197 4.67481 65.1685 5.44232C65.2383 5.51209 65.3081 5.72141 65.2383 5.79119ZM69.4247 6.48892C69.3549 6.55869 69.2154 6.34937 69.1456 6.34937C68.727 6.14005 68.2386 6.0005 67.7502 5.93073C67.192 5.86096 66.7035 5.93073 66.0756 5.93073C66.3547 5.58186 66.7036 5.37255 66.9826 5.09345C67.4013 4.81436 67.8897 4.60504 68.3083 4.39572C68.5177 4.32595 68.727 4.25617 68.9363 4.1864C69.0758 4.11662 69.1456 4.1864 69.1456 4.39572C69.1456 5.02368 69.2154 5.58187 69.2852 6.14005C69.4247 6.2796 69.5643 6.41915 69.4247 6.48892ZM57.5633 34.2587L60.2146 31.6073V36.9798L57.5633 34.2587ZM60.8426 39.9801C60.3542 39.9801 59.9355 39.9801 59.4471 39.9801C59.2378 39.9801 59.168 39.9103 59.168 39.701C59.168 38.8637 59.168 37.538 59.168 36.7008L60.2844 37.8171L62.4474 39.9801C61.959 39.9801 61.2612 39.9801 60.8426 39.9801ZM61.4008 15.9781C61.1217 15.5594 60.9124 15.071 60.703 14.5826C60.3542 13.8849 59.9355 13.1872 59.5867 12.4894C59.5169 12.4196 59.5169 12.3499 59.5169 12.2801C59.5169 12.2103 59.5169 12.1406 59.6564 12.1406C60.2146 12.0708 60.9124 12.4196 61.1915 12.8383C61.2612 12.9778 61.4008 13.0476 61.5403 12.9778C61.8194 12.8383 62.0985 12.9778 62.1683 13.2569C62.2381 13.3965 62.238 13.4662 62.238 13.6058C62.238 14.0244 62.4474 14.3035 62.866 14.4431C63.2847 14.5826 63.7033 14.7222 64.1917 14.6524C64.6104 14.5826 64.9592 14.3733 65.0988 13.9547C65.2383 13.6756 65.2383 13.3267 65.029 13.0476C64.9592 12.9081 64.8197 12.8383 64.7499 12.7685C64.5406 12.5592 64.5406 12.3499 64.7499 12.1406C64.8894 12.001 64.8894 11.9312 64.8894 11.7917C64.8894 11.7219 64.8894 11.6521 64.8894 11.5824C64.8894 11.373 64.9592 11.2335 65.1685 11.1637C65.4476 11.094 65.5872 11.1637 65.7267 11.4428C65.7965 11.6521 65.936 11.7917 66.1454 11.9312C66.3547 12.0708 66.4245 12.2801 66.3547 12.5592C66.2849 12.8383 66.1454 13.0476 66.1454 13.3965C66.1454 13.6058 66.2151 13.8151 66.4244 13.8849C66.6338 14.0244 66.8431 14.0942 67.1222 14.0942C67.4013 14.0942 67.6804 14.164 67.9595 14.0942C68.5177 13.9547 69.0758 13.8151 69.4945 13.3267C69.7736 12.9778 69.9131 12.2801 69.4945 11.7917C69.0061 11.2335 68.9363 10.3962 69.4945 9.83803C69.7736 9.55894 69.7736 9.14031 69.9131 8.86121C69.9829 8.58212 70.1224 8.3728 70.3318 8.23325C70.5411 8.09371 70.6806 8.16348 70.8202 8.30302C71.0993 8.51234 71.169 8.86121 71.2388 9.1403C71.3086 9.48917 71.4481 9.69849 71.6574 9.90781C72.2156 10.5358 72.0761 11.3033 71.5877 11.8615C71.3784 12.1406 71.3086 12.4894 71.3784 12.8383C71.5179 13.3965 71.8668 13.7453 72.425 13.8849C72.8436 14.0244 73.1925 14.164 73.6111 14.0942C73.96 14.0942 74.2391 14.0942 74.4484 13.9547C74.9368 13.7453 75.0066 13.3965 74.867 12.9081C74.867 12.8383 74.7973 12.6987 74.7275 12.629C74.5879 12.3499 74.7275 12.0708 75.0066 11.9312C75.1461 11.8615 75.2159 11.7219 75.2857 11.5824C75.3554 11.3033 75.6345 11.1637 75.9136 11.3033C76.1229 11.3731 76.1229 11.5824 76.1927 11.7219C76.1927 11.9312 76.1927 12.1406 76.402 12.2801C76.6114 12.4196 76.5416 12.629 76.402 12.8383C76.3323 12.9081 76.2625 12.9778 76.2625 12.9778C75.7741 13.3267 75.9136 13.9547 76.2625 14.3733C76.5416 14.7222 76.9602 14.7919 77.3789 14.7222C77.7277 14.6524 78.0068 14.5826 78.2859 14.5128C78.6348 14.3733 78.8441 14.0942 78.8441 13.7453C78.8441 13.6058 78.9139 13.3965 78.9139 13.2569C78.9837 13.0476 79.2627 12.9081 79.4721 13.0476C79.7512 13.1872 79.7512 13.1872 79.8907 12.9081C80.2396 12.4196 80.728 12.2103 81.2862 12.2103C81.5653 12.2103 81.5653 12.2801 81.4955 12.4894C81.0768 13.2569 80.728 14.0244 80.3093 14.7919C80.1 15.2106 79.8907 15.6292 79.6814 16.0479C79.6116 16.1874 79.5418 16.1874 79.4023 16.1176C79.0534 15.7688 78.565 15.5594 78.0766 15.4199C77.3789 15.2106 76.6114 15.0013 75.9136 14.8617C75.1461 14.7222 74.3088 14.5826 73.4716 14.4431C72.6343 14.3733 71.8668 14.3035 71.0295 14.2338C70.4015 14.164 69.7736 14.2338 69.1456 14.2338C68.2386 14.3035 67.4013 14.3733 66.4942 14.5128C65.6569 14.6524 64.8894 14.7919 64.1219 15.0013C63.494 15.1408 62.7962 15.2804 62.238 15.5594C61.959 15.699 61.7496 15.8385 61.5403 15.9781C61.5403 16.1874 61.4706 16.1176 61.4008 15.9781ZM62.238 17.862C62.0985 17.5131 61.959 17.1642 61.8194 16.7456C61.7497 16.606 61.8892 16.5363 61.959 16.4665C62.0985 16.327 62.3078 16.1874 62.5172 16.1176C63.7033 15.6292 65.029 15.3501 66.2849 15.1408C67.1222 15.0013 67.8897 14.9315 68.727 14.8617C69.1456 14.7919 69.4945 14.7919 69.9131 14.7919C70.5411 14.7919 71.0993 14.7919 71.6574 14.7919C72.1459 14.7919 72.7041 14.8617 73.1925 14.9315C73.6111 15.0013 74.0297 15.0013 74.4484 15.071C75.0763 15.1408 75.7043 15.2804 76.2625 15.4199C77.0998 15.6292 77.937 15.8385 78.7046 16.1874C78.9139 16.2572 79.0534 16.3967 79.2628 16.5363C79.4023 16.6758 79.4023 16.8154 79.3325 16.9549C79.193 17.234 79.1232 17.5131 78.9836 17.7922C78.9139 18.0713 78.7743 18.1411 78.565 17.9317C78.1464 17.6526 77.658 17.5131 77.1696 17.4433C76.4718 17.234 75.7741 17.0945 75.0764 16.9549C74.3786 16.8154 73.6111 16.7456 72.9134 16.606C72.3552 16.5363 71.797 16.4665 71.169 16.3967C70.6806 16.3967 70.1224 16.327 69.634 16.3967C69.3549 16.4665 69.0061 16.4665 68.727 16.4665C68.3781 16.4665 68.0292 16.5363 67.6106 16.606C66.9826 16.6758 66.3547 16.8154 65.7267 16.8851C64.9592 17.0247 64.2615 17.234 63.494 17.3736C63.1451 17.4433 62.7962 17.5829 62.4474 17.7922C62.3776 18.0713 62.3078 18.0015 62.238 17.862ZM67.3315 17.4433C66.9129 17.5131 66.4245 17.5131 66.0058 17.6526C65.657 17.7224 65.3081 17.7922 64.8894 17.862C64.5406 17.9317 64.1917 18.0015 63.8428 18.1411C63.6335 18.2108 63.494 18.2806 63.3544 18.3504C63.0753 18.4202 63.0056 18.6992 63.2149 18.9086L63.2846 18.9783C63.2149 19.0481 63.0753 18.9783 63.0056 18.9783C62.866 18.9086 62.7962 18.8388 62.6567 18.769C62.4474 18.6295 62.4474 18.4202 62.7265 18.2806C63.1451 18.0713 63.6335 17.9317 64.1219 17.7922C64.6801 17.6526 65.3081 17.5131 65.936 17.3736C66.6338 17.234 67.3315 17.0945 68.0292 17.0247C68.727 16.9549 69.4945 16.8851 70.1922 16.8851C70.9597 16.8851 71.6574 16.8851 72.425 16.9549C73.5413 17.0247 74.6577 17.234 75.7741 17.4433C76.6114 17.6526 77.4486 17.7922 78.2859 18.1411C78.4255 18.2108 78.6348 18.2806 78.7046 18.4899C78.7046 18.5597 78.7743 18.5597 78.7046 18.6295C78.6348 18.769 78.1464 19.0481 77.937 19.0481C78.0068 18.9783 78.0068 18.9783 78.0766 18.9086C78.2161 18.6992 78.1464 18.4202 77.8673 18.3504C77.1696 18.0713 76.402 17.9317 75.6345 17.7922C74.7973 17.6526 73.96 17.4433 73.1227 17.3736C72.2156 17.3038 71.3086 17.1642 70.4015 17.234C69.3549 17.234 68.3083 17.234 67.3315 17.4433ZM66.1454 42.771L63.2846 39.9103V28.5373L66.1454 25.6766V42.771ZM72.0063 45.7713L70.5411 47.2365L69.0758 45.7713V22.6763L70.5411 21.2111L72.0063 22.6763V45.7713ZM77.937 39.9103L75.0764 42.771V25.6766L77.937 28.5373V39.9103ZM80.9373 36.9101V31.5375L83.5887 34.1889L80.9373 36.9101ZM46.6088 27.8395C46.4693 28.1884 46.4693 28.5373 46.4693 28.8861C46.4693 28.9559 46.4693 29.0257 46.3995 29.0257C46.26 28.8861 46.26 28.6071 46.1902 28.4675C46.1204 28.0489 46.0507 27.7 46.0507 27.2814C46.0507 27.2116 45.9809 27.1418 45.9809 27.0023C45.9809 26.9325 45.9111 26.8627 45.8413 26.9325C45.7715 26.9325 45.7716 27.0023 45.7716 27.072C45.8413 27.4209 45.8413 27.7698 45.9111 28.1186C45.9111 28.1884 45.9111 28.2582 45.9111 28.2582C45.8413 28.8861 45.9809 29.5141 46.1204 30.1421C45.8413 30.0025 45.7716 29.7234 45.632 29.5141C45.3529 28.9559 45.2134 28.3977 45.2831 27.7698C45.3529 27.2814 45.3529 26.7929 45.4227 26.3045C45.4227 26.2348 45.4227 26.0952 45.5622 26.0952C45.632 26.0952 45.7018 26.165 45.7018 26.2348C45.8413 26.3743 46.0506 26.5836 46.1902 26.7232C46.5391 27.0023 46.7484 27.3511 46.6088 27.8395ZM49.8184 29.4443C50.1673 29.0955 50.4464 28.7466 50.6557 28.328C50.7952 28.1186 50.7952 27.8395 50.865 27.6302C50.865 27.5605 50.865 27.4907 50.7952 27.4907C50.7255 27.4907 50.6557 27.4907 50.6557 27.5605C50.5162 27.9093 50.3068 28.1884 50.0277 28.4675C49.9579 28.5373 49.958 28.5373 49.8882 28.5373C49.8184 28.4675 49.8184 28.3977 49.8184 28.3977C49.8882 28.2582 49.8184 28.0489 49.8184 27.9093C49.8184 27.5605 50.0277 27.2814 50.3068 27.1418C50.5859 27.0023 50.7952 26.8627 51.0743 26.6534C51.2139 26.5139 51.2837 26.5836 51.2837 26.7929C51.2837 27.4209 51.1441 28.0489 50.865 28.6071C50.5859 29.0955 50.3068 29.5839 49.8882 30.0025C49.7486 30.1421 49.6091 30.2118 49.4695 30.3514H49.3998C49.6091 29.9327 49.6091 29.6537 49.8184 29.4443ZM47.4461 31.398C47.2368 31.1189 47.0973 30.8398 47.0275 30.5607C46.8182 29.6537 46.9577 28.7466 47.0973 27.9093C47.167 27.5605 47.3763 27.2814 47.5857 27.0023C47.9345 26.5139 48.2834 26.0254 48.5625 25.4673C48.8416 25.7463 48.9114 26.0254 49.0509 26.3743C49.33 27.0023 49.33 27.6302 49.33 28.328C49.2602 29.0955 49.1207 29.863 48.7718 30.6305C48.6323 30.9096 48.4927 31.1887 48.2834 31.398C48.2136 31.5375 48.0741 31.5375 48.0043 31.3282C47.8648 30.9793 47.795 30.5607 47.8648 30.2118C48.0043 29.5141 48.1438 28.7466 48.2834 28.0489C48.3532 27.8396 48.2834 27.5605 48.2834 27.3511C48.2834 27.2814 48.2834 27.2116 48.2136 27.2116C48.1439 27.2116 48.1439 27.2814 48.1439 27.2814C48.0741 28.0489 47.7252 28.8164 47.5159 29.5839C47.3764 30.0025 47.3066 30.3514 47.3066 30.77C47.3763 30.9096 47.4461 31.1189 47.4461 31.398ZM48.5625 40.1196C48.4927 40.1894 48.4927 40.1196 48.4229 40.1196C48.2136 39.9801 48.0043 39.8406 47.8648 39.6312C47.3066 39.073 46.8879 38.5149 46.7484 37.7474C46.6786 37.2589 46.6786 36.8403 46.7484 36.3519C46.7484 36.2821 46.7484 36.1426 46.7484 36.0728C46.7484 35.9333 46.8879 35.8635 47.0275 36.003C47.2368 36.2821 47.4461 36.5612 47.6554 36.8403C47.7252 36.9799 47.7252 37.1194 47.7252 37.2589C47.7252 37.4683 47.795 37.6776 47.795 37.9567C47.5857 37.6776 47.4461 37.3287 47.3066 37.0496C47.2368 36.9101 47.2368 36.7705 47.0973 36.7705C46.9577 36.7705 47.0275 36.9798 47.0275 37.0496C47.0973 37.7474 47.3066 38.4451 47.795 39.0033C48.0043 39.2824 48.2834 39.6312 48.4927 39.9103C48.5625 40.0499 48.5625 40.0499 48.5625 40.1196ZM50.1673 39.9103C50.0975 40.0499 50.0975 40.2592 49.958 40.2592C49.8184 40.2592 49.7486 40.1196 49.7486 39.9801C49.6091 39.701 49.5393 39.4219 49.4695 39.073C49.3998 38.3753 49.3998 37.6078 49.3998 36.9101C49.3998 36.631 49.33 36.4217 49.2602 36.2123C49.2602 36.1426 49.1904 36.0728 49.1207 36.0728C49.0509 36.0728 49.0509 36.2123 49.0509 36.2821C49.1207 36.8403 49.0509 37.3985 49.1207 37.9567C49.1207 38.2358 49.0509 38.5846 49.0509 38.8637C49.0509 39.1428 49.0509 39.4219 49.1207 39.701C49.1207 39.7708 49.1904 39.7708 49.1207 39.8406C49.0509 39.8406 49.0509 39.7708 48.9811 39.7708C48.8416 39.5615 48.702 39.3521 48.6323 39.1428C48.4229 38.5149 48.2136 37.8171 48.2136 37.1194C48.2136 36.4914 48.3532 35.8635 48.6323 35.3053C48.702 35.2355 48.702 35.096 48.7718 35.0262C48.9114 34.8169 48.9811 34.8169 49.0509 35.0262C49.1207 35.2355 49.2602 35.3751 49.3998 35.5146C49.6091 35.8635 49.958 36.1426 50.0975 36.5612C50.3068 37.0496 50.5161 37.538 50.4464 37.8869C50.4464 38.6544 50.3766 39.2824 50.1673 39.9103ZM50.6557 40.329C50.5859 40.2592 50.5859 40.1894 50.5859 40.1196C50.6557 39.701 50.865 39.3521 51.0743 39.0033C51.493 38.2358 51.7721 37.4683 51.6325 36.5612C51.6325 36.4217 51.6325 36.2821 51.5627 36.2123C51.5627 36.1426 51.493 36.0728 51.4232 36.1426C51.3534 36.1426 51.3534 36.2123 51.3534 36.2821C51.3534 36.4914 51.3534 36.7008 51.3534 36.8403C51.3534 37.2589 51.2836 37.6776 51.0743 38.0962C51.0743 38.166 51.0046 38.2358 50.9348 38.2358C50.865 38.2358 50.865 38.166 50.865 38.0962C50.7952 37.6078 50.7952 37.1892 50.5859 36.7705C50.5161 36.7008 50.5859 36.631 50.6557 36.5612C50.9348 36.2123 51.1441 35.7937 51.3534 35.3751C51.3534 35.3053 51.3534 35.2355 51.4232 35.2355C51.493 35.2355 51.493 35.3053 51.493 35.3751C51.7721 36.003 51.9116 36.631 51.9116 37.2589C51.8418 38.166 51.7023 39.0033 51.1441 39.7708C51.0046 39.9801 50.865 40.1196 50.6557 40.329C50.865 40.329 50.7952 40.3987 50.6557 40.329ZM58.9587 51.1438C58.1214 51.4229 57.3539 51.4229 56.5864 51.0741C56.0282 50.795 55.47 50.5856 54.9119 50.3065C54.7723 50.2368 54.8421 50.167 54.9119 50.167C55.0514 50.0972 55.2607 49.9577 55.4701 49.8879C55.8189 49.7484 56.2375 49.6786 56.6562 49.6088C56.7957 49.6088 57.0051 49.6786 57.1446 49.7484C57.633 49.9577 58.1912 50.0972 58.6796 50.3065C58.7494 50.3065 58.8192 50.3763 58.8889 50.4461C58.4005 50.5159 57.9121 50.3763 57.4237 50.3065C56.8655 50.167 56.3073 50.167 55.7491 50.167C55.6794 50.167 55.6096 50.167 55.6096 50.2368C55.6096 50.3066 55.6794 50.3065 55.7491 50.3065C56.1678 50.3065 56.5864 50.3763 57.0051 50.4461C57.3539 50.5159 57.633 50.5856 57.9819 50.7252C58.3308 50.795 58.6796 50.9345 59.0983 50.9345C59.168 50.9345 59.2378 51.0043 59.3076 51.0043C59.0983 51.1438 59.0285 51.1438 58.9587 51.1438ZM56.3073 47.2365C56.4469 47.3063 56.5166 47.3761 56.6562 47.4458C57.0051 47.6552 57.3539 47.9343 57.7028 48.2831C58.1912 48.7715 58.6796 49.3297 59.2378 49.7484C59.3076 49.7484 59.3076 49.8181 59.3774 49.8879C59.0983 49.8879 58.8889 49.8181 58.6796 49.7484C57.9121 49.4693 57.1446 49.1902 56.4469 48.7715C55.8189 48.4227 55.47 47.8645 55.3305 47.1667C55.1909 46.7481 55.3305 46.3295 55.3305 45.9108C55.3305 45.7015 55.4003 45.6317 55.6096 45.7015C56.1678 45.9108 56.726 46.1202 57.2144 46.3993C57.9819 46.8179 58.6098 47.3761 59.168 48.004C59.5169 48.3529 59.796 48.7715 60.0751 49.1902C60.1449 49.26 60.1449 49.3297 60.2146 49.3995C59.6564 49.2599 59.168 48.9809 58.7494 48.632C58.4703 48.4227 58.1214 48.1436 57.8423 47.8645C57.4935 47.4458 57.0051 47.1667 56.5167 46.9574C56.5167 46.9574 56.4469 46.9574 56.4469 46.8877C56.3771 46.8877 56.3771 46.8877 56.3073 46.8877C56.2375 47.1668 56.2375 47.1668 56.3073 47.2365ZM60.703 48.7715C60.6333 48.7715 60.6333 48.7018 60.6333 48.7018C60.4937 48.4227 60.3542 48.0738 60.1448 47.7947C59.8658 47.4458 59.6564 47.0272 59.3076 46.7481C58.8889 46.3295 58.5401 45.9806 58.1912 45.562C58.1214 45.4922 58.1214 45.4224 58.0517 45.4922C57.9819 45.562 57.9819 45.6317 58.0517 45.7015C58.1912 46.0504 58.4703 46.3295 58.6796 46.5388C58.9587 46.8179 59.2378 47.097 59.3774 47.5156C58.9587 47.3063 58.6098 46.8877 58.1912 46.6086C58.1214 46.5388 58.0517 46.469 57.9819 46.469C57.633 46.2597 57.4935 45.9108 57.4237 45.562C57.3539 45.2829 57.2842 44.934 57.2842 44.5851C57.2842 44.5154 57.2842 44.4456 57.2842 44.4456C57.2842 44.3758 57.2841 44.306 57.3539 44.306C57.4237 44.306 57.4935 44.3758 57.4935 44.3758C58.0517 44.8642 58.6098 45.4224 59.168 45.9108C59.7262 46.3992 60.1449 46.9574 60.424 47.6552C60.5635 48.004 60.703 48.3529 60.703 48.7018C60.703 48.7018 60.7728 48.7715 60.703 48.7715ZM68.0292 50.3763C67.4711 49.9577 66.8431 49.6088 66.1454 49.3297C66.0756 49.26 65.936 49.26 65.8663 49.1902C65.5872 49.0506 65.5174 48.9809 65.5872 48.7018C65.657 48.4227 65.7267 48.2133 65.936 48.004C66.0058 47.9343 66.0756 47.9343 66.2151 47.9343C66.6338 48.004 67.0524 48.2134 67.4013 48.4227C67.8897 48.7018 68.3083 48.9809 68.727 49.3995C69.1456 49.8181 69.4247 50.3065 69.7038 50.795C69.7736 50.9345 69.9131 51.1438 69.9131 51.2834V51.3531C69.8433 51.5625 69.8433 51.7718 69.634 51.8416C69.4945 51.8416 69.4247 51.6322 69.2852 51.4927C68.9363 51.1438 68.5177 50.7252 68.0292 50.3763ZM70.4015 54.0743C70.1224 54.3534 69.8434 54.7023 69.4945 54.9814C69.1456 55.2604 68.7968 55.6093 68.4479 55.8884C67.9595 56.3071 67.4711 56.7257 66.9129 57.2141C66.2849 57.7723 65.5872 58.1909 64.9592 58.6096L64.8894 58.6793C64.8197 58.6793 64.8197 58.7491 64.7499 58.6793C64.6801 58.6096 64.7499 58.5398 64.7499 58.5398C64.9592 58.0514 65.2383 57.6328 65.5872 57.2141C65.8663 56.935 66.0756 56.6559 66.2849 56.4466C66.2849 56.4466 66.3547 56.3768 66.3547 56.3071C66.3547 56.2373 66.2849 56.2373 66.2151 56.2373C65.5872 56.3071 64.9592 56.307 64.3312 56.028C64.9592 55.9582 65.657 55.8186 66.2849 55.6791C66.4942 55.6093 66.7035 55.5396 66.9129 55.4698C67.8199 55.1209 68.5874 54.7023 69.3549 54.1441C69.3549 54.1441 69.3549 54.1441 69.4247 54.0743C69.7038 53.7952 69.9829 53.6557 70.4015 53.7952C70.4713 53.7952 70.5411 53.7952 70.6108 53.865C70.4713 53.9348 70.4015 54.0045 70.4015 54.0743ZM70.262 53.237C70.0527 53.237 69.7736 53.0277 69.8434 52.8882C69.8434 52.6788 69.9829 52.3997 70.1224 52.1904C70.1922 52.0509 70.262 52.0509 70.3318 52.1904C70.4015 52.3997 70.5411 52.6788 70.5411 52.8882C70.5411 53.0975 70.4713 53.237 70.262 53.237ZM70.9597 53.1673C70.8899 52.8184 70.7504 52.4695 70.7504 52.1207C70.7504 52.0509 70.7504 51.9811 70.8202 52.0509C71.0295 52.0509 71.4481 52.5393 71.4481 52.7486C71.3784 52.9579 71.4481 53.237 71.169 53.3068C71.0295 53.3068 70.9597 53.3068 70.9597 53.1673ZM72.9832 54.9116C73.6809 55.3302 74.5182 55.6093 75.2857 55.8186C75.7741 55.8884 76.2625 56.028 76.7509 56.028C76.8207 56.028 76.8904 56.028 76.9602 56.0977C76.6114 56.1675 76.3323 56.2373 75.9834 56.2373C75.6345 56.2373 75.3554 56.3071 75.0066 56.2373C74.9368 56.2373 74.867 56.2373 74.867 56.3071C74.867 56.3768 74.867 56.4466 74.9368 56.4466C75.2159 56.7257 75.495 57.0746 75.7741 57.3537C76.123 57.7025 76.2625 58.1212 76.5416 58.5398C76.5416 58.6096 76.6113 58.6096 76.5416 58.6793C76.4718 58.7491 76.4718 58.6793 76.402 58.6793C76.0532 58.47 75.7043 58.2607 75.3554 58.0514C74.4484 57.4234 73.6809 56.6559 72.8436 56.028C72.425 55.6791 72.0761 55.3302 71.6574 54.9814C71.4481 54.772 71.2388 54.5627 71.0295 54.3534C70.8899 54.2139 71.0295 53.9348 71.2388 53.865C71.3784 53.7952 71.5179 53.865 71.6574 54.0045C72.0761 54.3534 72.4947 54.6325 72.9832 54.9116ZM72.2156 51.3531C72.0761 51.5625 71.8668 51.7718 71.7272 51.9811C71.6574 52.1207 71.5877 52.0509 71.5179 51.9811C71.3086 51.702 71.2388 51.4229 71.4481 51.1438C71.797 50.5856 72.1459 49.9577 72.6343 49.4693C72.9832 49.1204 73.332 48.8413 73.7506 48.632C74.0995 48.4227 74.5182 48.2134 74.9368 48.0738C75.2159 48.004 75.2857 48.0738 75.4252 48.2831C75.5648 48.4924 75.6345 48.7715 75.7043 49.0506C75.7043 49.1902 75.6345 49.26 75.495 49.3297C75.1461 49.4693 74.7972 49.6088 74.5182 49.7484C73.6111 50.0972 72.8436 50.6554 72.2156 51.3531ZM80.5884 48.8413C80.5187 48.5622 80.5884 48.3529 80.6582 48.1436C80.8675 47.3761 81.2862 46.6783 81.8443 46.1201C82.263 45.7015 82.7514 45.2829 83.2398 44.8642C83.3794 44.7247 83.5887 44.5851 83.7282 44.3758C83.8678 44.2363 83.9376 44.2363 84.0073 44.4456C84.0771 44.7247 84.0771 44.934 84.0073 45.2131C83.9376 45.4922 83.9376 45.7015 83.798 45.9806C83.7282 46.1899 83.5887 46.3295 83.3794 46.469C82.891 46.8179 82.4723 47.2365 81.9141 47.5854C82.0537 47.2365 82.263 46.9574 82.5421 46.6783C82.8212 46.3992 83.1003 46.1899 83.2398 45.8411C83.2398 45.7713 83.3096 45.7713 83.3096 45.7015C83.3096 45.6317 83.3794 45.562 83.3096 45.4922C83.2398 45.4224 83.2398 45.562 83.17 45.562C82.8909 45.8411 82.6119 46.1202 82.4025 46.3993C81.7746 47.0272 81.2164 47.7249 80.8675 48.5622C80.728 48.632 80.728 48.7715 80.5884 48.8413ZM86.3098 50.167C86.3796 50.167 86.4494 50.2368 86.4494 50.3065C86.4494 50.3763 86.3796 50.3763 86.3098 50.4461C85.6819 50.7252 85.0539 51.0043 84.426 51.2834C83.7282 51.5625 83.0305 51.5625 82.3328 51.2834C82.263 51.2834 82.1234 51.2136 82.1932 51.1438C82.1932 51.0741 82.3328 51.0741 82.4025 51.0741C83.1003 51.0043 83.7282 50.7252 84.426 50.5856C84.7748 50.5159 85.1237 50.4461 85.5423 50.4461C85.6819 50.4461 85.8912 50.4461 85.8214 50.3065C85.8214 50.167 85.6121 50.2368 85.5423 50.2368C84.7748 50.2368 84.0771 50.3763 83.3794 50.5159C83.1003 50.5856 82.8212 50.5856 82.5421 50.5159C82.7514 50.3065 83.0305 50.3065 83.2398 50.167C83.6585 50.0275 84.0771 49.8879 84.4957 49.7484C84.7051 49.6786 84.9842 49.7484 85.1935 49.7484C85.5423 49.8181 85.961 49.9577 86.3098 50.167ZM85.4726 48.3529C85.1237 48.7715 84.7051 48.9809 84.2864 49.1902C83.5887 49.539 82.8212 49.8181 82.0537 49.9577H81.9839C81.9839 49.8879 82.0537 49.8181 82.0537 49.8181C82.4723 49.539 82.8212 49.1902 83.17 48.8413C83.4491 48.5622 83.7282 48.2831 84.0073 48.004C84.2864 47.7947 84.5655 47.5854 84.8446 47.3761H84.9144C84.9841 47.3063 85.1237 47.3063 85.0539 47.1667C84.9842 47.097 84.9144 47.1667 84.8446 47.1667C84.2167 47.4458 83.7282 47.7947 83.2398 48.2831C82.7514 48.7715 82.1932 49.1902 81.4955 49.4693C81.4257 49.4693 81.2862 49.6088 81.2164 49.539C81.1466 49.4693 81.2164 49.3297 81.2862 49.2599C81.4955 48.9111 81.7048 48.5622 81.9839 48.2831C82.4723 47.7249 83.0305 47.2365 83.6585 46.7481C84.1469 46.3993 84.7051 46.1201 85.1935 45.9108C85.333 45.8411 85.5423 45.7713 85.6819 45.7015C85.8912 45.6317 85.961 45.6317 86.0307 45.9108C86.1703 46.8179 86.0308 47.6552 85.4726 48.3529ZM90.566 40.3987C90.4962 40.3987 90.4265 40.3987 90.3567 40.329C90.0078 39.9801 89.7287 39.5615 89.5194 39.1428C89.2403 38.5846 89.1705 37.9567 89.1008 37.3287C89.1008 36.631 89.2403 36.003 89.5892 35.3751C89.659 35.2355 89.7287 35.2355 89.7287 35.3751C89.9381 35.7937 90.2172 36.1426 90.4265 36.5612C90.4963 36.631 90.566 36.7008 90.4962 36.8403C90.3567 37.2589 90.2869 37.6776 90.2171 38.166C90.2171 38.2358 90.2171 38.3055 90.1474 38.3055C90.0776 38.3055 90.0078 38.2358 90.0078 38.166C89.7985 37.7474 89.7287 37.3287 89.7287 36.8403C89.7287 36.7008 89.7287 36.5612 89.7287 36.4217C89.7287 36.3519 89.7287 36.2821 89.659 36.2821C89.5892 36.2821 89.5892 36.3519 89.5892 36.4217C89.4496 37.0496 89.4496 37.6776 89.659 38.2358C89.7985 38.7242 90.0776 39.2126 90.3567 39.6312C90.4962 39.8406 90.4962 40.1196 90.566 40.329C90.6358 40.329 90.6358 40.3987 90.566 40.3987ZM90.6358 29.0955C90.2869 28.5373 90.0776 27.9791 89.9381 27.3511C89.9381 27.1418 89.9381 26.9325 89.9381 26.6534C89.9381 26.5139 90.0078 26.4441 90.1474 26.5836C90.4962 26.7929 90.8451 27.0023 91.194 27.2814C91.3335 27.4209 91.4033 27.6302 91.4033 27.7698C91.4033 27.9791 91.4033 28.1186 91.4033 28.328C91.4033 28.3977 91.4033 28.4675 91.3335 28.4675C91.2637 28.4675 91.2637 28.4675 91.194 28.3977C90.9149 28.1884 90.7056 27.9093 90.566 27.6302C90.566 27.6302 90.566 27.5605 90.4962 27.5605C90.4962 27.4907 90.4265 27.4209 90.3567 27.4907C90.2869 27.4907 90.2869 27.5605 90.3567 27.6302C90.4265 28.1884 90.7056 28.6768 91.0544 29.0955C91.1242 29.235 91.2638 29.3048 91.4033 29.4443C91.6126 29.6537 91.6126 29.9327 91.6824 30.2118C91.2637 30.0025 90.9149 29.5839 90.6358 29.0955ZM92.3801 39.7708C92.3103 39.8406 92.3103 39.9103 92.2406 39.8406C92.1708 39.8406 92.1708 39.701 92.1708 39.701C92.2406 39.2126 92.2406 38.6544 92.1708 38.166C92.1708 37.6776 92.1708 37.2589 92.1708 36.7705C92.1708 36.631 92.1708 36.4914 92.2406 36.3519C92.2406 36.2821 92.2406 36.2123 92.1708 36.2123C92.101 36.2123 92.0313 36.2821 92.0313 36.2821C91.9615 36.4217 91.8917 36.5612 91.8917 36.7008C91.8917 37.1194 91.8219 37.4683 91.8219 37.8869C91.8219 38.5846 91.8219 39.2126 91.6126 39.8406C91.5428 40.0499 91.4033 40.1894 91.3335 40.329C91.2637 40.3987 91.194 40.329 91.194 40.2592C91.0544 39.9801 90.9846 39.701 90.9149 39.4219C90.7753 38.8637 90.7753 38.3055 90.7753 37.7474C90.8451 36.9798 91.1242 36.3519 91.6126 35.7937C91.8219 35.5146 92.0313 35.3053 92.1708 35.0262C92.3104 34.8169 92.3801 34.8169 92.5197 35.0262C92.729 35.4448 92.8685 35.8635 92.9383 36.2821C93.0081 36.631 93.0081 36.9798 93.0081 37.3287C93.0081 37.9567 92.7988 38.5149 92.5894 39.073C92.5894 39.3521 92.5197 39.5615 92.3801 39.7708ZM94.3338 36.0728C94.4035 35.9333 94.5431 36.003 94.6129 36.2123C94.7524 37.0496 94.7524 37.9567 94.3338 38.7242C94.1244 39.1428 93.7756 39.4917 93.3569 39.8406C93.2174 39.9801 93.0778 40.0499 92.9383 40.1894C92.9383 40.1894 92.8685 40.2592 92.7988 40.1894C92.729 40.1196 92.7988 40.1196 92.7988 40.0499C93.0081 39.701 93.2872 39.4219 93.4965 39.073C93.9151 38.5149 94.1942 37.8171 94.1942 37.1194C94.1942 37.0496 94.264 36.9101 94.1245 36.9101C93.9849 36.9101 93.9849 37.0496 93.9849 37.1194C93.9151 37.4683 93.7058 37.7474 93.4965 38.0264C93.4965 37.8171 93.4965 37.6078 93.4965 37.3985C93.5663 36.7705 93.9849 36.4914 94.3338 36.0728ZM93.8454 31.4678C93.7756 31.3282 93.8454 31.1887 93.8454 31.0491C93.8454 30.4909 93.7756 30.0025 93.5663 29.5141C93.357 28.8861 93.0778 28.2582 92.9383 27.5605C92.9383 27.4907 92.9383 27.4209 92.9383 27.3511C92.9383 27.2814 92.9383 27.2116 92.8685 27.2116C92.7988 27.2116 92.7988 27.2814 92.7988 27.3511C92.7988 27.6302 92.7988 27.9791 92.8685 28.2582C93.0081 28.8861 93.1476 29.5839 93.2872 30.2118C93.3569 30.5607 93.357 30.9096 93.2174 31.2584C93.0779 31.5375 93.0779 31.5375 92.8685 31.2584C92.5197 30.77 92.2406 30.1421 92.101 29.5839C91.8917 28.8164 91.8219 28.1186 91.8917 27.3511C91.9615 26.7232 92.1708 26.0952 92.5197 25.537C92.5894 25.4673 92.5894 25.3975 92.6592 25.537C92.8685 26.0254 93.2174 26.5139 93.5663 26.9325C93.9849 27.4907 94.264 28.0489 94.264 28.7466C94.264 29.0257 94.3338 29.3746 94.3338 29.6537C94.3338 30.2816 94.1942 30.9096 93.8454 31.4678ZM95.4501 29.863C95.3804 30.0025 95.3106 30.0723 95.1711 30.1421C95.2408 29.863 95.3106 29.5141 95.3106 29.235C95.3106 29.0955 95.3106 28.9559 95.3106 28.8164C95.3106 28.2582 95.3106 27.7 95.4501 27.1418C95.4501 27.072 95.5199 27.0023 95.3804 26.9325C95.3106 26.9325 95.2408 27.0023 95.2408 27.072C95.1013 27.4907 95.1013 27.9093 95.0315 28.3977C94.9617 28.6071 94.9617 28.8164 94.8222 28.9559C94.6826 28.8164 94.7524 28.6071 94.7524 28.4675C94.6826 28.1884 94.6129 27.8395 94.5431 27.5605C94.4733 27.4209 94.5431 27.2814 94.6129 27.1418C94.8222 26.7232 95.1711 26.4441 95.5199 26.165C95.5897 26.0952 95.6595 26.0952 95.7292 26.165C95.799 26.3045 95.799 26.5139 95.8688 26.6534C96.0083 27.8396 96.0083 28.8861 95.4501 29.863Z" fill="black"/>
<path d="M60.7031 13.0476C60.5635 13.0476 60.4937 13.1871 60.5635 13.3267C60.6333 13.536 60.703 13.7453 60.8426 13.9547C60.9821 14.164 61.1217 14.3733 61.4008 14.4431C61.6799 14.5128 61.959 14.3733 61.959 14.164V14.0942C61.959 13.6058 61.1915 13.0476 60.7031 13.0476Z" fill="black"/>
<path d="M79.6116 14.5129C79.8907 14.5129 80.0302 14.3734 80.1698 14.164C80.3093 13.9547 80.4489 13.6756 80.5884 13.4663C80.6582 13.3965 80.6582 13.3268 80.5884 13.1872C80.5186 13.1174 80.4488 13.1174 80.3791 13.1174C79.8907 13.257 79.472 13.4663 79.2627 13.9547C79.0534 14.2338 79.2627 14.5129 79.6116 14.5129Z" fill="black"/>
<path d="M70.3319 10.1172C70.4715 10.3265 70.7506 10.3265 70.8901 10.1172C71.0995 9.76833 71.0297 9.34969 70.8204 9.00083C70.7506 8.93105 70.7506 8.7915 70.611 8.7915C70.4715 8.7915 70.4017 8.86128 70.3319 9.00083C70.2622 9.21015 70.1924 9.41947 70.1924 9.62879C70.1226 9.83811 70.1924 9.97765 70.3319 10.1172Z" fill="black"/>
<path d="M70.9597 11.5126C71.0294 11.5824 71.0992 11.6522 71.169 11.5824C71.3783 11.5126 71.7272 11.094 71.7272 10.8847C71.7272 10.6056 71.5876 10.3962 71.3783 10.3962C71.3085 10.3962 71.2388 10.3962 71.169 10.466C70.8899 10.6056 70.7503 11.2335 70.9597 11.5126Z" fill="black"/>
<path d="M70.1923 11.4429C70.1923 11.3731 70.2621 11.3033 70.2621 11.2336C70.2621 11.0243 70.1923 10.8847 70.1225 10.6754C70.0528 10.5358 69.9132 10.3963 69.7039 10.4661C69.4946 10.5358 69.4248 10.6754 69.4248 10.8149C69.4248 11.1638 69.5644 11.3731 69.8434 11.5824C70.0528 11.6522 70.1225 11.6522 70.1923 11.4429Z" fill="black"/>
<path d="M65.1685 12.4197C65.1685 12.5592 65.1685 12.6988 65.2382 12.8383C65.308 12.9779 65.4476 13.0477 65.5871 13.0477C65.7266 13.0477 65.7964 12.9081 65.8662 12.7686C65.8662 12.629 65.8662 12.4895 65.7964 12.2801C65.7266 12.0708 65.5173 11.9313 65.3778 12.0011C65.1684 12.0011 65.1685 12.2104 65.1685 12.4197Z" fill="black"/>
<path d="M75.5648 13.0476C75.7044 13.0476 75.8439 12.9778 75.9137 12.8383C75.9835 12.6987 75.9835 12.6289 75.9835 12.4894C75.9835 12.4196 75.9835 12.3498 75.9835 12.2801C75.9835 12.1405 75.9137 12.0707 75.7741 12.001C75.6346 12.001 75.5648 12.0707 75.495 12.1405C75.3555 12.3498 75.2857 12.5592 75.3555 12.7685C75.3555 12.8383 75.3555 12.9778 75.5648 13.0476Z" fill="black"/>
<path d="M69.704 16.0478C69.9831 16.2572 70.2622 16.2572 70.6808 16.2572C70.8901 16.2572 71.0994 16.1874 71.3785 16.0478C71.6576 15.9083 71.6576 15.6292 71.4483 15.4199C71.0994 15.0012 70.0528 14.9315 69.6342 15.3501C69.4249 15.4897 69.4947 15.8385 69.704 16.0478Z" fill="black"/>
<path d="M75.0067 16.5364C75.3556 16.8155 75.7742 16.955 76.2626 16.8853C76.6812 16.8155 76.8906 16.3968 76.6115 16.048C76.3324 15.6991 75.9137 15.6293 75.4951 15.5596C75.4253 15.5596 75.3556 15.5596 75.2858 15.5596C75.0765 15.6293 74.8671 15.6293 74.7974 15.9084C74.7974 16.1178 74.8671 16.3969 75.0067 16.5364Z" fill="black"/>
<path d="M65.0988 16.8851C65.5175 16.8851 65.8663 16.8153 66.1454 16.606C66.3548 16.4664 66.3548 16.2571 66.3548 16.0478C66.3548 15.8385 66.2152 15.6989 66.0059 15.6292C65.5873 15.4896 64.8895 15.6292 64.5407 15.978C64.3313 16.1873 64.3313 16.3967 64.4011 16.606C64.6104 16.8153 64.8197 16.8851 65.0988 16.8851Z" fill="black"/>
<path d="M73.1924 16.4666C73.5412 16.4666 73.8901 16.1875 73.8901 15.8386C73.8901 15.42 73.611 15.1409 73.1924 15.1409C72.9133 15.1409 72.4946 15.4897 72.4946 15.7688C72.4946 16.0479 72.8435 16.4666 73.1924 16.4666ZM73.2621 15.42C73.4017 15.42 73.5412 15.4897 73.5412 15.6991C73.5412 15.9084 73.4715 15.9781 73.3319 16.0479C73.1924 16.0479 72.9831 15.8386 72.9831 15.6991C72.9133 15.6293 73.1226 15.42 73.2621 15.42Z" fill="black"/>
<path d="M78.1465 17.4434C78.4953 17.4434 78.7744 17.1643 78.7744 16.7456C78.7744 16.327 78.4953 16.1177 78.0767 16.1177C77.7278 16.1177 77.4487 16.3968 77.4487 16.8154C77.4487 17.3038 77.8674 17.4434 78.1465 17.4434ZM78.1465 16.5363C78.286 16.5363 78.4256 16.6759 78.4256 16.8154C78.4256 16.955 78.286 17.0945 78.1465 17.0945C78.0069 17.0945 77.9371 16.955 77.8674 16.8154C77.8674 16.6759 77.9371 16.5363 78.1465 16.5363Z" fill="black"/>
<path d="M67.9595 16.4666C68.2385 16.4666 68.5874 16.1875 68.5874 15.9084C68.5874 15.42 68.3083 15.1409 67.8897 15.1409C67.5408 15.1409 67.2617 15.42 67.2617 15.8386C67.2617 16.1177 67.5408 16.4666 67.9595 16.4666ZM67.8897 15.42C68.0292 15.42 68.2385 15.6293 68.2385 15.7688C68.2385 15.9084 68.099 16.0479 67.9595 16.0479C67.7501 16.0479 67.6106 15.9084 67.6106 15.6991C67.6106 15.5595 67.7501 15.42 67.8897 15.42Z" fill="black"/>
<path d="M63.0752 17.4434C63.424 17.5131 63.7031 17.1643 63.7031 16.8154C63.7031 16.4665 63.424 16.1177 63.0054 16.1177C62.6565 16.1177 62.3774 16.3968 62.3774 16.7456C62.3774 17.1643 62.7263 17.5131 63.0752 17.4434ZM63.0752 16.4665C63.2147 16.4665 63.3543 16.6061 63.3543 16.8154C63.3543 16.955 63.2147 17.0945 63.0752 17.0945C62.9356 17.0945 62.7263 16.955 62.7263 16.8154C62.6565 16.6759 62.8659 16.4665 63.0752 16.4665Z" fill="black"/>
<path d="M54.7028 22.7461C54.7725 23.3043 54.8423 23.7927 54.7725 24.3509C54.7725 24.63 54.7725 24.63 54.9819 24.63C55.6098 24.63 56.2378 24.63 56.8657 24.63H56.9355H57.0053C57.6332 24.63 58.2612 24.63 58.8892 24.63C59.1683 24.63 59.1683 24.63 59.0985 24.3509C59.0985 23.7927 59.0985 23.3043 59.1683 22.7461C59.238 22.1182 59.5171 21.6298 59.7265 21.0716C59.7265 21.0018 59.7962 20.932 59.7265 20.7925C59.6567 20.7227 59.5869 20.7227 59.4473 20.7925C58.9589 21.0018 58.4705 21.2809 58.0519 21.56C57.8426 21.6995 57.7728 21.6995 57.6333 21.4902C57.4239 21.2111 57.2844 20.8622 57.0053 20.5831C56.9355 20.5134 56.8657 20.4436 56.796 20.4436C56.7262 20.4436 56.6564 20.4436 56.5867 20.5831C56.3773 20.8622 56.168 21.1413 55.9587 21.4902C55.8191 21.6995 55.7494 21.6995 55.5401 21.56C55.0516 21.2809 54.633 21.0018 54.1446 20.7925C54.0748 20.7925 54.005 20.7227 53.8655 20.7925C53.7957 20.8622 53.8655 20.932 53.8655 21.0716C54.3539 21.6298 54.633 22.1182 54.7028 22.7461Z" fill="black"/>
<path d="M85.124 21.4902C84.9146 21.2111 84.7751 20.8622 84.496 20.5831C84.4262 20.5134 84.3564 20.4436 84.2867 20.4436C84.2169 20.4436 84.1471 20.4436 84.0774 20.5831C83.868 20.8622 83.6587 21.1413 83.4494 21.4902C83.3099 21.6995 83.2401 21.6995 83.0308 21.56C82.5423 21.2809 82.1237 21.0018 81.6353 20.7925C81.5655 20.7925 81.4958 20.7227 81.3562 20.7925C81.2864 20.8622 81.3562 20.932 81.3562 21.0716C81.5655 21.6298 81.8446 22.1182 81.9144 22.7461C81.9842 23.3043 82.0539 23.7927 81.9842 24.3509C81.9842 24.63 81.9842 24.63 82.1935 24.63C82.8214 24.63 83.4494 24.63 84.0774 24.63H84.1471H84.2169C84.8449 24.63 85.4728 24.63 86.1008 24.63C86.3799 24.63 86.3799 24.63 86.3101 24.3509C86.3101 23.7927 86.3101 23.3043 86.3799 22.7461C86.4496 22.1182 86.7287 21.6298 86.9381 21.0716C86.9381 21.0018 87.0078 20.932 86.9381 20.7925C86.8683 20.7227 86.7985 20.7227 86.659 20.7925C86.1705 21.0018 85.6821 21.2809 85.2635 21.56C85.2635 21.6995 85.2635 21.6995 85.124 21.4902Z" fill="black"/>
<path d="M5.44231 71.6572H9.07053L14.5128 86.9376H11.0242L10.0474 83.7978H4.39571L3.34911 86.9376H0L5.44231 71.6572ZM5.233 81.1464H9.1403L7.18664 75.1459L5.233 81.1464Z" fill="black"/>
<path d="M17.8621 81.1464V81.4953C17.8621 82.6814 18.0016 83.5187 18.2109 84.0071C18.4203 84.4955 18.9087 84.7048 19.6064 84.7048C20.3041 84.7048 20.7925 84.4257 21.0019 83.9373C21.1414 83.6582 21.2112 83.1 21.2112 82.3325V71.6572H24.4208V82.3325C24.4208 83.6582 24.2114 84.6351 23.7928 85.4026C23.0253 86.6585 21.6996 87.3562 19.7459 87.3562C17.7923 87.3562 16.4666 86.8678 15.8386 85.8212C15.1409 84.7746 14.8618 83.3791 14.8618 81.565V81.2162H17.8621V81.1464Z" fill="black"/>
<path d="M27.4209 71.6572H30.7003V81.0766C30.7003 82.1232 30.8398 82.8907 31.0491 83.3791C31.4678 84.2164 32.305 84.6351 33.561 84.6351C34.8169 84.6351 35.6541 84.2164 36.0728 83.3791C36.3519 82.8907 36.4216 82.1232 36.4216 81.0766V71.6572H39.701V81.0766C39.701 82.6814 39.4219 83.9373 38.9335 84.8444C38.0264 86.5189 36.2123 87.3562 33.561 87.3562C30.9096 87.3562 29.0955 86.5189 28.1884 84.8444C27.7 83.9373 27.4209 82.6814 27.4209 81.0766V71.6572Z" fill="black"/>
<path d="M42.0732 71.6572H45.4224L51.4926 82.3325V71.6572H54.4929V86.9376H51.2833L45.0735 76.0529V86.9376H42.0732V71.6572Z" fill="black"/>
<path d="M68.1687 71.6572V74.3784H63.5636V86.9376H60.3541V74.3784H55.749V71.6572H68.1687Z" fill="black"/>
<path d="M72.2157 71.6572H75.8439L81.2862 86.9376H77.7976L76.8207 83.7978H71.0993L70.0527 86.9376H66.7036L72.2157 71.6572ZM72.0064 81.1464H75.9137L73.96 75.1459L72.0064 81.1464Z" fill="black"/>
<path d="M93.1473 71.6572H97.7523V86.9376H94.752V76.6111C94.752 76.332 94.752 75.9134 94.752 75.3552C94.752 74.797 94.752 74.3784 94.752 74.0993L91.8216 86.9376H88.6818L85.8211 74.0993C85.8211 74.3784 85.8211 74.797 85.8211 75.3552C85.8211 75.9134 85.8211 76.332 85.8211 76.6111V86.9376H82.8208V71.6572H87.4956L90.2866 83.6582L93.1473 71.6572Z" fill="black"/>
<path d="M111.777 74.3784H103.683V77.6577H111.149V80.3091H103.683V84.2164H112.126V86.9376H100.543V71.6572H111.777V74.3784Z" fill="black"/>
<path d="M114.428 71.6572H117.777L123.848 82.3325V71.6572H126.848V86.9376H123.638L117.428 76.0529V86.9376H114.428V71.6572Z" fill="black"/>
<path d="M141.291 71.6572V74.3784H136.686V86.9376H133.476V74.3784H128.871V71.6572H141.291Z" fill="black"/>
<path d="M9.6989 95.1011C10.8153 95.4499 11.6526 96.1477 12.3503 97.0547C12.9085 97.8222 13.2573 98.6595 13.4667 99.5666C13.676 100.474 13.7458 101.311 13.7458 102.148C13.7458 104.241 13.3271 105.986 12.4898 107.381C11.3735 109.335 9.62913 110.312 7.25683 110.312H0.558594V94.7522H7.25683C8.23366 94.822 9.07094 94.8917 9.6989 95.1011ZM3.69839 97.4734V107.59H6.69865C8.23366 107.59 9.28026 106.823 9.90822 105.358C10.2571 104.52 10.3966 103.544 10.3966 102.427C10.3966 100.822 10.1175 99.6363 9.62912 98.7991C9.14071 97.9618 8.16389 97.5431 6.69865 97.5431H3.69839V97.4734Z" fill="black"/>
<path d="M26.7934 97.5431H18.5602V100.822H26.0957V103.544H18.5602V107.521H27.1423V110.312H15.3506V94.7522H26.7236V97.5431H26.7934Z" fill="black"/>
<path d="M44.9344 94.7522H48.2835L42.9808 110.312H39.9107L34.6777 94.7522H38.1664L41.5155 106.544L44.9344 94.7522Z" fill="black"/>
<path d="M51.5633 94.7522H55.2613L60.7734 110.312H57.2847L56.2381 107.102H50.5167L49.4701 110.312H45.9814L51.5633 94.7522ZM51.354 104.451H55.3311L53.3774 98.3106L51.354 104.451Z" fill="black"/>
<path d="M62.3076 94.7522H65.587V107.521H73.3318V110.312H62.3076V94.7522Z" fill="black"/>
<path d="M87.0078 97.5431H78.7745V100.822H86.31V103.544H78.7745V107.521H87.3566V110.312H75.5649V94.7522H86.938V97.5431H87.0078ZM83.1702 93.5661H81.0073L77.7977 90.4263H81.1468L83.1702 93.5661Z" fill="black"/>
<path d="M89.8686 94.7522H93.2875L99.4276 105.567V94.7522H102.428V110.312H99.1485L92.7991 99.2875V110.312H89.7988V94.7522H89.8686Z" fill="black"/>
<path d="M106.963 96.4266C108.219 95.1707 109.823 94.5427 111.707 94.5427C114.289 94.5427 116.173 95.38 117.359 97.1243C117.987 98.1012 118.405 99.078 118.405 100.055H115.126C114.917 99.2873 114.638 98.7291 114.359 98.3803C113.8 97.6825 112.893 97.3337 111.777 97.3337C110.591 97.3337 109.684 97.8221 109.056 98.7291C108.358 99.7059 108.079 101.032 108.079 102.776C108.079 104.52 108.428 105.846 109.126 106.683C109.823 107.521 110.73 108.009 111.777 108.009C112.893 108.009 113.731 107.66 114.289 106.893C114.638 106.474 114.847 105.916 115.126 105.078H118.336C118.057 106.753 117.359 108.149 116.173 109.195C115.056 110.242 113.591 110.8 111.777 110.8C109.544 110.8 107.8 110.102 106.544 108.637C105.288 107.172 104.66 105.218 104.66 102.706C104.8 99.985 105.567 97.8918 106.963 96.4266Z" fill="black"/>
<path d="M124.057 110.312H120.848V94.7522H124.057V110.312Z" fill="black"/>
<path d="M131.523 94.7522H135.221L140.733 110.312H137.245L136.198 107.102H130.407L129.36 110.312H125.941L131.523 94.7522ZM131.314 104.451H135.291L133.337 98.3106L131.314 104.451Z" fill="black"/>
</svg>
